<?xml version="1.0" standalone="no"?>
<!DOCTYPE svg PUBLIC "-//W3C//DTD SVG 1.1//EN" "http://www.w3.org/Graphics/SVG/1.1/DTD/svg11.dtd" >
<svg>
<metadata>
Created by FontForge 20090622 at Tue Mar 29 20:49:08 2016
 By deploy user
Copyright (c) 2009 by Jos Buivenga. All rights reserved.
</metadata>
<defs>
<font id="MuseoSlab-900" horiz-adv-x="820" >
  <font-face 
    font-family="Museo Slab 900"
    font-weight="400"
    font-stretch="normal"
    units-per-em="1000"
    panose-1="2 0 0 0 0 0 0 0 0 0"
    ascent="750"
    descent="-250"
    x-height="515"
    cap-height="715"
    bbox="-129 -248 1230 931"
    underline-thickness="50"
    underline-position="-50"
    unicode-range="U+0020-U+FB04"
  />
<missing-glyph horiz-adv-x="510" 
d="M5 0v700h500v-700h-500zM255 395l170 255h-340zM285 350l170 -255v510zM55 95l170 255l-170 255v-510zM85 50h340l-170 255z" />
    <glyph glyph-name="f_f" unicode="ff" horiz-adv-x="795" 
d="M42 0v125h65v265h-70v125h70v21q0 48 16.5 84.5t40.5 56t57 31.5t59.5 15.5t54.5 3.5q22 0 44 -2l17 -2v-136l-10 2q-7 1 -32 1q-74 0 -74 -50v-25h209v21q0 48 16.5 84.5t40.5 56t57 31.5t59.5 15.5t54.5 3.5q22 0 44 -2l17 -2v-136l-10 2q-7 1 -32 1q-74 0 -74 -50v-25
h106v-125h-106v-265h76v-125h-314v125h65v265h-209v-265h76v-125h-314z" />
    <glyph glyph-name="fi" unicode="fi" horiz-adv-x="752" 
d="M42 0v125h65v265h-70v125h70v21q0 48 16.5 84.5t40.5 56t57 31.5t59.5 15.5t54.5 3.5q22 0 44 -2l17 -2v-136l-10 2q-7 1 -32 1q-74 0 -74 -50v-25h382v-390h65v-125h-303v125h65v265h-209v-265h76v-125h-314zM491 580v135h169v-135h-169z" />
    <glyph glyph-name="fl" unicode="fl" horiz-adv-x="747" 
d="M42 0v125h65v265h-70v125h70v11q0 109 82.5 159.5t211.5 50.5q83 0 173 -16q44 -8 74 -16v-504q0 -38 9.5 -52t38.5 -14q4 0 8.5 0.5t6.5 0.5h6v-137l-15 -2q-11 -1 -40 -1q-38 0 -67 6.5t-58.5 25.5t-45.5 60t-16 103v408q-13 4 -24 5q-20 4 -60 4q-111 0 -111 -77v-15
h106v-125h-106v-265h76v-125h-314z" />
    <glyph glyph-name="f_f_i" unicode="ffi" horiz-adv-x="1134" 
d="M42 0v125h65v265h-70v125h70v21q0 48 16.5 84.5t40.5 56t57 31.5t59.5 15.5t54.5 3.5q22 0 44 -2l17 -2v-136l-10 2q-7 1 -32 1q-74 0 -74 -50v-25h209v21q0 48 16.5 84.5t40.5 56t57 31.5t59.5 15.5t54.5 3.5q22 0 44 -2l17 -2v-136l-10 2q-7 1 -32 1q-74 0 -74 -50v-25
h382v-390h65v-125h-303v125h65v265h-209v-265h76v-125h-314v125h65v265h-209v-265h76v-125h-314zM873 580v135h169v-135h-169z" />
    <glyph glyph-name="f_f_l" unicode="ffl" horiz-adv-x="1129" 
d="M42 0v125h65v265h-70v125h70v21q0 48 16.5 84.5t40.5 56t57 31.5t59.5 15.5t54.5 3.5q22 0 44 -2l17 -2v-136l-10 2q-7 1 -32 1q-74 0 -74 -50v-25h209v11q0 109 82.5 159.5t211.5 50.5q83 0 173 -16q44 -8 74 -16v-504q0 -38 9.5 -52t38.5 -14q4 0 8.5 0.5t6.5 0.5h6
v-137l-15 -2q-11 -1 -40 -1q-38 0 -67 6.5t-58.5 25.5t-45.5 60t-16 103v408q-13 4 -24 5q-20 4 -60 4q-111 0 -111 -77v-15h106v-125h-106v-265h76v-125h-314v125h65v265h-209v-265h76v-125h-314z" />
    <glyph glyph-name="f_j" unicode="fj" horiz-adv-x="728" 
d="M42 0v125h65v265h-70v125h70v21q0 48 16.5 84.5t40.5 56t57 31.5t59.5 15.5t54.5 3.5q22 0 44 -2l17 -2v-136l-10 2q-7 1 -32 1q-74 0 -74 -50v-25h381v-523q0 -49 -18 -87t-44 -58.5t-61 -33.5t-63 -17t-56 -4q-25 0 -33 1l-13 2v135q1 -1 6 -1h16q22 0 40.5 4.5
t35.5 21.5t17 45v390h-208v-265h76v-125h-314zM490 580v135h169v-135h-169z" />
    <glyph glyph-name=".notdef" horiz-adv-x="510" 
d="M5 0v700h500v-700h-500zM255 395l170 255h-340zM285 350l170 -255v510zM55 95l170 255l-170 255v-510zM85 50h340l-170 255z" />
    <glyph glyph-name=".null" horiz-adv-x="0" 
 />
    <glyph glyph-name="nonmarkingreturn" horiz-adv-x="333" 
 />
    <glyph glyph-name="space" unicode=" " horiz-adv-x="250" 
 />
    <glyph glyph-name="exclam" unicode="!" horiz-adv-x="294" 
d="M73 221l-16 494h180l-16 -494h-148zM68 0v150h158v-150h-158z" />
    <glyph glyph-name="quotedbl" unicode="&#x22;" horiz-adv-x="415" 
d="M242 490v240h122v-240h-122zM51 490v240h122v-240h-122z" />
    <glyph glyph-name="numbersign" unicode="#" horiz-adv-x="704" 
d="M102 0l31 180h-101l20 120h101l17 95h-99l20 120h99l35 200h134l-35 -200h108l35 200h134l-35 -200h105l-20 -120h-105l-17 -95h103l-20 -120h-103l-31 -180h-134l31 180h-108l-31 -180h-134zM287 300h108l17 95h-108z" />
    <glyph glyph-name="dollar" unicode="$" horiz-adv-x="577" 
d="M31 105l88 123q31 -24 54 -37q62 -37 117 -37q33 0 56 15t23 43q0 18 -18 33t-46.5 26.5t-63.5 24t-69.5 30t-63 39.5t-46.5 57.5t-18 80.5q0 77 53 132t138 71v109h109v-106q80 -9 137 -44q27 -17 46 -34l-70 -133q-22 18 -49 32q-60 31 -108 31q-36 0 -58.5 -13.5
t-22.5 -41.5q0 -20 18 -35.5t46.5 -27t63.5 -23.5t69.5 -28.5t63 -37.5t46.5 -55t18 -77q0 -79 -53.5 -140t-146.5 -75v-106h-109v106q-88 14 -151 56q-29 18 -53 42z" />
    <glyph glyph-name="percent" unicode="%" horiz-adv-x="854" 
d="M214 382q-76 0 -128.5 50t-52.5 122q0 70 53 121.5t128 51.5t128 -51.5t53 -121.5q0 -72 -53 -122t-128 -50zM73 0l552 715h152l-552 -715h-152zM214 502q23 0 39 15t16 38q0 21 -16 36.5t-39 15.5t-39 -15.5t-16 -36.5q0 -23 16 -38t39 -15zM460 160q0 70 53 121.5
t128 51.5t128 -51.5t53 -121.5q0 -72 -53 -122t-128 -50q-76 0 -128.5 50t-52.5 122zM586 161q0 -23 16 -38t39 -15t39 15t16 38q0 21 -16 36.5t-39 15.5t-39 -15.5t-16 -36.5z" />
    <glyph glyph-name="ampersand" unicode="&#x26;" horiz-adv-x="698" 
d="M34 205q0 59 33.5 105.5t90.5 67.5v2q-28 15 -47 34q-47 47 -47 120q0 97 71 145t172 48q36 0 74 -6l32 -6l-40 -137l-12 2q-14 2 -27 2q-40 0 -66.5 -19t-26.5 -54q0 -32 19 -53.5t54 -21.5h107v93h172v-93h89v-140h-89v-74q0 -99 -76 -165.5t-205 -66.5
q-125 0 -201.5 62.5t-76.5 154.5zM213 221q0 -36 27.5 -57t73.5 -21q49 0 78 24t29 63v64h-118q-38 0 -64 -18t-26 -55z" />
    <glyph glyph-name="quotesingle" unicode="'" horiz-adv-x="227" 
d="M51 490v240h125v-240h-125z" />
    <glyph glyph-name="parenleft" unicode="(" horiz-adv-x="351" 
d="M319 -95h-142q-124 198 -124 442q0 212 124 403h142q-113 -188 -113 -403q0 -230 113 -442z" />
    <glyph glyph-name="parenright" unicode=")" horiz-adv-x="351" 
d="M174 -95h-142q113 212 113 442q0 215 -113 403h142q124 -191 124 -403q0 -244 -124 -442z" />
    <glyph glyph-name="asterisk" unicode="*" horiz-adv-x="490" 
d="M189 309l-122 88l75 83v2l-110 23l46 143l102 -45l-11 112h152l-12 -112l103 46l47 -143l-111 -23v-2l76 -83l-122 -89l-56 97h-2z" />
    <glyph glyph-name="plus" unicode="+" horiz-adv-x="630" 
d="M42 222v130h205v223h136v-223h205v-130h-205v-222h-136v222h-205z" />
    <glyph glyph-name="comma" unicode="," horiz-adv-x="291" 
d="M7 -111l75 277h165l-113 -277h-127z" />
    <glyph glyph-name="hyphen" unicode="-" horiz-adv-x="452" 
d="M69 212v150h314v-150h-314z" />
    <glyph glyph-name="period" unicode="." horiz-adv-x="284" 
d="M60 0v164h164v-164h-164z" />
    <glyph glyph-name="slash" unicode="/" horiz-adv-x="464" 
d="M32 -42l256 792h144l-256 -792h-144z" />
    <glyph glyph-name="zero" unicode="0" horiz-adv-x="628" 
d="M314 -12q-74 0 -127.5 28.5t-83.5 80.5t-44 117t-14 145t14 144.5t44 116t83.5 79.5t127.5 28t127.5 -28t83.5 -79.5t44 -116t14 -144.5t-14 -145t-44 -117t-83.5 -80.5t-127.5 -28.5zM314 143q89 0 89 216q0 213 -89 213t-89 -213q0 -216 89 -216z" />
    <glyph glyph-name="one" unicode="1" horiz-adv-x="542" 
d="M49 0v140h152v308q0 8 0.5 20.5t0.5 17.5v17h-2q-4 -8 -7 -12q-15 -21 -21 -26l-43 -39l-101 108l193 181h151v-575h153v-140h-476z" />
    <glyph glyph-name="two" unicode="2" horiz-adv-x="608" 
d="M560 0h-515q-8 45 -8 77q0 73 33 132t80.5 96t94.5 67.5t80 62t33 63.5q0 40 -22.5 57t-54.5 17q-44 0 -83 -41q-18 -18 -32 -41l-121 83q20 41 56 77q79 77 196 77q98 0 172 -56.5t74 -162.5q0 -58 -32 -107t-77.5 -82t-91.5 -61t-78.5 -58t-33.5 -60h180v85h150v-225z
" />
    <glyph glyph-name="three" unicode="3" horiz-adv-x="591" 
d="M53 500v215h472v-124l-134 -164q73 -17 115 -69t42 -126q0 -100 -70 -172t-200 -72q-102 0 -182 47q-36 21 -62 47l81 125q20 -19 44 -32q54 -32 106 -32q47 0 74.5 23t27.5 58q0 37 -29 59t-84 22q-11 0 -35 -2l-37 80l125 159q9 12 23 24l11 10v2q-10 0 -15 -1
q-18 -2 -30 -2h-93v-75h-150z" />
    <glyph glyph-name="four" unicode="4" horiz-adv-x="632" 
d="M20 173v106l276 436h214v-407h85v-135h-85v-173h-173v173h-317zM309 489l-115 -179v-2h143v173q0 28 4 48l3 26h-4l-8 -22q-10 -27 -23 -44z" />
    <glyph glyph-name="five" unicode="5" horiz-adv-x="591" 
d="M31 79l77 128q21 -19 45 -32q56 -32 109 -32q47 0 78.5 24t31.5 67q0 39 -30 63.5t-88 24.5q-41 0 -76 -13q-18 -7 -27 -13l-93 35l29 384h419v-215h-150v75h-117l-6 -93q0 -5 -2 -19l-2 -9h2q1 0 4 1l6 2t6 1q17 3 48 3q120 0 188.5 -64t68.5 -162q0 -106 -77 -176.5
t-201 -70.5q-98 0 -180 46q-36 20 -63 45z" />
    <glyph glyph-name="six" unicode="6" horiz-adv-x="617" 
d="M330 -12q-121 0 -205 87t-84 247q0 80 22.5 152.5t65 129t110 90t151.5 33.5q60 0 111 -15q27 -8 42 -16l-46 -145q-10 6 -30 11q-38 10 -70 10q-115 0 -156 -123h2q38 25 108 25q105 0 170.5 -73.5t65.5 -168.5q0 -97 -72 -170.5t-185 -73.5zM221 270q0 -47 32.5 -87
t76.5 -40q34 0 55.5 25t21.5 65q0 42 -29 71t-92 29q-65 0 -65 -63z" />
    <glyph glyph-name="seven" unicode="7" horiz-adv-x="568" 
d="M71 0l267 532q11 20 20 33q1 1 3.5 5t4.5 6v2q-10 0 -15 -1q-18 -2 -37 -2h-130v-75h-150v215h519v-122l-300 -593h-182z" />
    <glyph glyph-name="eight" unicode="8" horiz-adv-x="614" 
d="M39 204q0 98 103 178q-75 58 -75 141t61.5 143.5t176.5 60.5q107 0 177.5 -54t70.5 -145q0 -83 -74 -169q93 -59 93 -155q0 -87 -70.5 -151.5t-195.5 -64.5q-124 0 -195.5 64.5t-71.5 151.5zM238 519q0 -34 28 -54t92 -46q26 41 26 86q0 72 -77 72q-69 0 -69 -58z
M214 224q0 -38 25.5 -62t68.5 -24q37 0 61 19.5t24 52.5q0 29 -25.5 47t-93.5 47l-19 8q-41 -41 -41 -88z" />
    <glyph glyph-name="nine" unicode="9" horiz-adv-x="618" 
d="M31 483q0 97 72 170.5t185 73.5q121 0 205 -87t84 -247q0 -106 -37.5 -196t-119 -149.5t-193.5 -59.5q-58 0 -112 16l-43 15l46 145q9 -4 31 -10q42 -11 71 -11q118 0 158 126h-2q-33 -25 -109 -25q-104 0 -170 73t-66 166zM211 483q0 -41 28 -69.5t88 -28.5q70 0 70 66
q0 49 -34.5 85t-75.5 36q-32 0 -54 -26t-22 -63z" />
    <glyph glyph-name="colon" unicode=":" horiz-adv-x="304" 
d="M70 351v164h164v-164h-164zM70 0v164h164v-164h-164z" />
    <glyph glyph-name="semicolon" unicode=";" horiz-adv-x="307" 
d="M84 351v164h158v-164h-158zM14 -111l65 277h166l-103 -277h-128z" />
    <glyph glyph-name="less" unicode="&#x3c;" horiz-adv-x="630" 
d="M53 234v107l504 223v-145l-330 -131v-2l330 -130v-145z" />
    <glyph glyph-name="equal" unicode="=" horiz-adv-x="630" 
d="M62 337v130h506v-130h-506zM62 107v130h506v-130h-506z" />
    <glyph glyph-name="greater" unicode="&#x3e;" horiz-adv-x="630" 
d="M73 11v145l330 130v2l-330 131v145l504 -223v-107z" />
    <glyph glyph-name="question" unicode="?" horiz-adv-x="506" 
d="M131 221v50q0 37 16 68.5t39.5 52l46.5 39t39 39.5t16 44q0 26 -20.5 42.5t-50.5 16.5q-29 0 -65 -21q-18 -12 -30 -22l-96 117q22 24 54 42q70 41 155 41q92 0 162.5 -52.5t70.5 -143.5q0 -45 -17.5 -82.5t-43 -61t-50.5 -44t-42.5 -43t-17.5 -46.5v-36h-166zM135 0v150
h158v-150h-158z" />
    <glyph glyph-name="at" unicode="@" horiz-adv-x="834" 
d="M29 240q0 161 113 268t294 107q142 0 213 -67.5t71 -172.5v-198h74v-119h-283q-106 0 -166.5 54t-60.5 128q0 72 59.5 124t167.5 52h49q0 30 -41.5 47t-90.5 17q-99 0 -164.5 -73.5t-65.5 -171.5q0 -97 67.5 -166t184.5 -69v-130q-192 0 -306.5 105t-114.5 265zM455 241
q0 -26 17.5 -45t48.5 -19h39v134h-37q-34 0 -51 -19t-17 -51z" />
    <glyph glyph-name="A" unicode="A" horiz-adv-x="732" 
d="M10 0v130h59l195 585h204l195 -585h59v-130h-299v130h62l-27 95h-184l-27 -95h62v-130h-299zM312 361h107l-37 132q-4 14 -7.5 33t-3.5 21l-3 21h-4q0 -7 -2 -21q-1 -4 -2.5 -13.5t-4 -20t-5.5 -20.5z" />
    <glyph glyph-name="B" unicode="B" horiz-adv-x="707" 
d="M49 0v130h80v455h-80v130h334q85 0 131 -15q58 -21 91.5 -65t33.5 -106q0 -49 -22 -89.5t-63 -63.5v-2q59 -18 86.5 -62.5t27.5 -101.5q0 -76 -46 -129.5t-113 -70.5q-43 -10 -107 -10h-353zM308 438h88q32 0 47.5 19t15.5 50q0 46 -33 62q-16 6 -44 6h-74v-137zM308 140
h103q19 0 33 6q20 9 31.5 30.5t11.5 47.5q0 34 -19 54t-56 20h-104v-158z" />
    <glyph glyph-name="C" unicode="C" horiz-adv-x="748" 
d="M34 359q0 158 108 263t266 105q39 0 83 -6.5t93 -21t81 -44.5t32 -71v-113h-160v55q0 27 -37.5 39t-83.5 12q-89 0 -143 -55.5t-54 -152.5q0 -108 57.5 -169.5t149.5 -61.5q39 0 79 11.5t40 39.5v55h160v-115q0 -38 -31 -67.5t-78.5 -44.5t-94 -22t-88.5 -7
q-163 0 -271 106.5t-108 264.5z" />
    <glyph glyph-name="D" unicode="D" horiz-adv-x="788" 
d="M49 0v130h80v455h-80v130h315q95 0 147 -15q109 -31 174.5 -120.5t65.5 -221.5q0 -122 -57.5 -210t-157.5 -124q-66 -24 -171 -24h-316zM308 140h52q66 0 109 20q46 23 71.5 74.5t25.5 122.5q0 157 -110 203q-36 15 -96 15h-52v-435z" />
    <glyph glyph-name="E" unicode="E" horiz-adv-x="659" 
d="M49 0v130h80v455h-80v130h551v-211h-150v71h-142v-145h209v-140h-209v-150h154v71h150v-211h-563z" />
    <glyph glyph-name="F" unicode="F" horiz-adv-x="607" 
d="M49 0v130h80v455h-80v130h533v-211h-150v61h-124v-155h210v-140h-210v-140h90v-130h-349z" />
    <glyph glyph-name="G" unicode="G" horiz-adv-x="768" 
d="M34 362q0 161 107.5 263t275.5 102q68 0 132.5 -15.5t110 -48.5t45.5 -76v-116h-160v52q0 26 -33.5 40t-84.5 14q-99 0 -153.5 -53.5t-54.5 -153.5q0 -103 57.5 -167.5t160.5 -64.5q46 0 85 12.5t39 39.5v49h-115v130h275v-238q0 -38 -32.5 -67t-82 -45t-99 -23.5
t-92.5 -7.5q-165 0 -273 106t-108 268z" />
    <glyph glyph-name="H" unicode="H" horiz-adv-x="872" 
d="M49 0v130h80v455h-80v130h339v-130h-80v-160h256v160h-80v130h339v-130h-80v-455h80v-130h-339v130h80v155h-256v-155h80v-130h-339z" />
    <glyph glyph-name="I" unicode="I" horiz-adv-x="437" 
d="M49 0v130h80v455h-80v130h339v-130h-80v-455h80v-130h-339z" />
    <glyph glyph-name="J" unicode="J" horiz-adv-x="582" 
d="M14 210v62h170v-48q0 -38 12 -59.5t49 -21.5q56 0 56 81v361h-90v130h339v-130h-70v-365q0 -111 -70 -171.5t-166 -60.5q-95 0 -162.5 56.5t-67.5 165.5z" />
    <glyph glyph-name="K" unicode="K" horiz-adv-x="751" 
d="M49 0v130h80v455h-80v130h311v-130h-52v-151h60l105 151h-54v130h294v-130h-60l-152 -205v-2q9 -6 18 -13q24 -24 37 -51l81 -161q12 -23 44 -23h31v-130h-122q-43 0 -64.5 12t-36.5 41l-107 218q-11 23 -50 23h-24v-164h75v-130h-334z" />
    <glyph glyph-name="L" unicode="L" horiz-adv-x="634" 
d="M50 0v130h80v445h-80v140h339v-140h-80v-435h154v105h150v-245h-563z" />
    <glyph glyph-name="M" unicode="M" horiz-adv-x="986" 
d="M35 0v130h78l38 455h-80v130h281l120 -354q11 -32 16 -53q2 -7 4 -21h2q2 14 4 21q0 2 16 53l120 354h281v-130h-80l38 -455h78v-130h-324v130h71l-17 257q-1 17 1 51l3 29h-4q-1 -9 -5 -27q-7 -33 -14 -49l-94 -261h-150l-94 261q-10 32 -14 49q-4 18 -5 27h-4l3 -29
q2 -34 1 -51l-17 -257h71v-130h-324z" />
    <glyph glyph-name="N" unicode="N" horiz-adv-x="859" 
d="M49 0v130h80v455h-80v130h261l224 -379q12 -20 21 -47l9 -26h4l-3 28q-3 16 -3 52v242h-84v130h343v-130h-80v-585h-180l-225 377q-14 27 -21 47l-9 26h-4l3 -28q3 -16 3 -52v-240h84v-130h-343z" />
    <glyph glyph-name="O" unicode="O" 
d="M34 362q0 155 106.5 260t269.5 105t269.5 -105t106.5 -260q0 -159 -106.5 -266.5t-269.5 -107.5t-269.5 107.5t-106.5 266.5zM219 362q0 -93 56 -156t135 -63t135 63t56 156q0 89 -56 149.5t-135 60.5t-135 -60.5t-56 -149.5z" />
    <glyph glyph-name="P" unicode="P" horiz-adv-x="681" 
d="M49 0v130h80v455h-80v130h356q82 0 120 -16q64 -24 101 -84.5t37 -140.5q0 -79 -39 -142.5t-102 -85.5q-45 -15 -112 -15h-102v-101h80v-130h-339zM308 371h76q37 0 63 15q38 24 38 88q0 61 -35 85q-25 16 -63 16h-79v-204z" />
    <glyph glyph-name="Q" unicode="Q" horiz-adv-x="827" 
d="M34 360q0 157 106.5 262t272.5 105q162 0 269 -99.5t107 -255.5q0 -122 -76 -221l77 -62l-99 -111l-75 71q-85 -61 -204 -61q-164 0 -271 107t-107 265zM219 360q0 -92 56.5 -154.5t137.5 -62.5q50 0 79 19l-94 87l96 109l95 -91q20 48 20 97q0 87 -57 147.5t-139 60.5
t-138 -60t-56 -152z" />
    <glyph glyph-name="R" unicode="R" horiz-adv-x="740" 
d="M49 0v130h80v455h-80v130h323q95 0 143 -14q67 -21 105 -72.5t38 -128.5q0 -133 -116 -196v-2q14 -8 16 -10q19 -15 28 -33l55 -106q12 -23 46 -23h25v-130h-118q-42 0 -64 11.5t-37 41.5l-87 167q-9 18 -22 24.5t-40 6.5h-36v-121h75v-130h-334zM308 391h81q91 0 91 93
q0 60 -39 79q-24 12 -69 12h-64v-184z" />
    <glyph glyph-name="S" unicode="S" horiz-adv-x="618" 
d="M40 254h160v-53q0 -27 29.5 -42.5t73.5 -15.5t70 15t26 43q0 13 -7 24.5t-15.5 19.5t-27 17t-30.5 13.5l-37 13.5t-37 14q-43 17 -71.5 32t-58 40t-44 60.5t-14.5 82.5q0 57 22 99t59.5 65.5t81 34t94.5 10.5q63 0 117 -15t90 -46.5t36 -75.5v-106h-160v45q0 20 -24 31.5
t-59 11.5q-77 0 -77 -49q0 -41 62 -69q15 -7 62 -24q50 -17 81.5 -31.5t66.5 -39.5t52.5 -62t17.5 -85q0 -59 -23.5 -103.5t-64 -70t-88 -38t-100.5 -12.5q-107 0 -185 46t-78 128v92z" />
    <glyph glyph-name="T" unicode="T" horiz-adv-x="695" 
d="M178 0v130h80v445h-85v-101h-150v241h649v-241h-150v101h-85v-445h80v-130h-339z" />
    <glyph glyph-name="U" unicode="U" 
d="M107 273v312h-80v130h339v-130h-80v-312q0 -48 18 -79q30 -51 107 -51q71 0 104 50q19 31 19 80v312h-80v130h339v-130h-80v-312q0 -111 -59 -186q-82 -99 -244 -99q-77 0 -140.5 25.5t-102.5 70.5q-60 67 -60 189z" />
    <glyph glyph-name="V" unicode="V" horiz-adv-x="732" 
d="M274 0l-204 585h-60v130h316v-130h-70l94 -314q1 -3 11 -52l3 -26h4l3 26q9 46 11 52l94 314h-70v130h316v-130h-60l-204 -585h-184z" />
    <glyph glyph-name="W" unicode="W" horiz-adv-x="1032" 
d="M12 585v130h317v-130h-83l66 -317q5 -21 7 -51l2 -24h4l3 24q1 5 4 23t5 28l110 447h138l110 -447q3 -10 5.5 -28.5t3.5 -22.5l3 -24h4l2 24q1 18 7 51l66 317h-83v130h317v-130h-60l-142 -585h-197l-91 366q-2 10 -5 28.5l-4 24.5l-3 26h-4l-3 -26q-1 -5 -3.5 -23.5
t-5.5 -29.5l-91 -366h-197l-142 585h-60z" />
    <glyph glyph-name="X" unicode="X" horiz-adv-x="725" 
d="M34 0v130h57l176 235l-168 220h-60v130h304v-130h-62l68 -90q13 -16 17 -23q4 -4 6 -10h2l2 4q2 3 7.5 12t12.5 17l66 90h-60v130h288v-130h-57l-175 -232l172 -223h58v-130h-304v130h64l-72 94q-12 16 -17 24q-4 4 -6 10h-2q-1 0 -3.5 -4l-8 -13l-10.5 -17l-67 -94h62
v-130h-290z" />
    <glyph glyph-name="Y" unicode="Y" horiz-adv-x="671" 
d="M166 0v130h80v163l-175 292h-61v130h296v-130h-60l73 -132q4 -6 12 -25q1 -2 4 -10h2q3 8 4 10l12 25l73 132h-60v130h295v-130h-61l-175 -292v-163h80v-130h-339z" />
    <glyph glyph-name="Z" unicode="Z" horiz-adv-x="660" 
d="M49 0v110l305 432q7 11 21 25l11 9v2q-9 0 -14 -1q-16 -2 -29 -2h-140v-101h-150v241h549v-108l-306 -434q-5 -8 -21 -24l-11 -10v-2l14 2q8 1 29 1h157v105h150v-245h-565z" />
    <glyph glyph-name="bracketleft" unicode="[" horiz-adv-x="360" 
d="M82 -95v845h246v-120h-102v-605h102v-120h-246z" />
    <glyph glyph-name="backslash" unicode="\" horiz-adv-x="464" 
d="M288 -42l-256 792h144l256 -792h-144z" />
    <glyph glyph-name="bracketright" unicode="]" horiz-adv-x="360" 
d="M32 25h102v605h-102v120h246v-845h-246v120z" />
    <glyph glyph-name="asciicircum" unicode="^" horiz-adv-x="630" 
d="M58 241l203 474h107l203 -474h-145l-112 300l-111 -300h-145z" />
    <glyph glyph-name="underscore" unicode="_" horiz-adv-x="586" 
d="M-5 0h596v-130h-596v130z" />
    <glyph glyph-name="grave" unicode="`" horiz-adv-x="484" 
d="M244 761l-151 150h177l116 -150h-142z" />
    <glyph glyph-name="a" unicode="a" horiz-adv-x="583" 
d="M23 147q0 53 30.5 90t78.5 53.5t88 23t78 6.5h31v15q0 57 -73 57q-43 0 -97 -24q-19 -8 -45 -25l-60 117q25 18 60 34q76 33 158 33q113 0 171.5 -54t58.5 -156v-170q0 -22 22 -22h38v-125h-149q-35 0 -52 16t-17 38v3q0 9 1 11t1 5h-2q-13 -23 -35 -42q-49 -43 -117 -43
q-71 0 -120 42t-49 117zM197 159q0 -20 12.5 -33t33.5 -13q32 0 60 32t28 66v12h-16q-48 0 -83 -16t-35 -48z" />
    <glyph glyph-name="b" unicode="b" horiz-adv-x="642" 
d="M71 0v590h-70v125h243v-199q0 -24 -1 -32q-1 -5 -1 -12h2q13 15 35 28q41 27 104 27q105 0 168.5 -74.5t63.5 -195.5t-68 -195t-172 -74q-63 0 -109 32q-15 11 -32 31h-2q1 -3 1 -11v-23v-17h-162zM239 254q0 -50 26.5 -86.5t74.5 -36.5q43 0 72 32.5t29 90.5
q0 57 -28 92t-73 35q-42 0 -71.5 -32.5t-29.5 -94.5z" />
    <glyph glyph-name="c" unicode="c" horiz-adv-x="567" 
d="M25 256q0 114 79.5 192.5t202.5 78.5q56 0 105 -12.5t85.5 -43t36.5 -75.5v-82h-147v31q0 18 -21 28t-52 10q-58 0 -86.5 -32.5t-28.5 -88.5q0 -65 36.5 -98t93.5 -33q83 0 155 57l58 -121q-87 -79 -224 -79q-120 0 -206.5 73.5t-86.5 194.5z" />
    <glyph glyph-name="d" unicode="d" horiz-adv-x="663" 
d="M27 257q0 122 65.5 196t172.5 74q63 0 103 -25q18 -11 29 -26h2v9q0 3 -0.5 11t-0.5 13v81h-70v125h243v-568q0 -22 22 -22h38v-125h-149q-35 0 -52 16t-17 38v3q0 9 1 11t1 5h-2q-12 -25 -34 -42q-51 -43 -125 -43q-102 0 -164.5 74.5t-62.5 194.5zM201 257
q0 -57 27.5 -91.5t72.5 -34.5q42 0 72 31.5t30 90.5q0 55 -25.5 91.5t-73.5 36.5q-44 0 -73.5 -33t-29.5 -91z" />
    <glyph glyph-name="e" unicode="e" horiz-adv-x="562" 
d="M25 258q0 116 73 192.5t195 76.5q113 0 176.5 -69.5t63.5 -179.5q0 -10 -2 -32l-2 -20h-327q9 -48 42 -71.5t78 -23.5t101 25q25 11 44 24l63 -120q-25 -19 -59 -36q-74 -36 -163 -36q-131 0 -207 80t-76 190zM206 321h148q0 32 -18 54t-47 22q-66 0 -83 -76z" />
    <glyph glyph-name="f" unicode="f" horiz-adv-x="413" 
d="M42 0v125h65v265h-70v125h70v21q0 48 16.5 84.5t40.5 56t57 31.5t59.5 15.5t54.5 3.5q22 0 44 -2l17 -2v-136l-10 2q-7 1 -32 1q-74 0 -74 -50v-25h106v-125h-106v-265h76v-125h-314z" />
    <glyph glyph-name="g" unicode="g" horiz-adv-x="654" 
d="M77 -164l49 126q15 -8 42 -17q54 -16 103 -16q52 0 85.5 24t33.5 80v17q0 1 0.5 5.5t0.5 6.5v7h-2q-47 -54 -129 -54q-110 0 -171 76t-61 183q0 106 60 179.5t171 73.5q45 0 87.5 -17t62.5 -50h2v5q0 1 -0.5 4t-0.5 4q0 17 15.5 29.5t42.5 12.5h156v-125h-39
q-22 0 -22 -19v-324q0 -68 -25 -119t-68 -80.5t-92.5 -43.5t-105.5 -14q-108 0 -195 46zM301 159q40 0 66.5 25.5t26.5 87.5q0 111 -100 111q-44 0 -68 -28t-24 -75q0 -52 25.5 -86.5t73.5 -34.5z" />
    <glyph glyph-name="h" unicode="h" horiz-adv-x="694" 
d="M28 0v125h65v465h-70v125h243v-226q0 -24 -1 -32q-1 -5 -1 -12h2q22 38 64 60t93 22q85 0 135 -45.5t50 -147.5v-209h65v-125h-238v302q0 68 -57 68q-54 0 -83 -41t-29 -101v-103h65v-125h-303z" />
    <glyph glyph-name="i" unicode="i" horiz-adv-x="373" 
d="M109 580v135h169v-135h-169zM42 0v125h65v265h-70v125h243v-390h65v-125h-303z" />
    <glyph glyph-name="j" unicode="j" horiz-adv-x="340" 
d="M98 580v135h169v-135h-169zM-19 -205v135q1 -1 6 -1h16q22 0 40.5 4.5t35.5 21.5t17 45v390h-71v125h244v-523q0 -49 -18 -87t-44 -58.5t-61 -33.5t-63 -17t-56 -4q-26 0 -34 1z" />
    <glyph glyph-name="k" unicode="k" horiz-adv-x="634" 
d="M28 0v125h65v465h-70v125h243v-391h59l54 66h-49v125h268v-125h-63l-89 -108v-2l13 -10q19 -16 28 -36l51 -92q9 -17 38 -17h25v-125h-126q-29 0 -44.5 7.5t-29.5 31.5l-79 146q-9 17 -41 17h-15v-77h37v-125h-275z" />
    <glyph glyph-name="l" unicode="l" horiz-adv-x="335" 
d="M63 190v400h-70v125h243v-515q0 -38 9.5 -52t38.5 -14q4 0 8.5 0.5t6.5 0.5h6v-137l-15 -2q-11 -1 -37 -1q-40 0 -69 6.5t-59 25.5t-46 60t-16 103z" />
    <glyph glyph-name="m" unicode="m" horiz-adv-x="991" 
d="M42 0v125h65v244q0 21 -22 21h-48v125h163q35 0 53.5 -15.5t18.5 -42.5v-17v-8q0 -3 -1 -4h2q67 99 163 99q100 0 134 -97h2q22 43 67 70t103 27q72 0 117 -46.5t45 -146.5v-209h65v-125h-238v305q0 32 -8.5 48.5t-31.5 16.5q-99 0 -99 -157v-88h65v-125h-238v305
q0 32 -8.5 48.5t-31.5 16.5q-99 0 -99 -167v-78h65v-125h-303z" />
    <glyph glyph-name="n" unicode="n" horiz-adv-x="708" 
d="M42 0v125h65v243q0 22 -22 22h-48v125h164q35 0 53 -15.5t18 -42.5v-17v-8q0 -3 -1 -4h2q13 27 39 50q55 49 136 49q79 0 126.5 -45.5t47.5 -147.5v-209h65v-125h-238v302q0 68 -58 68q-54 0 -82.5 -46t-28.5 -106v-93h65v-125h-303z" />
    <glyph glyph-name="o" unicode="o" horiz-adv-x="634" 
d="M25 256q0 120 84 195.5t207 75.5q125 0 209 -75.5t84 -195.5q0 -119 -84 -193.5t-208 -74.5t-208 74.5t-84 193.5zM200 256q0 -56 34 -90t83 -34t83 34t34 90t-34 91.5t-83 35.5t-83 -35.5t-34 -91.5z" />
    <glyph glyph-name="p" unicode="p" horiz-adv-x="667" 
d="M31 -75h65v443q0 22 -22 22h-48v125h159q35 0 50.5 -13t15.5 -30v-3v-9q0 -3 -1 -4h2q16 20 37 36q46 35 119 35q105 0 168.5 -74.5t63.5 -195.5t-68 -195t-172 -74q-49 0 -97 25q-18 10 -34 24h-2q0 -7 1 -12q1 -8 1 -32v-68h65v-125h-303v125zM264 254
q0 -50 26.5 -86.5t74.5 -36.5q43 0 72 32.5t29 90.5q0 57 -28 92t-73 35q-42 0 -71.5 -32.5t-29.5 -94.5z" />
    <glyph glyph-name="q" unicode="q" horiz-adv-x="642" 
d="M27 258q0 121 65.5 195t169.5 74q102 0 147 -60h2q0 5 -1 8q-1 5 -1 20v20h162v-590h65v-125h-303v125h65v77q0 24 1 32q1 5 1 12h-2q-10 -13 -34 -29q-44 -29 -105 -29q-105 0 -168.5 74.5t-63.5 195.5zM201 258q0 -57 28 -92t73 -35q42 0 71.5 32.5t29.5 94.5
q0 50 -26.5 86.5t-74.5 36.5q-43 0 -72 -32.5t-29 -90.5z" />
    <glyph glyph-name="r" unicode="r" horiz-adv-x="476" 
d="M39 0v125h70v243q0 22 -22 22h-48v125h163q73 0 73 -66v-27q0 -16 -1 -19t-1 -7h2q17 54 62.5 91t101.5 37q11 0 14 -1t6 -1v-170l-10 2q-7 1 -25 1q-70 0 -106 -41t-36 -114v-75h70v-125h-313z" />
    <glyph glyph-name="s" unicode="s" horiz-adv-x="509" 
d="M27 113v69h145v-26q0 -37 75 -37q63 0 63 30q0 5 -1 9.5t-4 8.5t-6 6.5t-9 6t-11 5.5t-14 5t-16 5l-19 5.5t-21 6.5q-34 11 -58.5 22t-51 30t-40.5 47.5t-14 65.5q0 57 36 93.5t82.5 49t102.5 12.5q32 0 64.5 -6t63.5 -18.5t50 -35t19 -52.5v-70h-145v23q0 28 -52 28
q-49 0 -49 -26q0 -21 22 -32.5t68 -23.5q29 -8 48.5 -14.5t45.5 -20t42 -29t27.5 -40.5t11.5 -56q0 -82 -67.5 -124t-167.5 -42q-49 0 -98 13t-85.5 42.5t-36.5 69.5z" />
    <glyph glyph-name="t" unicode="t" horiz-adv-x="408" 
d="M89 190v200h-70v125h75v139h168v-139h108v-125h-108v-182q0 -40 28.5 -55.5t63.5 -15.5q4 0 9.5 0.5t7.5 0.5h6v-140l-13 -2q-8 -1 -34 -1q-30 0 -57.5 3.5t-62.5 15.5t-60.5 32t-43 57.5t-17.5 86.5z" />
    <glyph glyph-name="u" unicode="u" horiz-adv-x="694" 
d="M91 181v209h-70v125h243v-307q0 -68 57 -68q49 0 78 47.5t29 109.5v93h-70v125h243v-368q0 -22 22 -22h43v-125h-159q-35 0 -53 15.5t-18 42.5v14q0 2 0.5 5.5t0.5 4.5v5h-2q-13 -25 -38 -49q-54 -50 -137 -50q-75 0 -122 46t-47 147z" />
    <glyph glyph-name="v" unicode="v" horiz-adv-x="624" 
d="M9 390v125h274v-125h-46l59 -186q1 -2 11 -46l3 -22h4l3 22l11 46l59 186h-46v125h274v-125h-58l-143 -390h-204l-143 390h-58z" />
    <glyph glyph-name="w" unicode="w" horiz-adv-x="872" 
d="M10 390v125h274v-125h-51l38 -179q4 -21 6 -45l2 -23h4q0 16 1 23q1 16 7 45l71 304h148l71 -304q5 -19 7 -45q1 -7 1 -23h4l2 23q2 24 6 45l38 179h-51v125h274v-125h-59l-98 -390h-200l-58 238q-5 20 -7 46l-2 22h-4q0 -15 -1 -22q-1 -18 -8 -46l-58 -238h-200l-98 390
h-59z" />
    <glyph glyph-name="x" unicode="x" horiz-adv-x="582" 
d="M33 0v125h67l100 135l-95 130h-72v125h181l61 -100q6 -7 16 -28q5 -8 6 -13h2l7 13q12 24 15 28l63 100h164v-125h-61l-94 -126l105 -139h50v-125h-159l-72 110q-5 7 -15 28l-7 13h-2q-1 -5 -6 -13q-7 -13 -16 -28l-68 -110h-170z" />
    <glyph glyph-name="y" unicode="y" horiz-adv-x="627" 
d="M12 -170l53 123q11 -8 22 -12q26 -12 63 -12q65 0 85 42l2 5l-170 414h-58v125h283v-125h-50l63 -191q3 -9 6.5 -26.5t3.5 -18.5q2 -14 2 -22h4q2 16 4 22q7 29 12 45l61 191h-47v125h267v-125h-53l-166 -435q-64 -165 -240 -165q-58 0 -107 20q-23 9 -40 20z" />
    <glyph glyph-name="z" unicode="z" horiz-adv-x="552" 
d="M41 106l226 255q13 14 22 21l10 8v2q-10 0 -15 -1q-9 -1 -31 -1h-67v-62h-145v187h460v-107l-222 -254q-13 -14 -22 -21l-10 -8v-2q11 0 16 1q9 1 30 1h78v62h145v-187h-475v106z" />
    <glyph glyph-name="braceleft" unicode="{" horiz-adv-x="385" 
d="M112 62v98q0 60 -42 84q-18 11 -43 12v150q25 1 43 12q42 24 42 87v88q0 51 20.5 85.5t54.5 50t63 21t61 5.5q23 0 31 -1q5 -1 12 -1v-124q-4 0 -7 1t-18 1q-28 0 -50.5 -12t-22.5 -42v-117q0 -64 -42 -102q-20 -18 -42 -25v-2q24 -7 42 -24q42 -38 42 -102v-127
q0 -30 22.5 -42t50.5 -12q15 0 18 1t7 1v-124q-7 0 -12 -1q-8 -1 -31 -1q-32 0 -61 5.5t-63 21t-54.5 50t-20.5 85.5z" />
    <glyph glyph-name="bar" unicode="|" horiz-adv-x="304" 
d="M80 -165v967h144v-967h-144z" />
    <glyph glyph-name="braceright" unicode="}" horiz-adv-x="385" 
d="M31 -98v124q4 0 7 -1t18 -1q28 0 50.5 12t22.5 42v127q0 64 42 102q18 17 42 24v2q-22 7 -42 25q-42 38 -42 102v117q0 30 -22.5 42t-50.5 12q-15 0 -18 -1t-7 -1v124q7 0 12 1q8 1 31 1q25 0 48 -3t52 -13t49.5 -26.5t35 -47.5t14.5 -72v-88q0 -62 43 -87q18 -10 42 -12
v-150q-24 -2 -42 -12q-43 -25 -43 -84v-98q0 -41 -14.5 -72t-35 -47.5t-49.5 -26.5t-52 -13t-48 -3q-23 0 -31 1q-5 1 -12 1z" />
    <glyph glyph-name="asciitilde" unicode="~" horiz-adv-x="629" 
d="M183 191h-134q0 203 174 203q31 0 58.5 -12.5t43 -27.5t34.5 -27.5t36 -12.5q25 0 40 19.5t15 56.5h133q0 -203 -173 -203q-32 0 -59 12.5t-42.5 27.5t-34.5 27.5t-37 12.5q-24 0 -39 -19.5t-15 -56.5z" />
    <glyph glyph-name="uni00A0" unicode="&#xa0;" horiz-adv-x="232" 
 />
    <glyph glyph-name="exclamdown" unicode="&#xa1;" horiz-adv-x="292" 
d="M67 364v150h158v-150h-158zM56 -200l16 493h148l16 -493h-180z" />
    <glyph glyph-name="cent" unicode="&#xa2;" horiz-adv-x="580" 
d="M243 -12v87q-91 21 -152 99.5t-61 183.5q0 104 61.5 183t151.5 100v85h110v-85q69 -15 120 -60.5t73 -111.5l-154 -60q-11 32 -34 53.5t-56 21.5q-38 0 -68 -35.5t-30 -90.5q0 -60 28 -93t70 -33q32 0 56 21.5t34 53.5l154 -60q-21 -59 -71.5 -110t-121.5 -62v-87h-110z
" />
    <glyph glyph-name="sterling" unicode="&#xa3;" horiz-adv-x="635" 
d="M39 0v135h80v164h-73v112h73v100q0 96 69 156t175 60q74 0 142 -39q30 -18 54 -39l-91 -116q-16 12 -32 20q-33 19 -68 19q-30 0 -50 -18t-20 -48v-95h155v-112h-155v-159h153v105h150v-245h-562z" />
    <glyph glyph-name="yen" unicode="&#xa5;" horiz-adv-x="660" 
d="M77 167v96h163v28l-24 49h-139v96h92l-137 279h201l53 -143q16 -43 31 -91q7 -23 12 -42h2l13 42q23 71 30 91l53 143h201l-138 -279h93v-96h-140l-24 -49v-28h164v-96h-164v-167h-179v167h-163z" />
    <glyph glyph-name="section" unicode="&#xa7;" horiz-adv-x="524" 
d="M141 179l-76 273q-10 36 -10 75q0 90 59.5 145t171.5 55q83 0 153 -38q31 -17 54 -39l-74 -108q-15 12 -37 24q-44 23 -94 23q-46 0 -72 -18t-26 -65q0 -31 10 -67l72 -260h-131zM32 15l69 115q17 -15 39 -27q47 -28 98 -28q98 0 98 94q0 34 -13 77l-68 240h131l74 -273
q10 -36 10 -75q0 -90 -59.5 -145t-171.5 -55q-83 0 -153 38q-32 16 -54 39z" />
    <glyph glyph-name="dieresis" unicode="&#xa8;" horiz-adv-x="485" 
d="M299 771v140h131v-140h-131zM55 771v140h131v-140h-131z" />
    <glyph glyph-name="copyright" unicode="&#xa9;" horiz-adv-x="788" 
d="M33 358q0 153 105.5 260.5t253.5 107.5q151 0 257 -107.5t106 -260.5t-106 -261.5t-257 -108.5q-148 0 -253.5 108.5t-105.5 261.5zM146 358q0 -111 71 -189t175 -78q106 0 178.5 77.5t72.5 189.5q0 111 -72.5 188t-178.5 77q-104 0 -175 -77t-71 -188zM222 355
q0 78 51 132.5t121 54.5q83 0 130 -57q21 -26 32 -58l-100 -39q-5 15 -12 25q-18 24 -46 24q-24 0 -41.5 -23t-17.5 -59q0 -40 16 -61t43 -21t46 25q8 10 12 24l100 -39q-10 -30 -32 -57q-48 -58 -130 -58q-70 0 -121 54.5t-51 132.5z" />
    <glyph glyph-name="ordfeminine" unicode="&#xaa;" horiz-adv-x="417" 
d="M158 383q-41 0 -73 28.5t-32 73.5q0 109 181 109h5v8q0 36 -47 36q-26 0 -54 -13q-4 -2 -26 -14l-38 75q19 12 36 20q40 19 102 19q71 0 108 -36t37 -99v-200h-108v39h-2q-8 -12 -20 -23q-29 -23 -69 -23zM193 472q18 0 31.5 14t13.5 31v5h-10q-58 0 -58 -30
q0 -20 23 -20zM56 268v85h305v-85h-305z" />
    <glyph glyph-name="guillemotleft" unicode="&#xab;" horiz-adv-x="652" 
d="M289 282l164 206h158l-164 -206l164 -205h-158zM193 77l-164 205l164 206h158l-164 -206l164 -205h-158z" />
    <glyph glyph-name="logicalnot" unicode="&#xac;" horiz-adv-x="593" 
d="M32 337v130h506v-335h-135v205h-371z" />
    <glyph glyph-name="uni00AD" unicode="&#xad;" horiz-adv-x="452" 
d="M69 212v150h314v-150h-314z" />
    <glyph glyph-name="registered" unicode="&#xae;" horiz-adv-x="788" 
d="M33 358q0 153 105.5 260.5t253.5 107.5q151 0 257 -107.5t106 -260.5t-106 -261.5t-257 -108.5q-148 0 -253.5 108.5t-105.5 261.5zM146 358q0 -111 71 -189t175 -78q106 0 178.5 77.5t72.5 189.5q0 111 -72.5 188t-178.5 77q-104 0 -175 -77t-71 -188zM262 187v347h163
q57 0 89.5 -31t32.5 -84q0 -37 -19.5 -59.5t-38.5 -29.5v-2l3 -4q5 -5 10 -16l63 -121h-118l-49 118h-28v-118h-108zM370 377h27q40 0 40 42q0 41 -38 41h-29v-83z" />
    <glyph glyph-name="macron" unicode="&#xaf;" horiz-adv-x="485" 
d="M105 782v112h275v-112h-275z" />
    <glyph glyph-name="degree" unicode="&#xb0;" horiz-adv-x="420" 
d="M210 385q-76 0 -128.5 50t-52.5 122q0 70 53 121.5t128 51.5t128 -51.5t53 -121.5q0 -72 -53 -122t-128 -50zM210 505q23 0 39 15t16 38q0 21 -16 36.5t-39 15.5t-39 -15.5t-16 -36.5q0 -23 16 -38t39 -15z" />
    <glyph glyph-name="plusminus" unicode="&#xb1;" horiz-adv-x="630" 
d="M42 222v130h205v223h136v-223h205v-130h-205v-222h-136v222h-205zM52 -70h526v-130h-526v130z" />
    <glyph glyph-name="twosuperior" unicode="&#xb2;" horiz-adv-x="400" 
d="M27 474q0 47 21 84t51 59t60 39t51 34t21 35q0 16 -13 25t-30 9q-26 0 -52 -22q-14 -14 -21 -23l-83 71q17 27 41 45q54 44 128 44q67 0 112 -36t45 -99q0 -40 -19.5 -71t-48 -50t-57.5 -34t-51 -30.5t-25 -32.5h110v43h97v-141h-331l-3 19q-3 16 -3 32z" />
    <glyph glyph-name="threesuperior" unicode="&#xb3;" horiz-adv-x="393" 
d="M36 723v141h311v-79l-88 -101q102 -22 102 -116q0 -63 -46 -109t-127 -46q-66 0 -120 34q-24 15 -40 34l61 85l24 -21q32 -22 67 -22q26 0 40 11.5t14 30.5q0 36 -62 36h-31l-24 57l72 89q5 7 16 16l8 7v4l-11 -2q-14 -2 -23 -2h-46v-47h-97z" />
    <glyph glyph-name="acute" unicode="&#xb4;" horiz-adv-x="484" 
d="M98 761l116 150h177l-151 -150h-142z" />
    <glyph glyph-name="mu" unicode="&#xb5;" horiz-adv-x="630" 
d="M60 -200v715h173v-302q0 -68 55 -68q53 0 81 40.5t28 101.5v228h173v-515h-166v50q0 10 1 17q1 3 1 10h-3q-13 -25 -35 -44q-49 -45 -125 -45q-16 0 -30 2l-12 2h-2l4 -29q4 -23 4 -59v-104h-147z" />
    <glyph glyph-name="mu" unicode="&#x3bc;" horiz-adv-x="630" 
d="M60 -200v715h173v-302q0 -68 55 -68q53 0 81 40.5t28 101.5v228h173v-515h-166v50q0 10 1 17q1 3 1 10h-3q-13 -25 -35 -44q-49 -45 -125 -45q-16 0 -30 2l-12 2h-2l4 -29q4 -23 4 -59v-104h-147z" />
    <glyph glyph-name="paragraph" unicode="&#xb6;" horiz-adv-x="660" 
d="M256 -50v291q-96 0 -164.5 69.5t-68.5 168.5q0 100 68 168t165 68h357v-150h-237v-615h-120zM438 -50v565h120v-565h-120z" />
    <glyph glyph-name="periodcentered" unicode="&#xb7;" horiz-adv-x="296" 
d="M69 213v164h158v-164h-158z" />
    <glyph glyph-name="cedilla" unicode="&#xb8;" horiz-adv-x="484" 
d="M155 -104l44 133l72 -17v-7l-19 -55q41 -2 68 -24.5t27 -61.5q0 -48 -41.5 -73t-97.5 -25q-31 0 -48 4q-7 1 -21 5v75l14 -4q12 -4 35 -4q48 0 48 26q0 28 -56 28h-25z" />
    <glyph glyph-name="onesuperior" unicode="&#xb9;" horiz-adv-x="378" 
d="M37 423v98h99v153q0 12 2 22l2 8h-4l-4 -5q-1 -1 -4 -5.5t-6 -6.5l-31 -27l-72 79l135 125h108v-343h100v-98h-325z" />
    <glyph glyph-name="ordmasculine" unicode="&#xba;" horiz-adv-x="458" 
d="M229 385q-77 0 -129.5 47.5t-52.5 122.5t52.5 122.5t128.5 47.5q77 0 130.5 -47.5t53.5 -122.5t-53 -122.5t-130 -47.5zM229 488q27 0 45 18t18 49q0 30 -18 49t-45 19t-45 -19t-18 -49q0 -31 18 -49t45 -18zM60 268v85h338v-85h-338z" />
    <glyph glyph-name="guillemotright" unicode="&#xbb;" horiz-adv-x="652" 
d="M301 77l164 205l-164 206h158l164 -206l-164 -205h-158zM41 77l164 205l-164 206h158l164 -206l-164 -205h-158z" />
    <glyph glyph-name="onequarter" unicode="&#xbc;" horiz-adv-x="1018" 
d="M810 0v92h-197v79l171 270h150v-257h53v-92h-53v-92h-124zM722 184h88v105q0 5 0.5 10.5t1.5 12t1 10.5l2 17h-4q-2 -11 -5 -16q-9 -21 -15 -30l-69 -107v-2zM283 0l336 715h119l-336 -715h-119zM51 274v98h99v153q0 12 2 22l2 8h-4l-4 -5q-1 -1 -4 -5.5t-6 -6.5l-31 -27
l-72 79l135 125h108v-343h100v-98h-325z" />
    <glyph glyph-name="onehalf" unicode="&#xbd;" horiz-adv-x="1008" 
d="M282 0l336 715h119l-336 -715h-119zM46 274v98h99v153q0 12 2 22l2 8h-4l-4 -5q-1 -1 -4 -5.5t-6 -6.5l-31 -27l-72 79l135 125h108v-343h100v-98h-325zM635 51q0 47 21 84t51 59t60 39t51 34t21 35q0 16 -13 25t-30 9q-26 0 -52 -22q-14 -14 -21 -23l-83 71q17 27 41 45
q54 44 128 44q67 0 112 -36t45 -99q0 -40 -19.5 -71t-48 -50t-57.5 -34t-51 -30.5t-25 -32.5h110v43h97v-141h-331l-3 19q-3 16 -3 32z" />
    <glyph glyph-name="threequarters" unicode="&#xbe;" horiz-adv-x="1017" 
d="M44 574v141h311v-79l-88 -101q102 -22 102 -116q0 -63 -46 -109t-127 -46q-66 0 -120 34q-24 15 -40 34l61 85q11 -11 24 -21q32 -22 67 -22q26 0 40 11.5t14 30.5q0 36 -62 36h-31l-24 57l72 89q5 7 16 16l8 7v4l-11 -2q-14 -2 -23 -2h-46v-47h-97zM283 0l336 715h119
l-336 -715h-119zM810 0v92h-197v79l171 270h150v-257h53v-92h-53v-92h-124zM722 184h88v105q0 5 0.5 10.5t1.5 12t1 10.5l2 17h-4q-2 -11 -5 -16q-9 -21 -15 -30l-69 -107v-2z" />
    <glyph glyph-name="questiondown" unicode="&#xbf;" horiz-adv-x="506" 
d="M213 365v150h158v-150h-158zM38 -14q0 45 17.5 82.5t43 61t50.5 44t42.5 43t17.5 46.5v31h166v-45q0 -37 -16 -68.5t-39.5 -52l-46.5 -39t-39 -39.5t-16 -44q0 -26 20.5 -42.5t50.5 -16.5t66 21q15 10 29 22l96 -117q-22 -24 -54 -42q-70 -41 -155 -41q-92 0 -162.5 52.5
t-70.5 143.5z" />
    <glyph glyph-name="Agrave" unicode="&#xc0;" horiz-adv-x="730" 
d="M9 0v130h59l195 585h204l195 -585h59v-130h-299v130h62l-27 95h-184l-27 -95h62v-130h-299zM311 361h107l-37 132q-4 14 -7.5 33t-3.5 21l-3 21h-4q0 -7 -2 -21q-1 -4 -2.5 -13.5t-4 -20t-5.5 -20.5zM311 761l-151 150h177l116 -150h-142z" />
    <glyph glyph-name="Aacute" unicode="&#xc1;" horiz-adv-x="732" 
d="M10 0v130h59l195 585h204l195 -585h59v-130h-299v130h62l-27 95h-184l-27 -95h62v-130h-299zM312 361h107l-37 132q-4 14 -7.5 33t-3.5 21l-3 21h-4q0 -7 -2 -21q-1 -4 -2.5 -13.5t-4 -20t-5.5 -20.5zM274 761l116 150h177l-151 -150h-142z" />
    <glyph glyph-name="Acircumflex" unicode="&#xc2;" horiz-adv-x="732" 
d="M10 0v130h59l195 585h204l195 -585h59v-130h-299v130h62l-27 95h-184l-27 -95h62v-130h-299zM312 361h107l-37 132q-4 14 -7.5 33t-3.5 21l-3 21h-4q0 -7 -2 -21q-1 -4 -2.5 -13.5t-4 -20t-5.5 -20.5zM181 761l99 150h168l99 -150h-135l-47 82h-2l-47 -82h-135z" />
    <glyph glyph-name="Atilde" unicode="&#xc3;" horiz-adv-x="732" 
d="M10 0v130h59l195 585h204l195 -585h59v-130h-299v130h62l-27 95h-184l-27 -95h62v-130h-299zM312 361h107l-37 132q-4 14 -7.5 33t-3.5 21l-3 21h-4q0 -7 -2 -21q-1 -4 -2.5 -13.5t-4 -20t-5.5 -20.5zM275 761h-112q0 153 128 153q28 0 51.5 -15t41.5 -30t33 -15
q37 0 37 57h112q0 -153 -128 -153q-28 0 -51.5 15t-41.5 30t-33 15q-37 0 -37 -57z" />
    <glyph glyph-name="Adieresis" unicode="&#xc4;" horiz-adv-x="732" 
d="M10 0v130h59l195 585h204l195 -585h59v-130h-299v130h62l-27 95h-184l-27 -95h62v-130h-299zM312 361h107l-37 132q-4 14 -7.5 33t-3.5 21l-3 21h-4q0 -7 -2 -21q-1 -4 -2.5 -13.5t-4 -20t-5.5 -20.5zM421 771v140h131v-140h-131zM177 771v140h131v-140h-131z" />
    <glyph glyph-name="Aring" unicode="&#xc5;" horiz-adv-x="732" 
d="M10 0v130h59l195 585h204l195 -585h59v-130h-299v130h62l-27 95h-184l-27 -95h62v-130h-299zM312 361h107l-37 132q-4 14 -7.5 33t-3.5 21l-3 21h-4q0 -7 -2 -21q-1 -4 -2.5 -13.5t-4 -20t-5.5 -20.5zM364 747q-47 0 -82 23.5t-35 67.5q0 45 35 69t82 24t83 -24t36 -69
q0 -44 -35.5 -67.5t-83.5 -23.5zM364 801q17 0 27.5 10t10.5 27q0 18 -10.5 28.5t-27.5 10.5q-16 0 -26 -10.5t-10 -28.5q0 -37 36 -37z" />
    <glyph glyph-name="AE" unicode="&#xc6;" horiz-adv-x="996" 
d="M11 0v130h54l190 455h-70v130h752v-211h-140v71h-146v-145h204v-140h-204v-150h158v71h140v-211h-558v130h81v163h-167l-63 -163h68v-130h-299zM356 424h116v151h-57z" />
    <glyph glyph-name="Ccedilla" unicode="&#xc7;" horiz-adv-x="748" 
d="M322 -104l31 96q-141 20 -230 122.5t-89 244.5q0 158 108 263t266 105q39 0 83 -6.5t93 -21t81 -44.5t32 -71v-113h-160v55q0 27 -37.5 39t-83.5 12q-89 0 -143 -55.5t-54 -152.5q0 -108 57.5 -169.5t149.5 -61.5q39 0 79 11.5t40 39.5v55h160v-115q0 -36 -28 -64
t-71.5 -44t-87.5 -24t-86 -9l-13 -38q41 -2 68 -24.5t27 -61.5q0 -48 -41.5 -73t-97.5 -25q-31 0 -48 4q-7 1 -21 5v75l14 -4q12 -4 35 -4q48 0 48 26q0 28 -56 28h-25z" />
    <glyph glyph-name="Egrave" unicode="&#xc8;" horiz-adv-x="659" 
d="M49 0v130h80v455h-80v130h551v-211h-150v71h-142v-145h209v-140h-209v-150h154v71h150v-211h-563zM290 761l-151 150h177l116 -150h-142z" />
    <glyph glyph-name="Eacute" unicode="&#xc9;" horiz-adv-x="659" 
d="M49 0v130h80v455h-80v130h551v-211h-150v71h-142v-145h209v-140h-209v-150h154v71h150v-211h-563zM252 761l116 150h177l-151 -150h-142z" />
    <glyph glyph-name="Ecircumflex" unicode="&#xca;" horiz-adv-x="659" 
d="M49 0v130h80v455h-80v130h551v-211h-150v71h-142v-145h209v-140h-209v-150h154v71h150v-211h-563zM159 761l99 150h168l99 -150h-135l-47 82h-2l-47 -82h-135z" />
    <glyph glyph-name="Edieresis" unicode="&#xcb;" horiz-adv-x="659" 
d="M49 0v130h80v455h-80v130h551v-211h-150v71h-142v-145h209v-140h-209v-150h154v71h150v-211h-563zM399 771v140h131v-140h-131zM155 771v140h131v-140h-131z" />
    <glyph glyph-name="Igrave" unicode="&#xcc;" horiz-adv-x="437" 
d="M49 0v130h80v455h-80v130h339v-130h-80v-455h80v-130h-339zM167 761l-151 150h177l116 -150h-142z" />
    <glyph glyph-name="Iacute" unicode="&#xcd;" horiz-adv-x="437" 
d="M49 0v130h80v455h-80v130h339v-130h-80v-455h80v-130h-339zM129 761l116 150h177l-151 -150h-142z" />
    <glyph glyph-name="Icircumflex" unicode="&#xce;" horiz-adv-x="437" 
d="M49 0v130h80v455h-80v130h339v-130h-80v-455h80v-130h-339zM36 761l99 150h168l99 -150h-135l-47 82h-2l-47 -82h-135z" />
    <glyph glyph-name="Idieresis" unicode="&#xcf;" horiz-adv-x="437" 
d="M49 0v130h80v455h-80v130h339v-130h-80v-455h80v-130h-339zM276 771v140h131v-140h-131zM32 771v140h131v-140h-131z" />
    <glyph glyph-name="Eth" unicode="&#xd0;" horiz-adv-x="794" 
d="M49 0v130h80v154h-70v140h70v161h-80v130h336q172 0 271.5 -94.5t99.5 -261.5q0 -168 -100 -263.5t-271 -95.5h-336zM308 140h70q91 0 142 56t51 163q0 105 -52 160.5t-141 55.5h-70v-151h114v-140h-114v-144z" />
    <glyph glyph-name="Ntilde" unicode="&#xd1;" horiz-adv-x="859" 
d="M49 0v130h80v455h-80v130h261l224 -379q12 -20 21 -47l9 -26h4l-3 28q-3 16 -3 52v242h-84v130h343v-130h-80v-585h-180l-225 377q-14 27 -21 47l-9 26h-4l3 -28q3 -16 3 -52v-240h84v-130h-343zM343 761h-112q0 153 128 153q28 0 51.5 -15t41.5 -30t33 -15q37 0 37 57
h112q0 -153 -128 -153q-28 0 -51.5 15t-41.5 30t-33 15q-37 0 -37 -57z" />
    <glyph glyph-name="Ograve" unicode="&#xd2;" 
d="M34 362q0 155 106.5 260t269.5 105t269.5 -105t106.5 -260q0 -159 -106.5 -266.5t-269.5 -107.5t-269.5 107.5t-106.5 266.5zM219 362q0 -93 56 -156t135 -63t135 63t56 156q0 89 -56 149.5t-135 60.5t-135 -60.5t-56 -149.5zM358 761l-151 150h177l116 -150h-142z" />
    <glyph glyph-name="Oacute" unicode="&#xd3;" 
d="M34 362q0 155 106.5 260t269.5 105t269.5 -105t106.5 -260q0 -159 -106.5 -266.5t-269.5 -107.5t-269.5 107.5t-106.5 266.5zM219 362q0 -93 56 -156t135 -63t135 63t56 156q0 89 -56 149.5t-135 60.5t-135 -60.5t-56 -149.5zM320 761l116 150h177l-151 -150h-142z" />
    <glyph glyph-name="Ocircumflex" unicode="&#xd4;" 
d="M34 362q0 155 106.5 260t269.5 105t269.5 -105t106.5 -260q0 -159 -106.5 -266.5t-269.5 -107.5t-269.5 107.5t-106.5 266.5zM219 362q0 -93 56 -156t135 -63t135 63t56 156q0 89 -56 149.5t-135 60.5t-135 -60.5t-56 -149.5zM227 761l99 150h168l99 -150h-135l-47 82h-2
l-47 -82h-135z" />
    <glyph glyph-name="Otilde" unicode="&#xd5;" 
d="M34 362q0 155 106.5 260t269.5 105t269.5 -105t106.5 -260q0 -159 -106.5 -266.5t-269.5 -107.5t-269.5 107.5t-106.5 266.5zM219 362q0 -93 56 -156t135 -63t135 63t56 156q0 89 -56 149.5t-135 60.5t-135 -60.5t-56 -149.5zM321 761h-112q0 153 128 153q28 0 51.5 -15
t41.5 -30t33 -15q37 0 37 57h112q0 -153 -128 -153q-28 0 -51.5 15t-41.5 30t-33 15q-37 0 -37 -57z" />
    <glyph glyph-name="Odieresis" unicode="&#xd6;" 
d="M34 362q0 155 106.5 260t269.5 105t269.5 -105t106.5 -260q0 -159 -106.5 -266.5t-269.5 -107.5t-269.5 107.5t-106.5 266.5zM219 362q0 -93 56 -156t135 -63t135 63t56 156q0 89 -56 149.5t-135 60.5t-135 -60.5t-56 -149.5zM467 771v140h131v-140h-131zM223 771v140
h131v-140h-131z" />
    <glyph glyph-name="multiply" unicode="&#xd7;" horiz-adv-x="630" 
d="M43 92l182 195l-182 196l92 92l179 -192l180 192l92 -92l-183 -196l183 -195l-92 -92l-180 192l-179 -192z" />
    <glyph glyph-name="Oslash" unicode="&#xd8;" horiz-adv-x="816" 
d="M102 20l48 66q-116 108 -116 276q0 155 106.5 260t267.5 105q99 0 176 -40l41 56l70 -47l-40 -55q127 -108 127 -279q0 -159 -106.5 -266.5t-267.5 -107.5q-103 0 -190 48l-46 -64zM254 230l232 320q-39 17 -78 17q-81 0 -137 -58.5t-56 -146.5q0 -77 39 -132zM553 499
l-237 -327q43 -24 92 -24q81 0 137 61t56 153q0 83 -48 137z" />
    <glyph glyph-name="Ugrave" unicode="&#xd9;" 
d="M107 273v312h-80v130h339v-130h-80v-312q0 -48 18 -79q30 -51 107 -51q71 0 104 50q19 31 19 80v312h-80v130h339v-130h-80v-312q0 -111 -59 -186q-82 -99 -244 -99q-77 0 -140.5 25.5t-102.5 70.5q-60 67 -60 189zM358 761l-151 150h177l116 -150h-142z" />
    <glyph glyph-name="Uacute" unicode="&#xda;" 
d="M107 273v312h-80v130h339v-130h-80v-312q0 -48 18 -79q30 -51 107 -51q71 0 104 50q19 31 19 80v312h-80v130h339v-130h-80v-312q0 -111 -59 -186q-82 -99 -244 -99q-77 0 -140.5 25.5t-102.5 70.5q-60 67 -60 189zM320 761l116 150h177l-151 -150h-142z" />
    <glyph glyph-name="Ucircumflex" unicode="&#xdb;" 
d="M107 273v312h-80v130h339v-130h-80v-312q0 -48 18 -79q30 -51 107 -51q71 0 104 50q19 31 19 80v312h-80v130h339v-130h-80v-312q0 -111 -59 -186q-82 -99 -244 -99q-77 0 -140.5 25.5t-102.5 70.5q-60 67 -60 189zM227 761l99 150h168l99 -150h-135l-47 82h-2l-47 -82
h-135z" />
    <glyph glyph-name="Udieresis" unicode="&#xdc;" 
d="M107 273v312h-80v130h339v-130h-80v-312q0 -48 18 -79q30 -51 107 -51q71 0 104 50q19 31 19 80v312h-80v130h339v-130h-80v-312q0 -111 -59 -186q-82 -99 -244 -99q-77 0 -140.5 25.5t-102.5 70.5q-60 67 -60 189zM467 771v140h131v-140h-131zM223 771v140h131v-140
h-131z" />
    <glyph glyph-name="Yacute" unicode="&#xdd;" horiz-adv-x="671" 
d="M166 0v130h80v163l-175 292h-61v130h296v-130h-60l73 -132q4 -6 12 -25q1 -2 4 -10h2q3 8 4 10l12 25l73 132h-60v130h295v-130h-61l-175 -292v-163h80v-130h-339zM248 761l116 150h177l-151 -150h-142z" />
    <glyph glyph-name="Thorn" unicode="&#xde;" horiz-adv-x="672" 
d="M49 0v130h80v455h-80v130h339v-130h-84v-46h140q104 0 159.5 -47t55.5 -129q0 -85 -56 -134t-159 -49h-140v-50h84v-130h-339zM304 310h93q45 0 64.5 13t19.5 40q0 26 -18 36t-63 10h-96v-99z" />
    <glyph glyph-name="germandbls" unicode="&#xdf;" horiz-adv-x="665" 
d="M28 0v125h65v402q0 94 75 147t180 53q94 0 162.5 -54.5t68.5 -138.5q0 -34 -18 -62.5t-36 -52t-18 -45.5q0 -16 21 -35.5t46 -38t46 -54t21 -78.5q0 -83 -56.5 -129t-137.5 -46q-51 0 -95 11q-20 5 -29 10v142l29 -9q38 -10 66 -10q50 0 50 42q0 12 -14 26t-34 29
t-39.5 33t-33.5 45t-14 58t18 60t36 54t18 46q0 24 -16.5 38.5t-45.5 14.5q-77 0 -77 -68v-515h-238z" />
    <glyph glyph-name="agrave" unicode="&#xe0;" horiz-adv-x="583" 
d="M23 147q0 53 30.5 90t78.5 53.5t88 23t78 6.5h31v15q0 57 -73 57q-43 0 -97 -24q-19 -8 -45 -25l-60 117q25 18 60 34q76 33 158 33q113 0 171.5 -54t58.5 -156v-170q0 -22 22 -22h38v-125h-149q-35 0 -52 16t-17 38v3q0 9 1 11t1 5h-2q-13 -23 -35 -42q-49 -43 -117 -43
q-71 0 -120 42t-49 117zM197 159q0 -20 12.5 -33t33.5 -13q32 0 60 32t28 66v12h-16q-48 0 -83 -16t-35 -48zM227 565l-151 150h177l116 -150h-142z" />
    <glyph glyph-name="aacute" unicode="&#xe1;" horiz-adv-x="583" 
d="M23 147q0 53 30.5 90t78.5 53.5t88 23t78 6.5h31v15q0 57 -73 57q-43 0 -97 -24q-19 -8 -45 -25l-60 117q25 18 60 34q76 33 158 33q113 0 171.5 -54t58.5 -156v-170q0 -22 22 -22h38v-125h-149q-35 0 -52 16t-17 38v3q0 9 1 11t1 5h-2q-13 -23 -35 -42q-49 -43 -117 -43
q-71 0 -120 42t-49 117zM197 159q0 -20 12.5 -33t33.5 -13q32 0 60 32t28 66v12h-16q-48 0 -83 -16t-35 -48zM189 565l116 150h177l-151 -150h-142z" />
    <glyph glyph-name="acircumflex" unicode="&#xe2;" horiz-adv-x="583" 
d="M23 147q0 53 30.5 90t78.5 53.5t88 23t78 6.5h31v15q0 57 -73 57q-43 0 -97 -24q-19 -8 -45 -25l-60 117q25 18 60 34q76 33 158 33q113 0 171.5 -54t58.5 -156v-170q0 -22 22 -22h38v-125h-149q-35 0 -52 16t-17 38v3q0 9 1 11t1 5h-2q-13 -23 -35 -42q-49 -43 -117 -43
q-71 0 -120 42t-49 117zM197 159q0 -20 12.5 -33t33.5 -13q32 0 60 32t28 66v12h-16q-48 0 -83 -16t-35 -48zM96 565l99 150h168l99 -150h-135l-47 82h-2l-47 -82h-135z" />
    <glyph glyph-name="atilde" unicode="&#xe3;" horiz-adv-x="583" 
d="M23 147q0 53 30.5 90t78.5 53.5t88 23t78 6.5h31v15q0 57 -73 57q-43 0 -97 -24q-19 -8 -45 -25l-60 117q25 18 60 34q76 33 158 33q113 0 171.5 -54t58.5 -156v-170q0 -22 22 -22h38v-125h-149q-35 0 -52 16t-17 38v3q0 9 1 11t1 5h-2q-13 -23 -35 -42q-49 -43 -117 -43
q-71 0 -120 42t-49 117zM197 159q0 -20 12.5 -33t33.5 -13q32 0 60 32t28 66v12h-16q-48 0 -83 -16t-35 -48zM190 565h-112q0 153 128 153q28 0 51.5 -15t41.5 -30t33 -15q37 0 37 57h112q0 -153 -128 -153q-28 0 -51.5 15t-41.5 30t-33 15q-37 0 -37 -57z" />
    <glyph glyph-name="adieresis" unicode="&#xe4;" horiz-adv-x="583" 
d="M23 147q0 53 30.5 90t78.5 53.5t88 23t78 6.5h31v15q0 57 -73 57q-43 0 -97 -24q-19 -8 -45 -25l-60 117q25 18 60 34q76 33 158 33q113 0 171.5 -54t58.5 -156v-170q0 -22 22 -22h38v-125h-149q-35 0 -52 16t-17 38v3q0 9 1 11t1 5h-2q-13 -23 -35 -42q-49 -43 -117 -43
q-71 0 -120 42t-49 117zM197 159q0 -20 12.5 -33t33.5 -13q32 0 60 32t28 66v12h-16q-48 0 -83 -16t-35 -48zM336 575v140h131v-140h-131zM92 575v140h131v-140h-131z" />
    <glyph glyph-name="aring" unicode="&#xe5;" horiz-adv-x="583" 
d="M23 147q0 53 30.5 90t78.5 53.5t88 23t78 6.5h31v15q0 57 -73 57q-43 0 -97 -24q-19 -8 -45 -25l-60 117q25 18 60 34q76 33 158 33q113 0 171.5 -54t58.5 -156v-170q0 -22 22 -22h38v-125h-149q-35 0 -52 16t-17 38v3q0 9 1 11t1 5h-2q-13 -23 -35 -42q-49 -43 -117 -43
q-71 0 -120 42t-49 117zM197 159q0 -20 12.5 -33t33.5 -13q32 0 60 32t28 66v12h-16q-48 0 -83 -16t-35 -48zM279 551q-47 0 -82 23.5t-35 67.5q0 45 35 69t82 24t83 -24t36 -69q0 -44 -35.5 -67.5t-83.5 -23.5zM279 605q17 0 27.5 10t10.5 27q0 18 -10.5 28.5t-27.5 10.5
q-16 0 -26 -10.5t-10 -28.5q0 -37 36 -37z" />
    <glyph glyph-name="ae" unicode="&#xe6;" horiz-adv-x="849" 
d="M21 152q0 43 23 75.5t55.5 49.5t76.5 27.5t76.5 13t65.5 2.5h9v10q0 36 -18 49t-52 13q-43 0 -99 -24q-20 -8 -46 -25l-60 117q28 19 62 34q76 33 159 33q98 0 154 -51h2q62 51 154 51q109 0 173.5 -71t64.5 -183q0 -9 -2 -31l-2 -18h-325q9 -49 42 -73t78 -24t99 26
q21 10 43 25l64 -115q-28 -22 -59 -37q-78 -38 -161 -38q-135 0 -207 90h-2q-16 -29 -64.5 -59t-128.5 -30q-74 0 -124.5 45t-50.5 118zM496 320h151q0 30 -18 53.5t-46 23.5q-69 0 -87 -77zM190 159q0 -19 12.5 -31t35.5 -12q35 0 63 30.5t28 64.5v12h-16q-49 0 -86 -16
t-37 -48z" />
    <glyph glyph-name="ccedilla" unicode="&#xe7;" horiz-adv-x="567" 
d="M216 -104l32 99q-96 19 -159.5 89t-63.5 172q0 114 79.5 192.5t202.5 78.5q56 0 105 -12.5t85.5 -43t36.5 -75.5v-82h-147v31q0 18 -21 28t-52 10q-58 0 -86.5 -32.5t-28.5 -88.5q0 -65 36.5 -98t93.5 -33q83 0 155 57l58 -121q-80 -74 -216 -79l-13 -38q41 -2 68 -24.5
t27 -61.5q0 -48 -41.5 -73t-97.5 -25q-31 0 -48 4q-7 1 -21 5v75l14 -4q12 -4 35 -4q48 0 48 26q0 28 -56 28h-25z" />
    <glyph glyph-name="egrave" unicode="&#xe8;" horiz-adv-x="562" 
d="M25 258q0 116 73 192.5t195 76.5q113 0 176.5 -69.5t63.5 -179.5q0 -10 -2 -32l-2 -20h-327q9 -48 42 -71.5t78 -23.5t101 25q25 11 44 24l63 -120q-25 -19 -59 -36q-74 -36 -163 -36q-131 0 -207 80t-76 190zM206 321h148q0 32 -18 54t-47 22q-66 0 -83 -76zM239 565
l-151 150h177l116 -150h-142z" />
    <glyph glyph-name="eacute" unicode="&#xe9;" horiz-adv-x="562" 
d="M25 258q0 116 73 192.5t195 76.5q113 0 176.5 -69.5t63.5 -179.5q0 -10 -2 -32l-2 -20h-327q9 -48 42 -71.5t78 -23.5t101 25q25 11 44 24l63 -120q-25 -19 -59 -36q-74 -36 -163 -36q-131 0 -207 80t-76 190zM206 321h148q0 32 -18 54t-47 22q-66 0 -83 -76zM201 565
l116 150h177l-151 -150h-142z" />
    <glyph glyph-name="ecircumflex" unicode="&#xea;" horiz-adv-x="562" 
d="M25 258q0 116 73 192.5t195 76.5q113 0 176.5 -69.5t63.5 -179.5q0 -10 -2 -32l-2 -20h-327q9 -48 42 -71.5t78 -23.5t101 25q25 11 44 24l63 -120q-25 -19 -59 -36q-74 -36 -163 -36q-131 0 -207 80t-76 190zM206 321h148q0 32 -18 54t-47 22q-66 0 -83 -76zM108 565
l99 150h168l99 -150h-135l-47 82h-2l-47 -82h-135z" />
    <glyph glyph-name="edieresis" unicode="&#xeb;" horiz-adv-x="562" 
d="M25 258q0 116 73 192.5t195 76.5q113 0 176.5 -69.5t63.5 -179.5q0 -10 -2 -32l-2 -20h-327q9 -48 42 -71.5t78 -23.5t101 25q25 11 44 24l63 -120q-25 -19 -59 -36q-74 -36 -163 -36q-131 0 -207 80t-76 190zM206 321h148q0 32 -18 54t-47 22q-66 0 -83 -76zM348 575
v140h131v-140h-131zM104 575v140h131v-140h-131z" />
    <glyph glyph-name="igrave" unicode="&#xec;" horiz-adv-x="373" 
d="M42 0v125h65v265h-70v125h243v-390h65v-125h-303zM140 565l-151 150h177l116 -150h-142z" />
    <glyph glyph-name="iacute" unicode="&#xed;" horiz-adv-x="373" 
d="M42 0v125h65v265h-70v125h243v-390h65v-125h-303zM102 565l116 150h177l-151 -150h-142z" />
    <glyph glyph-name="icircumflex" unicode="&#xee;" horiz-adv-x="373" 
d="M42 0v125h65v265h-70v125h243v-390h65v-125h-303zM9 565l99 150h168l99 -150h-135l-47 82h-2l-47 -82h-135z" />
    <glyph glyph-name="idieresis" unicode="&#xef;" horiz-adv-x="373" 
d="M42 0v125h65v265h-70v125h243v-390h65v-125h-303zM229 575v140h131v-140h-131zM15 575v140h131v-140h-131z" />
    <glyph glyph-name="eth" unicode="&#xf0;" horiz-adv-x="591" 
d="M26 241q0 91 63.5 157t167.5 66q33 0 49 -4q9 -1 20 -5h2q-34 47 -75 70l-187 -76v75l105 43q-66 28 -108 36l48 135q137 -30 245 -95l148 63v-75l-86 -37q132 -125 132 -311q0 -55 -14.5 -105t-44.5 -94t-84.5 -70t-126.5 -26q-116 0 -185 75t-69 178zM200 236
q0 -44 20 -74t63 -30q47 0 70 34.5t23 83.5q0 37 -22 59.5t-61 22.5q-46 0 -69.5 -27.5t-23.5 -68.5z" />
    <glyph glyph-name="ntilde" unicode="&#xf1;" horiz-adv-x="708" 
d="M42 0v125h65v243q0 22 -22 22h-48v125h164q35 0 53 -15.5t18 -42.5v-17v-8q0 -3 -1 -4h2q13 27 39 50q55 49 136 49q79 0 126.5 -45.5t47.5 -147.5v-209h65v-125h-238v302q0 68 -58 68q-54 0 -82.5 -46t-28.5 -106v-93h65v-125h-303zM279 565h-112q0 153 128 153
q28 0 51.5 -15t41.5 -30t33 -15q37 0 37 57h112q0 -153 -128 -153q-28 0 -51.5 15t-41.5 30t-33 15q-37 0 -37 -57z" />
    <glyph glyph-name="ograve" unicode="&#xf2;" horiz-adv-x="634" 
d="M25 256q0 120 84 195.5t207 75.5q125 0 209 -75.5t84 -195.5q0 -119 -84 -193.5t-208 -74.5t-208 74.5t-84 193.5zM200 256q0 -56 34 -90t83 -34t83 34t34 90t-34 91.5t-83 35.5t-83 -35.5t-34 -91.5zM265 565l-151 150h177l116 -150h-142z" />
    <glyph glyph-name="oacute" unicode="&#xf3;" horiz-adv-x="634" 
d="M25 256q0 120 84 195.5t207 75.5q125 0 209 -75.5t84 -195.5q0 -119 -84 -193.5t-208 -74.5t-208 74.5t-84 193.5zM200 256q0 -56 34 -90t83 -34t83 34t34 90t-34 91.5t-83 35.5t-83 -35.5t-34 -91.5zM227 565l116 150h177l-151 -150h-142z" />
    <glyph glyph-name="ocircumflex" unicode="&#xf4;" horiz-adv-x="634" 
d="M25 256q0 120 84 195.5t207 75.5q125 0 209 -75.5t84 -195.5q0 -119 -84 -193.5t-208 -74.5t-208 74.5t-84 193.5zM200 256q0 -56 34 -90t83 -34t83 34t34 90t-34 91.5t-83 35.5t-83 -35.5t-34 -91.5zM134 565l99 150h168l99 -150h-135l-47 82h-2l-47 -82h-135z" />
    <glyph glyph-name="otilde" unicode="&#xf5;" horiz-adv-x="634" 
d="M25 256q0 120 84 195.5t207 75.5q125 0 209 -75.5t84 -195.5q0 -119 -84 -193.5t-208 -74.5t-208 74.5t-84 193.5zM200 256q0 -56 34 -90t83 -34t83 34t34 90t-34 91.5t-83 35.5t-83 -35.5t-34 -91.5zM228 565h-112q0 153 128 153q28 0 51.5 -15t41.5 -30t33 -15
q37 0 37 57h112q0 -153 -128 -153q-28 0 -51.5 15t-41.5 30t-33 15q-37 0 -37 -57z" />
    <glyph glyph-name="odieresis" unicode="&#xf6;" horiz-adv-x="634" 
d="M25 256q0 120 84 195.5t207 75.5q125 0 209 -75.5t84 -195.5q0 -119 -84 -193.5t-208 -74.5t-208 74.5t-84 193.5zM200 256q0 -56 34 -90t83 -34t83 34t34 90t-34 91.5t-83 35.5t-83 -35.5t-34 -91.5zM374 575v140h131v-140h-131zM130 575v140h131v-140h-131z" />
    <glyph glyph-name="divide" unicode="&#xf7;" horiz-adv-x="630" 
d="M242 440v135h146v-135h-146zM42 222v130h546v-130h-546zM242 0v135h146v-135h-146z" />
    <glyph glyph-name="oslash" unicode="&#xf8;" horiz-adv-x="633" 
d="M86 -6l39 55q-100 78 -100 207q0 120 84 195.5t207 75.5q68 0 134 -28l42 58l60 -41l-40 -55q97 -79 97 -205q0 -119 -84 -193.5t-208 -74.5q-65 0 -127 25l-44 -61zM222 183l138 191q-29 9 -43 9q-49 0 -83 -35.5t-34 -91.5q0 -38 22 -73zM415 325l-135 -187
q22 -6 37 -6q49 0 83 34t34 90q0 36 -19 69z" />
    <glyph glyph-name="ugrave" unicode="&#xf9;" horiz-adv-x="694" 
d="M91 181v209h-70v125h243v-307q0 -68 57 -68q49 0 78 47.5t29 109.5v93h-70v125h243v-368q0 -22 22 -22h43v-125h-159q-35 0 -53 15.5t-18 42.5v14q0 2 0.5 5.5t0.5 4.5v5h-2q-13 -25 -38 -49q-54 -50 -137 -50q-75 0 -122 46t-47 147zM278 565l-151 150h177l116 -150
h-142z" />
    <glyph glyph-name="uacute" unicode="&#xfa;" horiz-adv-x="694" 
d="M91 181v209h-70v125h243v-307q0 -68 57 -68q49 0 78 47.5t29 109.5v93h-70v125h243v-368q0 -22 22 -22h43v-125h-159q-35 0 -53 15.5t-18 42.5v14q0 2 0.5 5.5t0.5 4.5v5h-2q-13 -25 -38 -49q-54 -50 -137 -50q-75 0 -122 46t-47 147zM240 565l116 150h177l-151 -150
h-142z" />
    <glyph glyph-name="ucircumflex" unicode="&#xfb;" horiz-adv-x="694" 
d="M91 181v209h-70v125h243v-307q0 -68 57 -68q49 0 78 47.5t29 109.5v93h-70v125h243v-368q0 -22 22 -22h43v-125h-159q-35 0 -53 15.5t-18 42.5v14q0 2 0.5 5.5t0.5 4.5v5h-2q-13 -25 -38 -49q-54 -50 -137 -50q-75 0 -122 46t-47 147zM147 565l99 150h168l99 -150h-135
l-47 82h-2l-47 -82h-135z" />
    <glyph glyph-name="udieresis" unicode="&#xfc;" horiz-adv-x="694" 
d="M91 181v209h-70v125h243v-307q0 -68 57 -68q49 0 78 47.5t29 109.5v93h-70v125h243v-368q0 -22 22 -22h43v-125h-159q-35 0 -53 15.5t-18 42.5v14q0 2 0.5 5.5t0.5 4.5v5h-2q-13 -25 -38 -49q-54 -50 -137 -50q-75 0 -122 46t-47 147zM387 575v140h131v-140h-131z
M143 575v140h131v-140h-131z" />
    <glyph glyph-name="yacute" unicode="&#xfd;" horiz-adv-x="627" 
d="M12 -170l53 123q11 -8 22 -12q26 -12 63 -12q65 0 85 42l2 5l-170 414h-58v125h283v-125h-50l63 -191q3 -9 6.5 -26.5t3.5 -18.5q2 -14 2 -22h4q2 16 4 22q7 29 12 45l61 191h-47v125h267v-125h-53l-166 -435q-64 -165 -240 -165q-58 0 -107 20q-23 9 -40 20zM227 565
l116 150h177l-151 -150h-142z" />
    <glyph glyph-name="thorn" unicode="&#xfe;" horiz-adv-x="640" 
d="M0 590v125h244v-202q0 -24 -1 -32q-1 -5 -1 -12h2q11 15 31 29q44 29 103 29q104 0 170 -76.5t66 -192.5t-66 -193t-170 -77q-59 0 -103 27q-16 9 -31 26h-2q0 -7 1 -12q1 -8 1 -32v-72h65v-125h-303v125h65v665h-71zM239 257q0 -125 104 -125q44 0 70.5 36.5t26.5 89.5
t-26.5 89t-70.5 36q-104 0 -104 -126z" />
    <glyph glyph-name="ydieresis" unicode="&#xff;" horiz-adv-x="627" 
d="M12 -170l53 123q11 -8 22 -12q26 -12 63 -12q65 0 85 42l2 5l-170 414h-58v125h283v-125h-50l63 -191q3 -9 6.5 -26.5t3.5 -18.5q2 -14 2 -22h4q2 16 4 22q7 29 12 45l61 191h-47v125h267v-125h-53l-166 -435q-64 -165 -240 -165q-58 0 -107 20q-23 9 -40 20zM374 575
v140h131v-140h-131zM130 575v140h131v-140h-131z" />
    <glyph glyph-name="Amacron" unicode="&#x100;" horiz-adv-x="732" 
d="M10 0v130h59l195 585h204l195 -585h59v-130h-299v130h62l-27 95h-184l-27 -95h62v-130h-299zM312 361h107l-37 132q-4 14 -7.5 33t-3.5 21l-3 21h-4q0 -7 -2 -21q-1 -4 -2.5 -13.5t-4 -20t-5.5 -20.5zM227 782v112h275v-112h-275z" />
    <glyph glyph-name="amacron" unicode="&#x101;" horiz-adv-x="583" 
d="M23 147q0 53 30.5 90t78.5 53.5t88 23t78 6.5h31v15q0 57 -73 57q-43 0 -97 -24q-19 -8 -45 -25l-60 117q25 18 60 34q76 33 158 33q113 0 171.5 -54t58.5 -156v-170q0 -22 22 -22h38v-125h-149q-35 0 -52 16t-17 38v3q0 9 1 11t1 5h-2q-13 -23 -35 -42q-49 -43 -117 -43
q-71 0 -120 42t-49 117zM197 159q0 -20 12.5 -33t33.5 -13q32 0 60 32t28 66v12h-16q-48 0 -83 -16t-35 -48zM142 586v112h275v-112h-275z" />
    <glyph glyph-name="Abreve" unicode="&#x102;" horiz-adv-x="732" 
d="M10 0v130h59l195 585h204l195 -585h59v-130h-299v130h62l-27 95h-184l-27 -95h62v-130h-299zM312 361h107l-37 132q-4 14 -7.5 33t-3.5 21l-3 21h-4q0 -7 -2 -21q-1 -4 -2.5 -13.5t-4 -20t-5.5 -20.5zM364 756q-73 0 -123.5 39t-50.5 106v10h117v-11q0 -28 17 -43t40 -15
t40 15t17 43v11h117v-10q0 -67 -50.5 -106t-123.5 -39z" />
    <glyph glyph-name="abreve" unicode="&#x103;" horiz-adv-x="583" 
d="M23 147q0 53 30.5 90t78.5 53.5t88 23t78 6.5h31v15q0 57 -73 57q-43 0 -97 -24q-19 -8 -45 -25l-60 117q25 18 60 34q76 33 158 33q113 0 171.5 -54t58.5 -156v-170q0 -22 22 -22h38v-125h-149q-35 0 -52 16t-17 38v3q0 9 1 11t1 5h-2q-13 -23 -35 -42q-49 -43 -117 -43
q-71 0 -120 42t-49 117zM197 159q0 -20 12.5 -33t33.5 -13q32 0 60 32t28 66v12h-16q-48 0 -83 -16t-35 -48zM279 560q-73 0 -123.5 39t-50.5 106v10h117v-11q0 -28 17 -43t40 -15t40 15t17 43v11h117v-10q0 -67 -50.5 -106t-123.5 -39z" />
    <glyph glyph-name="Aogonek" unicode="&#x104;" horiz-adv-x="732" 
d="M520 -127q0 72 67 127h-164v130h62l-27 95h-184l-27 -95h62v-130h-299v130h59l195 585h204l195 -585h59v-130h-5q-22 0 -48.5 -32.5t-26.5 -61.5q0 -34 57 -38l-28 -110q-72 8 -111.5 37.5t-39.5 77.5zM312 361h107l-37 132q-4 14 -7.5 33t-3.5 21l-3 21h-4q0 -7 -2 -21
q-1 -4 -2.5 -13.5t-4 -20t-5.5 -20.5z" />
    <glyph glyph-name="aogonek" unicode="&#x105;" horiz-adv-x="583" 
d="M360 -127q0 72 67 127h-14q-35 0 -52 16t-17 38v3q0 9 1 11t1 5h-2q-13 -23 -35 -42q-49 -43 -117 -43q-71 0 -120 42t-49 117q0 53 30.5 90t78.5 53.5t88 23t78 6.5h31v15q0 57 -73 57q-43 0 -97 -24q-19 -8 -45 -25l-60 117q25 18 60 34q76 33 158 33q113 0 171.5 -54
t58.5 -156v-170q0 -22 22 -22h38v-125h-5q-22 0 -48.5 -32.5t-26.5 -61.5q0 -34 57 -38l-28 -110q-72 8 -111.5 37.5t-39.5 77.5zM197 159q0 -20 12.5 -33t33.5 -13q32 0 60 32t28 66v12h-16q-48 0 -83 -16t-35 -48z" />
    <glyph glyph-name="Cacute" unicode="&#x106;" horiz-adv-x="748" 
d="M34 359q0 158 108 263t266 105q39 0 83 -6.5t93 -21t81 -44.5t32 -71v-113h-160v55q0 27 -37.5 39t-83.5 12q-89 0 -143 -55.5t-54 -152.5q0 -108 57.5 -169.5t149.5 -61.5q39 0 79 11.5t40 39.5v55h160v-115q0 -38 -31 -67.5t-78.5 -44.5t-94 -22t-88.5 -7
q-163 0 -271 106.5t-108 264.5zM309 761l116 150h177l-151 -150h-142z" />
    <glyph glyph-name="cacute" unicode="&#x107;" horiz-adv-x="567" 
d="M25 256q0 114 79.5 192.5t202.5 78.5q56 0 105 -12.5t85.5 -43t36.5 -75.5v-82h-147v31q0 18 -21 28t-52 10q-58 0 -86.5 -32.5t-28.5 -88.5q0 -65 36.5 -98t93.5 -33q83 0 155 57l58 -121q-87 -79 -224 -79q-120 0 -206.5 73.5t-86.5 194.5zM205 565l116 150h177
l-151 -150h-142z" />
    <glyph glyph-name="Ccircumflex" unicode="&#x108;" horiz-adv-x="748" 
d="M34 359q0 158 108 263t266 105q39 0 83 -6.5t93 -21t81 -44.5t32 -71v-113h-160v55q0 27 -37.5 39t-83.5 12q-89 0 -143 -55.5t-54 -152.5q0 -108 57.5 -169.5t149.5 -61.5q39 0 79 11.5t40 39.5v55h160v-115q0 -38 -31 -67.5t-78.5 -44.5t-94 -22t-88.5 -7
q-163 0 -271 106.5t-108 264.5zM216 761l99 150h168l99 -150h-135l-47 82h-2l-47 -82h-135z" />
    <glyph glyph-name="ccircumflex" unicode="&#x109;" horiz-adv-x="567" 
d="M25 256q0 114 79.5 192.5t202.5 78.5q56 0 105 -12.5t85.5 -43t36.5 -75.5v-82h-147v31q0 18 -21 28t-52 10q-58 0 -86.5 -32.5t-28.5 -88.5q0 -65 36.5 -98t93.5 -33q83 0 155 57l58 -121q-87 -79 -224 -79q-120 0 -206.5 73.5t-86.5 194.5zM112 565l99 150h168l99 -150
h-135l-47 82h-2l-47 -82h-135z" />
    <glyph glyph-name="Cdotaccent" unicode="&#x10a;" horiz-adv-x="748" 
d="M34 359q0 158 108 263t266 105q39 0 83 -6.5t93 -21t81 -44.5t32 -71v-113h-160v55q0 27 -37.5 39t-83.5 12q-89 0 -143 -55.5t-54 -152.5q0 -108 57.5 -169.5t149.5 -61.5q39 0 79 11.5t40 39.5v55h160v-115q0 -38 -31 -67.5t-78.5 -44.5t-94 -22t-88.5 -7
q-163 0 -271 106.5t-108 264.5zM328 779v132h143v-132h-143z" />
    <glyph glyph-name="cdotaccent" unicode="&#x10b;" horiz-adv-x="567" 
d="M25 256q0 114 79.5 192.5t202.5 78.5q56 0 105 -12.5t85.5 -43t36.5 -75.5v-82h-147v31q0 18 -21 28t-52 10q-58 0 -86.5 -32.5t-28.5 -88.5q0 -65 36.5 -98t93.5 -33q83 0 155 57l58 -121q-87 -79 -224 -79q-120 0 -206.5 73.5t-86.5 194.5zM224 583v132h143v-132h-143z
" />
    <glyph glyph-name="Ccaron" unicode="&#x10c;" horiz-adv-x="748" 
d="M34 359q0 158 108 263t266 105q39 0 83 -6.5t93 -21t81 -44.5t32 -71v-113h-160v55q0 27 -37.5 39t-83.5 12q-89 0 -143 -55.5t-54 -152.5q0 -108 57.5 -169.5t149.5 -61.5q39 0 79 11.5t40 39.5v55h160v-115q0 -38 -31 -67.5t-78.5 -44.5t-94 -22t-88.5 -7
q-163 0 -271 106.5t-108 264.5zM315 761l-99 150h135l47 -82h2l47 82h135l-99 -150h-168z" />
    <glyph glyph-name="ccaron" unicode="&#x10d;" horiz-adv-x="567" 
d="M25 256q0 114 79.5 192.5t202.5 78.5q56 0 105 -12.5t85.5 -43t36.5 -75.5v-82h-147v31q0 18 -21 28t-52 10q-58 0 -86.5 -32.5t-28.5 -88.5q0 -65 36.5 -98t93.5 -33q83 0 155 57l58 -121q-87 -79 -224 -79q-120 0 -206.5 73.5t-86.5 194.5zM211 565l-99 150h135l47 -82
h2l47 82h135l-99 -150h-168z" />
    <glyph glyph-name="Dcaron" unicode="&#x10e;" horiz-adv-x="788" 
d="M49 0v130h80v455h-80v130h315q95 0 147 -15q109 -31 174.5 -120.5t65.5 -221.5q0 -122 -57.5 -210t-157.5 -124q-66 -24 -171 -24h-316zM308 140h52q66 0 109 20q46 23 71.5 74.5t25.5 122.5q0 157 -110 203q-36 15 -96 15h-52v-435zM299 761l-99 150h135l47 -82h2l47 82
h135l-99 -150h-168z" />
    <glyph glyph-name="dcaron" unicode="&#x10f;" horiz-adv-x="663" 
d="M27 257q0 122 65.5 196t172.5 74q63 0 103 -25q18 -11 29 -26h2v9q0 3 -0.5 11t-0.5 13v81h-70v125h243v-568q0 -22 22 -22h38v-125h-149q-35 0 -52 16t-17 38v3q0 9 1 11t1 5h-2q-12 -25 -34 -42q-51 -43 -125 -43q-102 0 -164.5 74.5t-62.5 194.5zM201 257
q0 -57 27.5 -91.5t72.5 -34.5q42 0 72 31.5t30 90.5q0 55 -25.5 91.5t-73.5 36.5q-44 0 -73.5 -33t-29.5 -91zM636 715h139q8 -23 8 -56q0 -55 -32 -92.5t-85 -53.5l-61 54q45 34 45 82q0 27 -14 66z" />
    <glyph glyph-name="Dcroat" unicode="&#x110;" horiz-adv-x="794" 
d="M49 0v130h80v154h-70v140h70v161h-80v130h336q172 0 271.5 -94.5t99.5 -261.5q0 -168 -100 -263.5t-271 -95.5h-336zM308 140h70q91 0 142 56t51 163q0 105 -52 160.5t-141 55.5h-70v-151h114v-140h-114v-144z" />
    <glyph glyph-name="dcroat" unicode="&#x111;" horiz-adv-x="663" 
d="M27 257q0 122 65.5 196t172.5 74q63 0 103 -25q18 -11 29 -26h2v9q0 3 -0.5 11t-0.5 13v50h-147v95h147v61h173v-61h66v-95h-66v-412q0 -22 22 -22h38v-125h-149q-35 0 -52 16t-17 38v3q0 9 1 11t1 5h-2q-12 -25 -34 -42q-51 -43 -125 -43q-102 0 -164.5 74.5
t-62.5 194.5zM201 257q0 -57 27.5 -91.5t72.5 -34.5q42 0 72 31.5t30 90.5q0 55 -25.5 91.5t-73.5 36.5q-44 0 -73.5 -33t-29.5 -91z" />
    <glyph glyph-name="Emacron" unicode="&#x112;" horiz-adv-x="659" 
d="M49 0v130h80v455h-80v130h551v-211h-150v71h-142v-145h209v-140h-209v-150h154v71h150v-211h-563zM205 782v112h275v-112h-275z" />
    <glyph glyph-name="emacron" unicode="&#x113;" horiz-adv-x="562" 
d="M25 258q0 116 73 192.5t195 76.5q113 0 176.5 -69.5t63.5 -179.5q0 -10 -2 -32l-2 -20h-327q9 -48 42 -71.5t78 -23.5t101 25q25 11 44 24l63 -120q-25 -19 -59 -36q-74 -36 -163 -36q-131 0 -207 80t-76 190zM206 321h148q0 32 -18 54t-47 22q-66 0 -83 -76zM154 586
v112h275v-112h-275z" />
    <glyph glyph-name="Ebreve" unicode="&#x114;" horiz-adv-x="659" 
d="M49 0v130h80v455h-80v130h551v-211h-150v71h-142v-145h209v-140h-209v-150h154v71h150v-211h-563zM342 756q-73 0 -123.5 39t-50.5 106v10h117v-11q0 -28 17 -43t40 -15t40 15t17 43v11h117v-10q0 -67 -50.5 -106t-123.5 -39z" />
    <glyph glyph-name="ebreve" unicode="&#x115;" horiz-adv-x="562" 
d="M25 258q0 116 73 192.5t195 76.5q113 0 176.5 -69.5t63.5 -179.5q0 -10 -2 -32l-2 -20h-327q9 -48 42 -71.5t78 -23.5t101 25q25 11 44 24l63 -120q-25 -19 -59 -36q-74 -36 -163 -36q-131 0 -207 80t-76 190zM206 321h148q0 32 -18 54t-47 22q-66 0 -83 -76zM291 560
q-73 0 -123.5 39t-50.5 106v10h117v-11q0 -28 17 -43t40 -15t40 15t17 43v11h117v-10q0 -67 -50.5 -106t-123.5 -39z" />
    <glyph glyph-name="Edotaccent" unicode="&#x116;" horiz-adv-x="659" 
d="M49 0v130h80v455h-80v130h551v-211h-150v71h-142v-145h209v-140h-209v-150h154v71h150v-211h-563zM271 779v132h143v-132h-143z" />
    <glyph glyph-name="edotaccent" unicode="&#x117;" horiz-adv-x="562" 
d="M25 258q0 116 73 192.5t195 76.5q113 0 176.5 -69.5t63.5 -179.5q0 -10 -2 -32l-2 -20h-327q9 -48 42 -71.5t78 -23.5t101 25q25 11 44 24l63 -120q-25 -19 -59 -36q-74 -36 -163 -36q-131 0 -207 80t-76 190zM206 321h148q0 32 -18 54t-47 22q-66 0 -83 -76zM220 583
v132h143v-132h-143z" />
    <glyph glyph-name="Eogonek" unicode="&#x118;" horiz-adv-x="659" 
d="M49 0v130h80v455h-80v130h551v-211h-150v71h-142v-145h209v-140h-209v-150h154v71h150v-211h-8q-22 0 -49.5 -32.5t-27.5 -61.5q0 -34 57 -38l-28 -110q-72 8 -111.5 37.5t-39.5 77.5q0 72 67 127h-423z" />
    <glyph glyph-name="eogonek" unicode="&#x119;" horiz-adv-x="562" 
d="M25 258q0 116 73 192.5t195 76.5q113 0 176.5 -69.5t63.5 -179.5q0 -10 -2 -32l-2 -20h-327q9 -48 42 -71.5t78 -23.5t101 25q25 11 44 24l63 -120q-20 -15 -23 -16q-29 -17 -61 -34q-22 -10 -47.5 -38t-25.5 -66q0 -34 57 -38l-28 -110q-72 8 -111.5 37.5t-39.5 77.5
q0 65 55 115q-131 0 -206 80t-75 190zM206 321h148q0 32 -18 54t-47 22q-66 0 -83 -76z" />
    <glyph glyph-name="Ecaron" unicode="&#x11a;" horiz-adv-x="659" 
d="M49 0v130h80v455h-80v130h551v-211h-150v71h-142v-145h209v-140h-209v-150h154v71h150v-211h-563zM258 761l-99 150h135l47 -82h2l47 82h135l-99 -150h-168z" />
    <glyph glyph-name="ecaron" unicode="&#x11b;" horiz-adv-x="562" 
d="M25 258q0 116 73 192.5t195 76.5q113 0 176.5 -69.5t63.5 -179.5q0 -10 -2 -32l-2 -20h-327q9 -48 42 -71.5t78 -23.5t101 25q25 11 44 24l63 -120q-25 -19 -59 -36q-74 -36 -163 -36q-131 0 -207 80t-76 190zM206 321h148q0 32 -18 54t-47 22q-66 0 -83 -76zM207 565
l-99 150h135l47 -82h2l47 82h135l-99 -150h-168z" />
    <glyph glyph-name="Gcircumflex" unicode="&#x11c;" horiz-adv-x="768" 
d="M34 362q0 161 107.5 263t275.5 102q68 0 132.5 -15.5t110 -48.5t45.5 -76v-116h-160v52q0 26 -33.5 40t-84.5 14q-99 0 -153.5 -53.5t-54.5 -153.5q0 -103 57.5 -167.5t160.5 -64.5q46 0 85 12.5t39 39.5v49h-115v130h275v-238q0 -38 -32.5 -67t-82 -45t-99 -23.5
t-92.5 -7.5q-165 0 -273 106t-108 268zM218 761l99 150h168l99 -150h-135l-47 82h-2l-47 -82h-135z" />
    <glyph glyph-name="gcircumflex" unicode="&#x11d;" horiz-adv-x="654" 
d="M77 -164l49 126q15 -8 42 -17q54 -16 103 -16q52 0 85.5 24t33.5 80v17q0 1 0.5 5.5t0.5 6.5v7h-2q-47 -54 -129 -54q-110 0 -171 76t-61 183q0 106 60 179.5t171 73.5q45 0 87.5 -17t62.5 -50h2v5q0 1 -0.5 4t-0.5 4q0 17 15.5 29.5t42.5 12.5h156v-125h-39
q-22 0 -22 -19v-324q0 -68 -25 -119t-68 -80.5t-92.5 -43.5t-105.5 -14q-108 0 -195 46zM301 159q40 0 66.5 25.5t26.5 87.5q0 111 -100 111q-44 0 -68 -28t-24 -75q0 -52 25.5 -86.5t73.5 -34.5zM131 565l99 150h168l99 -150h-135l-47 82h-2l-47 -82h-135z" />
    <glyph glyph-name="Gbreve" unicode="&#x11e;" horiz-adv-x="768" 
d="M34 362q0 161 107.5 263t275.5 102q68 0 132.5 -15.5t110 -48.5t45.5 -76v-116h-160v52q0 26 -33.5 40t-84.5 14q-99 0 -153.5 -53.5t-54.5 -153.5q0 -103 57.5 -167.5t160.5 -64.5q46 0 85 12.5t39 39.5v49h-115v130h275v-238q0 -38 -32.5 -67t-82 -45t-99 -23.5
t-92.5 -7.5q-165 0 -273 106t-108 268zM401 756q-73 0 -123.5 39t-50.5 106v10h117v-11q0 -28 17 -43t40 -15t40 15t17 43v11h117v-10q0 -67 -50.5 -106t-123.5 -39z" />
    <glyph glyph-name="gbreve" unicode="&#x11f;" horiz-adv-x="654" 
d="M77 -164l49 126q15 -8 42 -17q54 -16 103 -16q52 0 85.5 24t33.5 80v17q0 1 0.5 5.5t0.5 6.5v7h-2q-47 -54 -129 -54q-110 0 -171 76t-61 183q0 106 60 179.5t171 73.5q45 0 87.5 -17t62.5 -50h2v5q0 1 -0.5 4t-0.5 4q0 17 15.5 29.5t42.5 12.5h156v-125h-39
q-22 0 -22 -19v-324q0 -68 -25 -119t-68 -80.5t-92.5 -43.5t-105.5 -14q-108 0 -195 46zM301 159q40 0 66.5 25.5t26.5 87.5q0 111 -100 111q-44 0 -68 -28t-24 -75q0 -52 25.5 -86.5t73.5 -34.5zM314 560q-73 0 -123.5 39t-50.5 106v10h117v-11q0 -28 17 -43t40 -15t40 15
t17 43v11h117v-10q0 -67 -50.5 -106t-123.5 -39z" />
    <glyph glyph-name="Gdotaccent" unicode="&#x120;" horiz-adv-x="768" 
d="M34 362q0 161 107.5 263t275.5 102q68 0 132.5 -15.5t110 -48.5t45.5 -76v-116h-160v52q0 26 -33.5 40t-84.5 14q-99 0 -153.5 -53.5t-54.5 -153.5q0 -103 57.5 -167.5t160.5 -64.5q46 0 85 12.5t39 39.5v49h-115v130h275v-238q0 -38 -32.5 -67t-82 -45t-99 -23.5
t-92.5 -7.5q-165 0 -273 106t-108 268zM330 779v132h143v-132h-143z" />
    <glyph glyph-name="gdotaccent" unicode="&#x121;" horiz-adv-x="654" 
d="M77 -164l49 126q15 -8 42 -17q54 -16 103 -16q52 0 85.5 24t33.5 80v17q0 1 0.5 5.5t0.5 6.5v7h-2q-47 -54 -129 -54q-110 0 -171 76t-61 183q0 106 60 179.5t171 73.5q45 0 87.5 -17t62.5 -50h2v5q0 1 -0.5 4t-0.5 4q0 17 15.5 29.5t42.5 12.5h156v-125h-39
q-22 0 -22 -19v-324q0 -68 -25 -119t-68 -80.5t-92.5 -43.5t-105.5 -14q-108 0 -195 46zM301 159q40 0 66.5 25.5t26.5 87.5q0 111 -100 111q-44 0 -68 -28t-24 -75q0 -52 25.5 -86.5t73.5 -34.5zM243 583v132h143v-132h-143z" />
    <glyph glyph-name="Gcommaaccent" unicode="&#x122;" horiz-adv-x="768" 
d="M34 362q0 161 107.5 263t275.5 102q68 0 132.5 -15.5t110 -48.5t45.5 -76v-116h-160v52q0 26 -33.5 40t-84.5 14q-99 0 -153.5 -53.5t-54.5 -153.5q0 -103 57.5 -167.5t160.5 -64.5q46 0 85 12.5t39 39.5v49h-115v130h275v-238q0 -38 -32.5 -67t-82 -45t-99 -23.5
t-92.5 -7.5q-165 0 -273 106t-108 268zM332 -46h139q8 -23 8 -56q0 -55 -32 -92.5t-85 -53.5l-61 54q45 34 45 82q0 27 -14 66z" />
    <glyph glyph-name="gcommaaccent" unicode="&#x123;" horiz-adv-x="654" 
d="M77 -164l49 126q15 -8 42 -17q54 -16 103 -16q52 0 85.5 24t33.5 80v17q0 1 0.5 5.5t0.5 6.5v7h-2q-47 -54 -129 -54q-110 0 -171 76t-61 183q0 106 60 179.5t171 73.5q45 0 87.5 -17t62.5 -50h2v5q0 1 -0.5 4t-0.5 4q0 17 15.5 29.5t42.5 12.5h156v-125h-39
q-22 0 -22 -19v-324q0 -68 -25 -119t-68 -80.5t-92.5 -43.5t-105.5 -14q-108 0 -195 46zM301 159q40 0 66.5 25.5t26.5 87.5q0 111 -100 111q-44 0 -68 -28t-24 -75q0 -52 25.5 -86.5t73.5 -34.5zM371 571h-139q-8 23 -8 56q0 55 32 92.5t85 53.5l61 -54q-45 -34 -45 -82
q0 -27 14 -66z" />
    <glyph glyph-name="Hcircumflex" unicode="&#x124;" horiz-adv-x="872" 
d="M49 0v130h80v455h-80v130h339v-130h-80v-160h256v160h-80v130h339v-130h-80v-455h80v-130h-339v130h80v155h-256v-155h80v-130h-339zM253 761l99 150h168l99 -150h-135l-47 82h-2l-47 -82h-135z" />
    <glyph glyph-name="hcircumflex" unicode="&#x125;" horiz-adv-x="694" 
d="M28 0v125h65v465h-70v125h243v-226q0 -24 -1 -32q-1 -5 -1 -12h2q22 38 64 60t93 22q85 0 135 -45.5t50 -147.5v-209h65v-125h-238v302q0 68 -57 68q-54 0 -83 -41t-29 -101v-103h65v-125h-303zM-4 761l99 150h168l99 -150h-135l-47 82h-2l-47 -82h-135z" />
    <glyph glyph-name="Hbar" unicode="&#x126;" horiz-adv-x="872" 
d="M49 448v80h80v57h-80v130h339v-130h-80v-57h256v57h-80v130h339v-130h-80v-57h80v-80h-80v-318h80v-130h-339v130h80v145h-256v-145h80v-130h-339v130h80v318h-80zM308 385h256v63h-256v-63z" />
    <glyph glyph-name="hbar" unicode="&#x127;" horiz-adv-x="694" 
d="M28 0v125h65v434h-58v94h58v62h173v-62h154v-94h-154v-70q0 -24 -1 -32q-1 -5 -1 -12h2q22 38 64 60t93 22q85 0 135 -45.5t50 -147.5v-209h65v-125h-238v302q0 68 -57 68q-54 0 -83 -41t-29 -101v-103h51v-125h-289z" />
    <glyph glyph-name="Itilde" unicode="&#x128;" horiz-adv-x="437" 
d="M49 0v130h80v455h-80v130h339v-130h-80v-455h80v-130h-339zM130 761h-112q0 153 128 153q28 0 51.5 -15t41.5 -30t33 -15q37 0 37 57h112q0 -153 -128 -153q-28 0 -51.5 15t-41.5 30t-33 15q-37 0 -37 -57z" />
    <glyph glyph-name="itilde" unicode="&#x129;" horiz-adv-x="373" 
d="M42 0v125h65v265h-70v125h243v-390h65v-125h-303zM103 565h-112q0 153 128 153q28 0 51.5 -15t41.5 -30t33 -15q37 0 37 57h112q0 -153 -128 -153q-28 0 -51.5 15t-41.5 30t-33 15q-37 0 -37 -57z" />
    <glyph glyph-name="Imacron" unicode="&#x12a;" horiz-adv-x="437" 
d="M49 0v130h80v455h-80v130h339v-130h-80v-455h80v-130h-339zM82 782v112h275v-112h-275z" />
    <glyph glyph-name="imacron" unicode="&#x12b;" horiz-adv-x="373" 
d="M42 0v125h65v265h-70v125h243v-390h65v-125h-303zM55 586v112h275v-112h-275z" />
    <glyph glyph-name="Ibreve" unicode="&#x12c;" horiz-adv-x="437" 
d="M49 0v130h80v455h-80v130h339v-130h-80v-455h80v-130h-339zM219 756q-73 0 -123.5 39t-50.5 106v10h117v-11q0 -28 17 -43t40 -15t40 15t17 43v11h117v-10q0 -67 -50.5 -106t-123.5 -39z" />
    <glyph glyph-name="ibreve" unicode="&#x12d;" horiz-adv-x="373" 
d="M42 0v125h65v265h-70v125h243v-390h65v-125h-303zM192 560q-73 0 -123.5 39t-50.5 106v10h117v-11q0 -28 17 -43t40 -15t40 15t17 43v11h117v-10q0 -67 -50.5 -106t-123.5 -39z" />
    <glyph glyph-name="Iogonek" unicode="&#x12e;" horiz-adv-x="437" 
d="M49 0v130h80v455h-80v130h339v-130h-80v-455h80v-130h-12q-22 0 -48.5 -32.5t-26.5 -61.5q0 -34 57 -38l-28 -110q-72 8 -111.5 37.5t-39.5 77.5q0 72 67 127h-197z" />
    <glyph glyph-name="iogonek" unicode="&#x12f;" horiz-adv-x="373" 
d="M42 0v125h65v265h-70v125h243v-390h65v-125h-12q-22 0 -48.5 -32.5t-26.5 -61.5q0 -34 57 -38l-28 -110q-72 8 -111.5 37.5t-39.5 77.5q0 72 67 127h-161zM109 580v135h169v-135h-169z" />
    <glyph glyph-name="Idotaccent" unicode="&#x130;" horiz-adv-x="437" 
d="M49 0v130h80v455h-80v130h339v-130h-80v-455h80v-130h-339zM148 779v132h143v-132h-143z" />
    <glyph glyph-name="dotlessi" unicode="&#x131;" horiz-adv-x="373" 
d="M42 0v125h65v265h-70v125h243v-390h65v-125h-303z" />
    <glyph glyph-name="IJ" unicode="&#x132;" 
d="M51 0v130h79v455h-80v130h339v-130h-80v-455h62v-130h-320zM423 -1v140q40 -5 78 18.5t38 77.5v350h-90v130h339v-130h-70v-332q0 -76 -25.5 -130t-69.5 -81t-93.5 -37t-106.5 -6z" />
    <glyph glyph-name="ij" unicode="&#x133;" horiz-adv-x="692" 
d="M109 580v135h169v-135h-169zM42 0v125h65v265h-70v125h243v-390h65v-125h-303zM450 580v135h169v-135h-169zM333 -205v135q1 -1 6 -1h16q22 0 40.5 4.5t35.5 21.5t17 45v390h-71v125h244v-523q0 -49 -18 -87t-44 -58.5t-61 -33.5t-63 -17t-56 -4q-25 0 -33 1z" />
    <glyph glyph-name="Jcircumflex" unicode="&#x134;" horiz-adv-x="582" 
d="M14 210v62h170v-48q0 -38 12 -59.5t49 -21.5q56 0 56 81v361h-90v130h339v-130h-70v-365q0 -111 -70 -171.5t-166 -60.5q-95 0 -162.5 56.5t-67.5 165.5zM205 761l99 150h168l99 -150h-135l-47 82h-2l-47 -82h-135z" />
    <glyph glyph-name="jcircumflex" unicode="&#x135;" horiz-adv-x="340" 
d="M-20 565l99 150h168l99 -150h-135l-47 82h-2l-47 -82h-135zM-19 -205v135q1 -1 6 -1h16q22 0 40.5 4.5t35.5 21.5t17 45v390h-71v125h244v-523q0 -49 -18 -87t-44 -58.5t-61 -33.5t-63 -17t-56 -4q-26 0 -34 1z" />
    <glyph glyph-name="Kcommaaccent" unicode="&#x136;" horiz-adv-x="751" 
d="M49 0v130h80v455h-80v130h311v-130h-52v-151h60l105 151h-54v130h294v-130h-60l-152 -205v-2q9 -6 18 -13q24 -24 37 -51l81 -161q12 -23 44 -23h31v-130h-122q-43 0 -64.5 12t-36.5 41l-107 218q-11 23 -50 23h-24v-164h75v-130h-334zM321 -46h139q8 -23 8 -56
q0 -55 -32 -92.5t-85 -53.5l-61 54q45 34 45 82q0 27 -14 66z" />
    <glyph glyph-name="kcommaaccent" unicode="&#x137;" horiz-adv-x="634" 
d="M28 0v125h65v465h-70v125h243v-391h59l54 66h-49v125h268v-125h-63l-89 -108v-2l13 -10q19 -16 28 -36l51 -92q9 -17 38 -17h25v-125h-126q-29 0 -44.5 7.5t-29.5 31.5l-79 146q-9 17 -41 17h-15v-77h37v-125h-275zM266 -46h139q8 -23 8 -56q0 -55 -32 -92.5t-85 -53.5
l-61 54q45 34 45 82q0 27 -14 66z" />
    <glyph glyph-name="kgreenlandic" unicode="&#x138;" horiz-adv-x="646" 
d="M42 0v125h65v265h-70v125h243v-184h64l48 59h-48v125h263v-125h-58l-89 -108v-2q5 -3 15 -13q19 -19 29 -38l48 -87q9 -17 38 -17h25v-125h-126q-29 0 -44.5 7.5t-29.5 31.5l-79 146q-9 17 -41 17h-15v-77h37v-125h-275z" />
    <glyph glyph-name="Lacute" unicode="&#x139;" horiz-adv-x="634" 
d="M50 0v130h80v445h-80v140h339v-140h-80v-435h154v105h150v-245h-563zM126 761l116 150h177l-151 -150h-142z" />
    <glyph glyph-name="lacute" unicode="&#x13a;" horiz-adv-x="335" 
d="M63 190v400h-70v125h243v-515q0 -38 9.5 -52t38.5 -14q4 0 8.5 0.5t6.5 0.5h6v-137l-15 -2q-11 -1 -37 -1q-40 0 -69 6.5t-59 25.5t-46 60t-16 103zM59 761l116 150h177l-151 -150h-142z" />
    <glyph glyph-name="Lcommaaccent" unicode="&#x13b;" horiz-adv-x="634" 
d="M50 0v130h80v445h-80v140h339v-140h-80v-435h154v105h150v-245h-563zM282 -46h139q8 -23 8 -56q0 -55 -32 -92.5t-85 -53.5l-61 54q45 34 45 82q0 27 -14 66z" />
    <glyph glyph-name="lcommaaccent" unicode="&#x13c;" horiz-adv-x="335" 
d="M63 190v400h-70v125h243v-515q0 -38 9.5 -52t38.5 -14q4 0 8.5 0.5t6.5 0.5h6v-137l-15 -2q-11 -1 -37 -1q-40 0 -69 6.5t-59 25.5t-46 60t-16 103zM121 -46h139q8 -23 8 -56q0 -55 -32 -92.5t-85 -53.5l-61 54q45 34 45 82q0 27 -14 66z" />
    <glyph glyph-name="Lcaron" unicode="&#x13d;" horiz-adv-x="634" 
d="M50 0v130h80v445h-80v140h339v-140h-80v-435h154v105h150v-245h-563zM282 -46h139q8 -23 8 -56q0 -55 -32 -92.5t-85 -53.5l-61 54q45 34 45 82q0 27 -14 66z" />
    <glyph glyph-name="lcaron" unicode="&#x13e;" horiz-adv-x="336" 
d="M63 190v400h-70v125h243v-515q0 -38 9.5 -52t38.5 -14q4 0 8.5 0.5t6.5 0.5h6v-137l-15 -2q-11 -1 -37 -1q-40 0 -69 6.5t-59 25.5t-46 60t-16 103zM313 714h139q8 -23 8 -56q0 -55 -32 -92.5t-85 -53.5l-61 54q45 34 45 82q0 27 -14 66z" />
    <glyph glyph-name="Ldot" unicode="&#x13f;" horiz-adv-x="634" 
d="M50 0v130h80v445h-80v140h339v-140h-80v-435h154v105h150v-245h-563zM402 315v164h158v-164h-158z" />
    <glyph glyph-name="ldot" unicode="&#x140;" horiz-adv-x="494" 
d="M63 190v400h-70v125h243v-515q0 -38 9.5 -52t38.5 -14q4 0 8.5 0.5t6.5 0.5h6v-137l-15 -2q-11 -1 -37 -1q-40 0 -69 6.5t-59 25.5t-46 60t-16 103zM318 316v164h158v-164h-158z" />
    <glyph glyph-name="Lslash" unicode="&#x141;" horiz-adv-x="633" 
d="M49 0v130h80v95l-80 -42v146l80 42v204h-80v140h339v-140h-80v-108l164 88v-146l-164 -88v-181h164v105h140v-245h-563z" />
    <glyph glyph-name="lslash" unicode="&#x142;" horiz-adv-x="360" 
d="M7 212v146l70 38v194h-70v125h243v-225l89 49v-146l-89 -49v-141q0 -38 9.5 -52t38.5 -14q4 0 8.5 0.5t6.5 0.5h6v-140l-15 -2q-11 -1 -37 -1q-40 0 -69 6.5t-59 25.5t-46 60t-16 103v60z" />
    <glyph glyph-name="Nacute" unicode="&#x143;" horiz-adv-x="859" 
d="M49 0v130h80v455h-80v130h261l224 -379q12 -20 21 -47l9 -26h4l-3 28q-3 16 -3 52v242h-84v130h343v-130h-80v-585h-180l-225 377q-14 27 -21 47l-9 26h-4l3 -28q3 -16 3 -52v-240h84v-130h-343zM342 761l116 150h177l-151 -150h-142z" />
    <glyph glyph-name="nacute" unicode="&#x144;" horiz-adv-x="708" 
d="M42 0v125h65v243q0 22 -22 22h-48v125h164q35 0 53 -15.5t18 -42.5v-17v-8q0 -3 -1 -4h2q13 27 39 50q55 49 136 49q79 0 126.5 -45.5t47.5 -147.5v-209h65v-125h-238v302q0 68 -58 68q-54 0 -82.5 -46t-28.5 -106v-93h65v-125h-303zM278 565l116 150h177l-151 -150h-142
z" />
    <glyph glyph-name="Ncommaaccent" unicode="&#x145;" horiz-adv-x="859" 
d="M49 0v130h80v455h-80v130h261l224 -379q12 -20 21 -47l9 -26h4l-3 28q-3 16 -3 52v242h-84v130h343v-130h-80v-585h-180l-225 377q-14 27 -21 47l-9 26h-4l3 -28q3 -16 3 -52v-240h84v-130h-343zM363 -46h139q8 -23 8 -56q0 -55 -32 -92.5t-85 -53.5l-61 54q45 34 45 82
q0 27 -14 66z" />
    <glyph glyph-name="ncommaaccent" unicode="&#x146;" horiz-adv-x="708" 
d="M42 0v125h65v243q0 22 -22 22h-48v125h164q35 0 53 -15.5t18 -42.5v-17v-8q0 -3 -1 -4h2q13 27 39 50q55 49 136 49q79 0 126.5 -45.5t47.5 -147.5v-209h65v-125h-238v302q0 68 -58 68q-54 0 -82.5 -46t-28.5 -106v-93h65v-125h-303zM295 -46h139q8 -23 8 -56
q0 -55 -32 -92.5t-85 -53.5l-61 54q45 34 45 82q0 27 -14 66z" />
    <glyph glyph-name="Ncaron" unicode="&#x147;" horiz-adv-x="859" 
d="M49 0v130h80v455h-80v130h261l224 -379q12 -20 21 -47l9 -26h4l-3 28q-3 16 -3 52v242h-84v130h343v-130h-80v-585h-180l-225 377q-14 27 -21 47l-9 26h-4l3 -28q3 -16 3 -52v-240h84v-130h-343zM348 761l-99 150h135l47 -82h2l47 82h135l-99 -150h-168z" />
    <glyph glyph-name="ncaron" unicode="&#x148;" horiz-adv-x="708" 
d="M42 0v125h65v243q0 22 -22 22h-48v125h164q35 0 53 -15.5t18 -42.5v-17v-8q0 -3 -1 -4h2q13 27 39 50q55 49 136 49q79 0 126.5 -45.5t47.5 -147.5v-209h65v-125h-238v302q0 68 -58 68q-54 0 -82.5 -46t-28.5 -106v-93h65v-125h-303zM284 565l-99 150h135l47 -82h2l47 82
h135l-99 -150h-168z" />
    <glyph glyph-name="napostrophe" unicode="&#x149;" horiz-adv-x="708" 
d="M42 0v125h65v243q0 22 -22 22h-48v125h164q35 0 53 -15.5t18 -42.5v-17v-8q0 -3 -1 -4h2q13 27 39 50q55 49 136 49q79 0 126.5 -45.5t47.5 -147.5v-209h65v-125h-238v302q0 68 -58 68q-54 0 -82.5 -46t-28.5 -106v-93h65v-125h-303zM5 750h139q8 -23 8 -56
q0 -55 -32 -92.5t-85 -53.5l-61 54q45 34 45 82q0 27 -14 66z" />
    <glyph glyph-name="Eng" unicode="&#x14a;" horiz-adv-x="859" 
d="M49 0v130h80v455h-80v130h261l224 -379q12 -20 21 -47l9 -26h4l-3 28q-3 16 -3 52v242h-84v130h343v-130h-80v-518q0 -83 -21.5 -138t-64 -83.5t-92.5 -39.5t-121 -11v148q52 0 86.5 14t36.5 38l-229 382q-14 27 -21 47l-9 26h-4l3 -28q3 -16 3 -52v-240h84v-130h-343z
" />
    <glyph glyph-name="eng" unicode="&#x14b;" horiz-adv-x="683" 
d="M42 0v125h65v243q0 22 -22 22h-48v125h164q35 0 53 -15.5t18 -42.5v-17v-8q0 -3 -1 -4h2q13 27 39 50q55 49 136 49q79 0 126.5 -45.5t47.5 -147.5v-347q0 -49 -18 -86.5t-43.5 -57.5t-61 -32t-63 -15.5t-56.5 -3.5q-25 0 -33 1l-13 2v139q1 -1 6 -1h16q93 0 93 66v303
q0 68 -58 68q-54 0 -82.5 -46t-28.5 -106v-93h65v-125h-303z" />
    <glyph glyph-name="Omacron" unicode="&#x14c;" 
d="M34 362q0 155 106.5 260t269.5 105t269.5 -105t106.5 -260q0 -159 -106.5 -266.5t-269.5 -107.5t-269.5 107.5t-106.5 266.5zM219 362q0 -93 56 -156t135 -63t135 63t56 156q0 89 -56 149.5t-135 60.5t-135 -60.5t-56 -149.5zM273 782v112h275v-112h-275z" />
    <glyph glyph-name="omacron" unicode="&#x14d;" horiz-adv-x="634" 
d="M25 256q0 120 84 195.5t207 75.5q125 0 209 -75.5t84 -195.5q0 -119 -84 -193.5t-208 -74.5t-208 74.5t-84 193.5zM200 256q0 -56 34 -90t83 -34t83 34t34 90t-34 91.5t-83 35.5t-83 -35.5t-34 -91.5zM180 586v112h275v-112h-275z" />
    <glyph glyph-name="Obreve" unicode="&#x14e;" 
d="M34 362q0 155 106.5 260t269.5 105t269.5 -105t106.5 -260q0 -159 -106.5 -266.5t-269.5 -107.5t-269.5 107.5t-106.5 266.5zM219 362q0 -93 56 -156t135 -63t135 63t56 156q0 89 -56 149.5t-135 60.5t-135 -60.5t-56 -149.5zM410 756q-73 0 -123.5 39t-50.5 106v10h117
v-11q0 -28 17 -43t40 -15t40 15t17 43v11h117v-10q0 -67 -50.5 -106t-123.5 -39z" />
    <glyph glyph-name="obreve" unicode="&#x14f;" horiz-adv-x="634" 
d="M25 256q0 120 84 195.5t207 75.5q125 0 209 -75.5t84 -195.5q0 -119 -84 -193.5t-208 -74.5t-208 74.5t-84 193.5zM200 256q0 -56 34 -90t83 -34t83 34t34 90t-34 91.5t-83 35.5t-83 -35.5t-34 -91.5zM317 560q-73 0 -123.5 39t-50.5 106v10h117v-11q0 -28 17 -43t40 -15
t40 15t17 43v11h117v-10q0 -67 -50.5 -106t-123.5 -39z" />
    <glyph glyph-name="Ohungarumlaut" unicode="&#x150;" 
d="M34 362q0 155 106.5 260t269.5 105t269.5 -105t106.5 -260q0 -159 -106.5 -266.5t-269.5 -107.5t-269.5 107.5t-106.5 266.5zM219 362q0 -93 56 -156t135 -63t135 63t56 156q0 89 -56 149.5t-135 60.5t-135 -60.5t-56 -149.5zM436 761l81 150h163l-118 -150h-126z
M228 761l76 150h139l-79 -150h-136z" />
    <glyph glyph-name="ohungarumlaut" unicode="&#x151;" horiz-adv-x="634" 
d="M25 256q0 120 84 195.5t207 75.5q125 0 209 -75.5t84 -195.5q0 -119 -84 -193.5t-208 -74.5t-208 74.5t-84 193.5zM200 256q0 -56 34 -90t83 -34t83 34t34 90t-34 91.5t-83 35.5t-83 -35.5t-34 -91.5zM343 565l81 150h163l-118 -150h-126zM135 565l76 150h139l-79 -150
h-136z" />
    <glyph glyph-name="OE" unicode="&#x152;" horiz-adv-x="1013" 
d="M32 359q0 153 112.5 258.5t271.5 105.5q38 0 75.5 -4t56.5 -4h406v-211h-140v71h-147v-146h204v-139h-204v-150h159v71h140v-211h-418q-19 0 -56.5 -4t-75.5 -4q-159 0 -271.5 107t-112.5 260zM213 359q0 -93 58.5 -158t144.5 -65q36 0 53 4l19 3v429l-19 4q-19 3 -53 3
q-86 0 -144.5 -63.5t-58.5 -156.5z" />
    <glyph glyph-name="oe" unicode="&#x153;" horiz-adv-x="967" 
d="M25 256q0 120 82.5 195.5t202.5 75.5q68 0 112.5 -20t86.5 -60h2q34 39 77.5 59.5t112.5 20.5q111 0 174.5 -69.5t63.5 -179.5q0 -11 -2 -33l-2 -21h-324q9 -46 42 -71.5t77 -25.5q45 0 99 26q23 11 43 26l64 -116q-28 -22 -59 -37q-78 -38 -161 -38q-73 0 -118 22.5
t-83 62.5h-2q-42 -42 -87 -63.5t-115 -21.5q-122 0 -204 74.5t-82 193.5zM614 320h151q0 29 -19 53t-47 24q-68 0 -85 -77zM199 256q0 -56 34 -90t83 -34t83 34t34 90t-34 91.5t-83 35.5t-83 -35.5t-34 -91.5z" />
    <glyph glyph-name="Racute" unicode="&#x154;" horiz-adv-x="740" 
d="M49 0v130h80v455h-80v130h323q95 0 143 -14q67 -21 105 -72.5t38 -128.5q0 -133 -116 -196v-2q14 -8 16 -10q19 -15 28 -33l55 -106q12 -23 46 -23h25v-130h-118q-42 0 -64 11.5t-37 41.5l-87 167q-9 18 -22 24.5t-40 6.5h-36v-121h75v-130h-334zM308 391h81q91 0 91 93
q0 60 -39 79q-24 12 -69 12h-64v-184zM264 761l116 150h177l-151 -150h-142z" />
    <glyph glyph-name="racute" unicode="&#x155;" horiz-adv-x="476" 
d="M39 0v125h70v243q0 22 -22 22h-48v125h163q73 0 73 -66v-27q0 -16 -1 -19t-1 -7h2q17 54 62.5 91t101.5 37q11 0 14 -1t6 -1v-170l-10 2q-7 1 -25 1q-70 0 -106 -41t-36 -114v-75h70v-125h-313zM181 565l116 150h177l-151 -150h-142z" />
    <glyph glyph-name="Rcommaaccent" unicode="&#x156;" horiz-adv-x="740" 
d="M49 0v130h80v455h-80v130h323q95 0 143 -14q67 -21 105 -72.5t38 -128.5q0 -133 -116 -196v-2q14 -8 16 -10q19 -15 28 -33l55 -106q12 -23 46 -23h25v-130h-118q-42 0 -64 11.5t-37 41.5l-87 167q-9 18 -22 24.5t-40 6.5h-36v-121h75v-130h-334zM308 391h81q91 0 91 93
q0 60 -39 79q-24 12 -69 12h-64v-184zM326 -46h139q8 -23 8 -56q0 -55 -32 -92.5t-85 -53.5l-61 54q45 34 45 82q0 27 -14 66z" />
    <glyph glyph-name="rcommaaccent" unicode="&#x157;" horiz-adv-x="476" 
d="M39 0v125h70v243q0 22 -22 22h-48v125h163q73 0 73 -66v-27q0 -16 -1 -19t-1 -7h2q17 54 62.5 91t101.5 37q11 0 14 -1t6 -1v-170l-10 2q-7 1 -25 1q-70 0 -106 -41t-36 -114v-75h70v-125h-313zM126 -46h139q8 -23 8 -56q0 -55 -32 -92.5t-85 -53.5l-61 54q45 34 45 82
q0 27 -14 66z" />
    <glyph glyph-name="Rcaron" unicode="&#x158;" horiz-adv-x="740" 
d="M49 0v130h80v455h-80v130h323q95 0 143 -14q67 -21 105 -72.5t38 -128.5q0 -133 -116 -196v-2q14 -8 16 -10q19 -15 28 -33l55 -106q12 -23 46 -23h25v-130h-118q-42 0 -64 11.5t-37 41.5l-87 167q-9 18 -22 24.5t-40 6.5h-36v-121h75v-130h-334zM308 391h81q91 0 91 93
q0 60 -39 79q-24 12 -69 12h-64v-184zM270 761l-99 150h135l47 -82h2l47 82h135l-99 -150h-168z" />
    <glyph glyph-name="rcaron" unicode="&#x159;" horiz-adv-x="476" 
d="M39 0v125h70v243q0 22 -22 22h-48v125h163q73 0 73 -66v-27q0 -16 -1 -19t-1 -7h2q17 54 62.5 91t101.5 37q11 0 14 -1t6 -1v-170l-10 2q-7 1 -25 1q-70 0 -106 -41t-36 -114v-75h70v-125h-313zM187 565l-99 150h135l47 -82h2l47 82h135l-99 -150h-168z" />
    <glyph glyph-name="Sacute" unicode="&#x15a;" horiz-adv-x="618" 
d="M40 254h160v-53q0 -27 29.5 -42.5t73.5 -15.5t70 15t26 43q0 13 -7 24.5t-15.5 19.5t-27 17t-30.5 13.5l-37 13.5t-37 14q-43 17 -71.5 32t-58 40t-44 60.5t-14.5 82.5q0 57 22 99t59.5 65.5t81 34t94.5 10.5q63 0 117 -15t90 -46.5t36 -75.5v-106h-160v45q0 20 -24 31.5
t-59 11.5q-77 0 -77 -49q0 -41 62 -69q15 -7 62 -24q50 -17 81.5 -31.5t66.5 -39.5t52.5 -62t17.5 -85q0 -59 -23.5 -103.5t-64 -70t-88 -38t-100.5 -12.5q-107 0 -185 46t-78 128v92zM217 761l116 150h177l-151 -150h-142z" />
    <glyph glyph-name="sacute" unicode="&#x15b;" horiz-adv-x="509" 
d="M27 113v69h145v-26q0 -37 75 -37q63 0 63 30q0 5 -1 9.5t-4 8.5t-6 6.5t-9 6t-11 5.5t-14 5t-16 5l-19 5.5t-21 6.5q-34 11 -58.5 22t-51 30t-40.5 47.5t-14 65.5q0 57 36 93.5t82.5 49t102.5 12.5q32 0 64.5 -6t63.5 -18.5t50 -35t19 -52.5v-70h-145v23q0 28 -52 28
q-49 0 -49 -26q0 -21 22 -32.5t68 -23.5q29 -8 48.5 -14.5t45.5 -20t42 -29t27.5 -40.5t11.5 -56q0 -82 -67.5 -124t-167.5 -42q-49 0 -98 13t-85.5 42.5t-36.5 69.5zM167 565l116 150h177l-151 -150h-142z" />
    <glyph glyph-name="Scircumflex" unicode="&#x15c;" horiz-adv-x="618" 
d="M40 254h160v-53q0 -27 29.5 -42.5t73.5 -15.5t70 15t26 43q0 13 -7 24.5t-15.5 19.5t-27 17t-30.5 13.5l-37 13.5t-37 14q-43 17 -71.5 32t-58 40t-44 60.5t-14.5 82.5q0 57 22 99t59.5 65.5t81 34t94.5 10.5q63 0 117 -15t90 -46.5t36 -75.5v-106h-160v45q0 20 -24 31.5
t-59 11.5q-77 0 -77 -49q0 -41 62 -69q15 -7 62 -24q50 -17 81.5 -31.5t66.5 -39.5t52.5 -62t17.5 -85q0 -59 -23.5 -103.5t-64 -70t-88 -38t-100.5 -12.5q-107 0 -185 46t-78 128v92zM124 761l99 150h168l99 -150h-135l-47 82h-2l-47 -82h-135z" />
    <glyph glyph-name="scircumflex" unicode="&#x15d;" horiz-adv-x="509" 
d="M27 113v69h145v-26q0 -37 75 -37q63 0 63 30q0 5 -1 9.5t-4 8.5t-6 6.5t-9 6t-11 5.5t-14 5t-16 5l-19 5.5t-21 6.5q-34 11 -58.5 22t-51 30t-40.5 47.5t-14 65.5q0 57 36 93.5t82.5 49t102.5 12.5q32 0 64.5 -6t63.5 -18.5t50 -35t19 -52.5v-70h-145v23q0 28 -52 28
q-49 0 -49 -26q0 -21 22 -32.5t68 -23.5q29 -8 48.5 -14.5t45.5 -20t42 -29t27.5 -40.5t11.5 -56q0 -82 -67.5 -124t-167.5 -42q-49 0 -98 13t-85.5 42.5t-36.5 69.5zM74 565l99 150h168l99 -150h-135l-47 82h-2l-47 -82h-135z" />
    <glyph glyph-name="Scedilla" unicode="&#x15e;" horiz-adv-x="618" 
d="M232 -104l31 94q-95 9 -159 53.5t-64 118.5v92h160v-53q0 -27 29.5 -42.5t73.5 -15.5t70 15t26 43q0 13 -7 24.5t-15.5 19.5t-27 17t-30.5 13.5l-37 13.5t-37 14q-43 17 -71.5 32t-58 40t-44 60.5t-14.5 82.5q0 57 22 99t59.5 65.5t81 34t94.5 10.5q63 0 117 -15
t90 -46.5t36 -75.5v-106h-160v45q0 20 -24 31.5t-59 11.5q-77 0 -77 -49q0 -41 62 -69q15 -7 62 -24q50 -17 81.5 -31.5t66.5 -39.5t52.5 -62t17.5 -85q0 -103 -67 -158t-169 -64l-14 -40q41 -2 68 -24.5t27 -61.5q0 -48 -41.5 -73t-97.5 -25q-31 0 -48 4q-7 1 -21 5v75
l14 -4q12 -4 35 -4q48 0 48 26q0 28 -56 28h-25z" />
    <glyph glyph-name="scedilla" unicode="&#x15f;" horiz-adv-x="509" 
d="M183 -104l31 94q-74 7 -130.5 38.5t-56.5 84.5v69h145v-26q0 -37 75 -37q63 0 63 30q0 5 -1 9.5t-4 8.5t-6 6.5t-9 6t-11 5.5t-14 5t-16 5l-19 5.5t-21 6.5q-34 11 -58.5 22t-51 30t-40.5 47.5t-14 65.5q0 57 36 93.5t82.5 49t102.5 12.5q32 0 64.5 -6t63.5 -18.5t50 -35
t19 -52.5v-70h-145v23q0 28 -52 28q-49 0 -49 -26q0 -21 22 -32.5t68 -23.5q29 -8 48.5 -14.5t45.5 -20t42 -29t27.5 -40.5t11.5 -56q0 -71 -53 -112.5t-135 -50.5l-14 -41q41 -2 68 -24.5t27 -61.5q0 -48 -41.5 -73t-97.5 -25q-31 0 -48 4q-7 1 -21 5v75l14 -4q12 -4 35 -4
q48 0 48 26q0 28 -56 28h-25z" />
    <glyph glyph-name="Scaron" unicode="&#x160;" horiz-adv-x="618" 
d="M40 254h160v-53q0 -27 29.5 -42.5t73.5 -15.5t70 15t26 43q0 13 -7 24.5t-15.5 19.5t-27 17t-30.5 13.5l-37 13.5t-37 14q-43 17 -71.5 32t-58 40t-44 60.5t-14.5 82.5q0 57 22 99t59.5 65.5t81 34t94.5 10.5q63 0 117 -15t90 -46.5t36 -75.5v-106h-160v45q0 20 -24 31.5
t-59 11.5q-77 0 -77 -49q0 -41 62 -69q15 -7 62 -24q50 -17 81.5 -31.5t66.5 -39.5t52.5 -62t17.5 -85q0 -59 -23.5 -103.5t-64 -70t-88 -38t-100.5 -12.5q-107 0 -185 46t-78 128v92zM223 761l-99 150h135l47 -82h2l47 82h135l-99 -150h-168z" />
    <glyph glyph-name="scaron" unicode="&#x161;" horiz-adv-x="509" 
d="M27 113v69h145v-26q0 -37 75 -37q63 0 63 30q0 5 -1 9.5t-4 8.5t-6 6.5t-9 6t-11 5.5t-14 5t-16 5l-19 5.5t-21 6.5q-34 11 -58.5 22t-51 30t-40.5 47.5t-14 65.5q0 57 36 93.5t82.5 49t102.5 12.5q32 0 64.5 -6t63.5 -18.5t50 -35t19 -52.5v-70h-145v23q0 28 -52 28
q-49 0 -49 -26q0 -21 22 -32.5t68 -23.5q29 -8 48.5 -14.5t45.5 -20t42 -29t27.5 -40.5t11.5 -56q0 -82 -67.5 -124t-167.5 -42q-49 0 -98 13t-85.5 42.5t-36.5 69.5zM173 565l-99 150h135l47 -82h2l47 82h135l-99 -150h-168z" />
    <glyph glyph-name="Tcommaaccent" unicode="&#x162;" horiz-adv-x="695" 
d="M178 0v130h80v445h-85v-101h-150v241h649v-241h-150v101h-85v-445h80v-130h-133l-17 -50q41 -2 68 -24.5t27 -61.5q0 -48 -41.5 -73t-97.5 -25q-31 0 -48 4q-7 1 -21 5v75l14 -4q12 -4 35 -4q48 0 48 26q0 28 -56 28h-25l34 104h-126z" />
    <glyph glyph-name="tcommaaccent" unicode="&#x163;" horiz-adv-x="410" 
d="M158 -104l40 123q-107 44 -107 171v200h-70v125h75v139h168v-139h108v-125h-108v-182q0 -40 28.5 -55.5t63.5 -15.5q4 0 9.5 0.5t7.5 0.5h6v-140l-13 -2q-8 -1 -34 -1q-29 0 -60 4l-17 -49q41 -2 68 -24.5t27 -61.5q0 -48 -41.5 -73t-97.5 -25q-31 0 -48 4q-7 1 -21 5v75
l14 -4q12 -4 35 -4q48 0 48 26q0 28 -56 28h-25z" />
    <glyph glyph-name="Tcaron" unicode="&#x164;" horiz-adv-x="695" 
d="M178 0v130h80v445h-85v-101h-150v241h649v-241h-150v101h-85v-445h80v-130h-339zM263 761l-99 150h135l47 -82h2l47 82h135l-99 -150h-168z" />
    <glyph glyph-name="tcaron" unicode="&#x165;" horiz-adv-x="408" 
d="M89 190v200h-70v125h75v139h168v-139h108v-125h-108v-182q0 -40 28.5 -55.5t63.5 -15.5q4 0 9.5 0.5t7.5 0.5h6v-140l-13 -2q-8 -1 -34 -1q-30 0 -57.5 3.5t-62.5 15.5t-60.5 32t-43 57.5t-17.5 86.5zM344 749h139q8 -23 8 -56q0 -55 -32 -92.5t-85 -53.5l-61 54
q45 34 45 82q0 27 -14 66z" />
    <glyph glyph-name="Tbar" unicode="&#x166;" horiz-adv-x="695" 
d="M95 279v112h163v184h-85v-101h-150v241h649v-241h-150v101h-85v-184h162v-112h-162v-149h80v-130h-339v130h80v149h-163z" />
    <glyph glyph-name="tbar" unicode="&#x167;" horiz-adv-x="408" 
d="M20 221v112h69v67h-70v115h75v139h168v-139h108v-115h-108v-67h102v-112h-102v-13q0 -40 28.5 -55.5t63.5 -15.5q4 0 9.5 0.5t7.5 0.5h6v-140l-13 -2q-8 -1 -34 -1q-30 0 -57.5 3.5t-62.5 15.5t-60.5 32t-43 57.5t-17.5 86.5v31h-69z" />
    <glyph glyph-name="Utilde" unicode="&#x168;" 
d="M107 273v312h-80v130h339v-130h-80v-312q0 -48 18 -79q30 -51 107 -51q71 0 104 50q19 31 19 80v312h-80v130h339v-130h-80v-312q0 -111 -59 -186q-82 -99 -244 -99q-77 0 -140.5 25.5t-102.5 70.5q-60 67 -60 189zM321 761h-112q0 153 128 153q28 0 51.5 -15t41.5 -30
t33 -15q37 0 37 57h112q0 -153 -128 -153q-28 0 -51.5 15t-41.5 30t-33 15q-37 0 -37 -57z" />
    <glyph glyph-name="utilde" unicode="&#x169;" horiz-adv-x="694" 
d="M91 181v209h-70v125h243v-307q0 -68 57 -68q49 0 78 47.5t29 109.5v93h-70v125h243v-368q0 -22 22 -22h43v-125h-159q-35 0 -53 15.5t-18 42.5v14q0 2 0.5 5.5t0.5 4.5v5h-2q-13 -25 -38 -49q-54 -50 -137 -50q-75 0 -122 46t-47 147zM241 565h-112q0 153 128 153
q28 0 51.5 -15t41.5 -30t33 -15q37 0 37 57h112q0 -153 -128 -153q-28 0 -51.5 15t-41.5 30t-33 15q-37 0 -37 -57z" />
    <glyph glyph-name="Umacron" unicode="&#x16a;" 
d="M107 273v312h-80v130h339v-130h-80v-312q0 -48 18 -79q30 -51 107 -51q71 0 104 50q19 31 19 80v312h-80v130h339v-130h-80v-312q0 -111 -59 -186q-82 -99 -244 -99q-77 0 -140.5 25.5t-102.5 70.5q-60 67 -60 189zM273 782v112h275v-112h-275z" />
    <glyph glyph-name="umacron" unicode="&#x16b;" horiz-adv-x="694" 
d="M91 181v209h-70v125h243v-307q0 -68 57 -68q49 0 78 47.5t29 109.5v93h-70v125h243v-368q0 -22 22 -22h43v-125h-159q-35 0 -53 15.5t-18 42.5v14q0 2 0.5 5.5t0.5 4.5v5h-2q-13 -25 -38 -49q-54 -50 -137 -50q-75 0 -122 46t-47 147zM193 586v112h275v-112h-275z" />
    <glyph glyph-name="Ubreve" unicode="&#x16c;" 
d="M107 273v312h-80v130h339v-130h-80v-312q0 -48 18 -79q30 -51 107 -51q71 0 104 50q19 31 19 80v312h-80v130h339v-130h-80v-312q0 -111 -59 -186q-82 -99 -244 -99q-77 0 -140.5 25.5t-102.5 70.5q-60 67 -60 189zM410 756q-73 0 -123.5 39t-50.5 106v10h117v-11
q0 -28 17 -43t40 -15t40 15t17 43v11h117v-10q0 -67 -50.5 -106t-123.5 -39z" />
    <glyph glyph-name="ubreve" unicode="&#x16d;" horiz-adv-x="694" 
d="M91 181v209h-70v125h243v-307q0 -68 57 -68q49 0 78 47.5t29 109.5v93h-70v125h243v-368q0 -22 22 -22h43v-125h-159q-35 0 -53 15.5t-18 42.5v14q0 2 0.5 5.5t0.5 4.5v5h-2q-13 -25 -38 -49q-54 -50 -137 -50q-75 0 -122 46t-47 147zM330 560q-73 0 -123.5 39t-50.5 106
v10h117v-11q0 -28 17 -43t40 -15t40 15t17 43v11h117v-10q0 -67 -50.5 -106t-123.5 -39z" />
    <glyph glyph-name="Uring" unicode="&#x16e;" 
d="M107 273v312h-80v130h339v-130h-80v-312q0 -48 18 -79q30 -51 107 -51q71 0 104 50q19 31 19 80v312h-80v130h339v-130h-80v-312q0 -111 -59 -186q-82 -99 -244 -99q-77 0 -140.5 25.5t-102.5 70.5q-60 67 -60 189zM410 747q-47 0 -82 23.5t-35 67.5q0 45 35 69t82 24
t83 -24t36 -69q0 -44 -35.5 -67.5t-83.5 -23.5zM410 801q17 0 27.5 10t10.5 27q0 18 -10.5 28.5t-27.5 10.5q-16 0 -26 -10.5t-10 -28.5q0 -37 36 -37z" />
    <glyph glyph-name="uring" unicode="&#x16f;" horiz-adv-x="694" 
d="M91 181v209h-70v125h243v-307q0 -68 57 -68q49 0 78 47.5t29 109.5v93h-70v125h243v-368q0 -22 22 -22h43v-125h-159q-35 0 -53 15.5t-18 42.5v14q0 2 0.5 5.5t0.5 4.5v5h-2q-13 -25 -38 -49q-54 -50 -137 -50q-75 0 -122 46t-47 147zM330 551q-47 0 -82 23.5t-35 67.5
q0 45 35 69t82 24t83 -24t36 -69q0 -44 -35.5 -67.5t-83.5 -23.5zM330 605q17 0 27.5 10t10.5 27q0 18 -10.5 28.5t-27.5 10.5q-16 0 -26 -10.5t-10 -28.5q0 -37 36 -37z" />
    <glyph glyph-name="Uhungarumlaut" unicode="&#x170;" 
d="M107 273v312h-80v130h339v-130h-80v-312q0 -48 18 -79q30 -51 107 -51q71 0 104 50q19 31 19 80v312h-80v130h339v-130h-80v-312q0 -111 -59 -186q-82 -99 -244 -99q-77 0 -140.5 25.5t-102.5 70.5q-60 67 -60 189zM436 761l81 150h163l-118 -150h-126zM228 761l76 150
h139l-79 -150h-136z" />
    <glyph glyph-name="uhungarumlaut" unicode="&#x171;" horiz-adv-x="694" 
d="M91 181v209h-70v125h243v-307q0 -68 57 -68q49 0 78 47.5t29 109.5v93h-70v125h243v-368q0 -22 22 -22h43v-125h-159q-35 0 -53 15.5t-18 42.5v14q0 2 0.5 5.5t0.5 4.5v5h-2q-13 -25 -38 -49q-54 -50 -137 -50q-75 0 -122 46t-47 147zM356 565l81 150h163l-118 -150h-126
zM148 565l76 150h139l-79 -150h-136z" />
    <glyph glyph-name="Uogonek" unicode="&#x172;" horiz-adv-x="821" 
d="M107 263v322h-80v130h339v-130h-80v-322q0 -58 33 -89t91 -31t91 31t33 89v322h-80v130h339v-130h-80v-322q0 -167 -163 -251q-12 -6 -27 -17.5t-31 -36t-16 -52.5q0 -34 57 -38l-28 -110q-72 8 -111.5 37.5t-39.5 77.5q0 65 55 115q-137 0 -219.5 76.5t-82.5 198.5z" />
    <glyph glyph-name="uogonek" unicode="&#x173;" horiz-adv-x="694" 
d="M465 -127q0 72 67 127h-25q-35 0 -53 15.5t-18 42.5v14q0 2 0.5 5.5t0.5 4.5v5h-2q-13 -25 -38 -49q-54 -50 -134 -50q-78 0 -125 45.5t-47 147.5v209h-70v125h243v-307q0 -68 56 -68q52 0 80 47.5t28 109.5v93h-70v125h243v-368q0 -22 22 -22h43v-125h-4
q-22 0 -48.5 -32.5t-26.5 -61.5q0 -34 57 -38l-28 -110q-72 8 -111.5 37.5t-39.5 77.5z" />
    <glyph glyph-name="Wcircumflex" unicode="&#x174;" horiz-adv-x="1032" 
d="M12 585v130h317v-130h-83l66 -317q5 -21 7 -51l2 -24h4l3 24q1 5 4 23t5 28l110 447h138l110 -447q3 -10 5.5 -28.5t3.5 -22.5l3 -24h4l2 24q1 18 7 51l66 317h-83v130h317v-130h-60l-142 -585h-197l-91 366q-2 10 -5 28.5l-4 24.5l-3 26h-4l-3 -26q-1 -5 -3.5 -23.5
t-5.5 -29.5l-91 -366h-197l-142 585h-60zM333 761l99 150h168l99 -150h-135l-47 82h-2l-47 -82h-135z" />
    <glyph glyph-name="wcircumflex" unicode="&#x175;" horiz-adv-x="872" 
d="M10 390v125h274v-125h-51l38 -179q4 -21 6 -45l2 -23h4q0 16 1 23q1 16 7 45l71 304h148l71 -304q5 -19 7 -45q1 -7 1 -23h4l2 23q2 24 6 45l38 179h-51v125h274v-125h-59l-98 -390h-200l-58 238q-5 20 -7 46l-2 22h-4q0 -15 -1 -22q-1 -18 -8 -46l-58 -238h-200l-98 390
h-59zM253 565l99 150h168l99 -150h-135l-47 82h-2l-47 -82h-135z" />
    <glyph glyph-name="Ycircumflex" unicode="&#x176;" horiz-adv-x="671" 
d="M166 0v130h80v163l-175 292h-61v130h296v-130h-60l73 -132q4 -6 12 -25q1 -2 4 -10h2q3 8 4 10l12 25l73 132h-60v130h295v-130h-61l-175 -292v-163h80v-130h-339zM155 761l99 150h168l99 -150h-135l-47 82h-2l-47 -82h-135z" />
    <glyph glyph-name="ycircumflex" unicode="&#x177;" horiz-adv-x="627" 
d="M12 -170l53 123q11 -8 22 -12q26 -12 63 -12q65 0 85 42l2 5l-170 414h-58v125h283v-125h-50l63 -191q3 -9 6.5 -26.5t3.5 -18.5q2 -14 2 -22h4q2 16 4 22q7 29 12 45l61 191h-47v125h267v-125h-53l-166 -435q-64 -165 -240 -165q-58 0 -107 20q-23 9 -40 20zM134 565
l99 150h168l99 -150h-135l-47 82h-2l-47 -82h-135z" />
    <glyph glyph-name="Ydieresis" unicode="&#x178;" horiz-adv-x="671" 
d="M166 0v130h80v163l-175 292h-61v130h296v-130h-60l73 -132q4 -6 12 -25q1 -2 4 -10h2q3 8 4 10l12 25l73 132h-60v130h295v-130h-61l-175 -292v-163h80v-130h-339zM395 771v140h131v-140h-131zM151 771v140h131v-140h-131z" />
    <glyph glyph-name="Zacute" unicode="&#x179;" horiz-adv-x="660" 
d="M49 0v110l305 432q7 11 21 25l11 9v2q-9 0 -14 -1q-16 -2 -29 -2h-140v-101h-150v241h549v-108l-306 -434q-5 -8 -21 -24l-11 -10v-2l14 2q8 1 29 1h157v105h150v-245h-565zM247 761l116 150h177l-151 -150h-142z" />
    <glyph glyph-name="zacute" unicode="&#x17a;" horiz-adv-x="552" 
d="M41 106l226 255q13 14 22 21l10 8v2q-10 0 -15 -1q-9 -1 -31 -1h-67v-62h-145v187h460v-107l-222 -254q-13 -14 -22 -21l-10 -8v-2q11 0 16 1q9 1 30 1h78v62h145v-187h-475v106zM183 565l116 150h177l-151 -150h-142z" />
    <glyph glyph-name="Zdotaccent" unicode="&#x17b;" horiz-adv-x="660" 
d="M49 0v110l305 432q7 11 21 25l11 9v2q-9 0 -14 -1q-16 -2 -29 -2h-140v-101h-150v241h549v-108l-306 -434q-5 -8 -21 -24l-11 -10v-2l14 2q8 1 29 1h157v105h150v-245h-565zM266 779v132h143v-132h-143z" />
    <glyph glyph-name="zdotaccent" unicode="&#x17c;" horiz-adv-x="552" 
d="M41 106l226 255q13 14 22 21l10 8v2q-10 0 -15 -1q-9 -1 -31 -1h-67v-62h-145v187h460v-107l-222 -254q-13 -14 -22 -21l-10 -8v-2q11 0 16 1q9 1 30 1h78v62h145v-187h-475v106zM202 583v132h143v-132h-143z" />
    <glyph glyph-name="Zcaron" unicode="&#x17d;" horiz-adv-x="660" 
d="M49 0v110l305 432q7 11 21 25l11 9v2q-9 0 -14 -1q-16 -2 -29 -2h-140v-101h-150v241h549v-108l-306 -434q-5 -8 -21 -24l-11 -10v-2l14 2q8 1 29 1h157v105h150v-245h-565zM253 761l-99 150h135l47 -82h2l47 82h135l-99 -150h-168z" />
    <glyph glyph-name="zcaron" unicode="&#x17e;" horiz-adv-x="552" 
d="M41 106l226 255q13 14 22 21l10 8v2q-10 0 -15 -1q-9 -1 -31 -1h-67v-62h-145v187h460v-107l-222 -254q-13 -14 -22 -21l-10 -8v-2q11 0 16 1q9 1 30 1h78v62h145v-187h-475v106zM189 565l-99 150h135l47 -82h2l47 82h135l-99 -150h-168z" />
    <glyph glyph-name="longs" unicode="&#x17f;" horiz-adv-x="380" 
d="M42 0v125h65v265h-70v125h70v21q0 48 17 84.5t42 56.5t59 32t61.5 15.5t57.5 3.5q22 0 44 -2l17 -2v-140l-10 2q-7 1 -32 1q-83 0 -83 -47v-415h76v-125h-314z" />
    <glyph glyph-name="florin" unicode="&#x192;" horiz-adv-x="546" 
d="M-5 -118v146l29 -3q21 -4 41 -4q86 0 92 64l19 225h-62v135h74l9 90q5 48 25 84.5t46 56.5t60.5 32t62.5 15.5t58 3.5q31 0 56 -4l32 -4v-146l-32 4q-17 3 -44 3q-87 0 -93 -64l-7 -71h95v-135h-107l-21 -244q-5 -48 -25 -84.5t-46 -56.5t-60.5 -32t-62 -15.5t-57.5 -3.5
t-53 4z" />
    <glyph glyph-name="Scommaaccent" unicode="&#x218;" horiz-adv-x="618" 
d="M40 254h160v-53q0 -27 29.5 -42.5t73.5 -15.5t70 15t26 43q0 13 -7 24.5t-15.5 19.5t-27 17t-30.5 13.5l-37 13.5t-37 14q-43 17 -71.5 32t-58 40t-44 60.5t-14.5 82.5q0 57 22 99t59.5 65.5t81 34t94.5 10.5q63 0 117 -15t90 -46.5t36 -75.5v-106h-160v45q0 20 -24 31.5
t-59 11.5q-77 0 -77 -49q0 -41 62 -69q15 -7 62 -24q50 -17 81.5 -31.5t66.5 -39.5t52.5 -62t17.5 -85q0 -59 -23.5 -103.5t-64 -70t-88 -38t-100.5 -12.5q-107 0 -185 46t-78 128v92zM240 -46h139q8 -23 8 -56q0 -55 -32 -92.5t-85 -53.5l-61 54q45 34 45 82q0 27 -14 66z
" />
    <glyph glyph-name="scommaaccent" unicode="&#x219;" horiz-adv-x="509" 
d="M27 113v69h145v-26q0 -37 75 -37q63 0 63 30q0 5 -1 9.5t-4 8.5t-6 6.5t-9 6t-11 5.5t-14 5t-16 5l-19 5.5t-21 6.5q-34 11 -58.5 22t-51 30t-40.5 47.5t-14 65.5q0 57 36 93.5t82.5 49t102.5 12.5q32 0 64.5 -6t63.5 -18.5t50 -35t19 -52.5v-70h-145v23q0 28 -52 28
q-49 0 -49 -26q0 -21 22 -32.5t68 -23.5q29 -8 48.5 -14.5t45.5 -20t42 -29t27.5 -40.5t11.5 -56q0 -82 -67.5 -124t-167.5 -42q-49 0 -98 13t-85.5 42.5t-36.5 69.5zM191 -46h139q8 -23 8 -56q0 -55 -32 -92.5t-85 -53.5l-61 54q45 34 45 82q0 27 -14 66z" />
    <glyph glyph-name="uni021A" unicode="&#x21a;" horiz-adv-x="695" 
d="M178 0v130h80v445h-85v-101h-150v241h649v-241h-150v101h-85v-445h80v-130h-339zM278 -46h139q8 -23 8 -56q0 -55 -32 -92.5t-85 -53.5l-61 54q45 34 45 82q0 27 -14 66z" />
    <glyph glyph-name="uni021B" unicode="&#x21b;" horiz-adv-x="408" 
d="M89 190v200h-70v125h75v139h168v-139h108v-125h-108v-182q0 -40 28.5 -55.5t63.5 -15.5q4 0 9.5 0.5t7.5 0.5h6v-140l-13 -2q-8 -1 -34 -1q-30 0 -57.5 3.5t-62.5 15.5t-60.5 32t-43 57.5t-17.5 86.5zM164 -46h139q8 -23 8 -56q0 -55 -32 -92.5t-85 -53.5l-61 54
q45 34 45 82q0 27 -14 66z" />
    <glyph glyph-name="circumflex" unicode="&#x2c6;" horiz-adv-x="486" 
d="M60 761l99 150h168l99 -150h-135l-47 82h-2l-47 -82h-135z" />
    <glyph glyph-name="caron" unicode="&#x2c7;" horiz-adv-x="486" 
d="M159 761l-99 150h135l47 -82h2l47 82h135l-99 -150h-168z" />
    <glyph glyph-name="breve" unicode="&#x2d8;" horiz-adv-x="484" 
d="M242 756q-73 0 -123.5 39t-50.5 106v10h117v-11q0 -28 17 -43t40 -15t40 15t17 43v11h117v-10q0 -67 -50.5 -106t-123.5 -39z" />
    <glyph glyph-name="dotaccent" unicode="&#x2d9;" horiz-adv-x="485" 
d="M171 779v132h143v-132h-143z" />
    <glyph glyph-name="ring" unicode="&#x2da;" horiz-adv-x="485" 
d="M242 747q-47 0 -82 23.5t-35 67.5q0 45 35 69t82 24t83 -24t36 -69q0 -44 -35.5 -67.5t-83.5 -23.5zM242 801q17 0 27.5 10t10.5 27q0 18 -10.5 28.5t-27.5 10.5q-16 0 -26 -10.5t-10 -28.5q0 -37 36 -37z" />
    <glyph glyph-name="ogonek" unicode="&#x2db;" horiz-adv-x="486" 
d="M132 -127q0 44 27.5 84.5t75.5 65.5h96v-23q-22 0 -49.5 -32.5t-27.5 -61.5q0 -34 57 -38l-28 -110q-72 8 -111.5 37.5t-39.5 77.5z" />
    <glyph glyph-name="tilde" unicode="&#x2dc;" horiz-adv-x="485" 
d="M153 761h-112q0 153 128 153q28 0 51.5 -15t41.5 -30t33 -15q37 0 37 57h112q0 -153 -128 -153q-28 0 -51.5 15t-41.5 30t-33 15q-37 0 -37 -57z" />
    <glyph glyph-name="hungarumlaut" unicode="&#x2dd;" horiz-adv-x="485" 
d="M225 761l81 150h163l-118 -150h-126zM17 761l76 150h139l-79 -150h-136z" />
    <glyph glyph-name="uni1E9E" unicode="&#x1e9e;" horiz-adv-x="763" 
d="M31 0v130h81v330q0 114 72 184.5t189 70.5h306v-120l-93 -141q-4 -6 -10 -13.5t-7 -9.5l-8 -9v-2q80 -23 124 -80t44 -122q0 -90 -68.5 -159t-200.5 -69q-49 0 -100 10v150q35 -8 76 -8q64 0 88.5 23.5t24.5 52.5q0 71 -159 80v106l76 128q4 6 11 14.5t8 10.5l9 9v2
q-8 0 -12 -1q-14 -2 -27 -2h-81q-37 0 -60 -28.5t-23 -72.5v-464h-260z" />
    <glyph glyph-name="thinspace" unicode="&#x2009;" horiz-adv-x="232" 
 />
    <glyph glyph-name="endash" unicode="&#x2013;" horiz-adv-x="738" 
d="M71 222v130h596v-130h-596z" />
    <glyph glyph-name="emdash" unicode="&#x2014;" horiz-adv-x="938" 
d="M71 222v130h796v-130h-796z" />
    <glyph glyph-name="quoteleft" unicode="&#x2018;" horiz-adv-x="261" 
d="M31 475l89 255h117l-54 -255h-152z" />
    <glyph glyph-name="quoteright" unicode="&#x2019;" horiz-adv-x="252" 
d="M36 475l54 255h152l-89 -255h-117z" />
    <glyph glyph-name="quotesinglbase" unicode="&#x201a;" horiz-adv-x="268" 
d="M22 -89l54 255h147l-89 -255h-112z" />
    <glyph glyph-name="quotedblleft" unicode="&#x201c;" horiz-adv-x="460" 
d="M229 475l89 255h118l-54 -255h-153zM31 475l89 255h118l-54 -255h-153z" />
    <glyph glyph-name="quotedblright" unicode="&#x201d;" horiz-adv-x="451" 
d="M234 475l54 255h153l-89 -255h-118zM36 475l54 255h153l-89 -255h-118z" />
    <glyph glyph-name="quotedblbase" unicode="&#x201e;" horiz-adv-x="460" 
d="M214 -89l54 255h147l-89 -255h-112zM22 -89l54 255h147l-89 -255h-112z" />
    <glyph glyph-name="dagger" unicode="&#x2020;" horiz-adv-x="492" 
d="M163 -50v435h-130v130h130v200h165v-200h131v-130h-131v-435h-165z" />
    <glyph glyph-name="daggerdbl" unicode="&#x2021;" horiz-adv-x="502" 
d="M38 150v130h130v105h-130v130h130v200h165v-200h131v-130h-131v-105h131v-130h-131v-200h-165v200h-130z" />
    <glyph glyph-name="bullet" unicode="&#x2022;" horiz-adv-x="460" 
d="M230 105q-77 0 -131.5 54.5t-54.5 131.5t54.5 131.5t131.5 54.5t131.5 -54.5t54.5 -131.5t-54.5 -131.5t-131.5 -54.5z" />
    <glyph glyph-name="ellipsis" unicode="&#x2026;" horiz-adv-x="926" 
d="M708 0v164h158v-164h-158zM384 0v164h158v-164h-158zM60 0v164h158v-164h-158z" />
    <glyph glyph-name="perthousand" unicode="&#x2030;" horiz-adv-x="1257" 
d="M220 382q-76 0 -128.5 50t-52.5 122q0 70 53 121.5t128 51.5t128 -51.5t53 -121.5q0 -72 -53 -122t-128 -50zM79 0l552 715h152l-552 -715h-152zM220 502q23 0 39 15t16 38q0 21 -16 36.5t-39 15.5t-39 -15.5t-16 -36.5q0 -23 16 -38t39 -15zM868 160q0 70 53 121.5
t128 51.5t128 -51.5t53 -121.5q0 -72 -53 -122t-128 -50q-76 0 -128.5 50t-52.5 122zM466 160q0 70 53 121.5t128 51.5t128 -51.5t53 -121.5q0 -72 -53 -122t-128 -50q-76 0 -128.5 50t-52.5 122zM994 161q0 -23 16 -38t39 -15t39 15t16 38q0 21 -16 36.5t-39 15.5
t-39 -15.5t-16 -36.5zM592 161q0 -23 16 -38t39 -15t39 15t16 38q0 21 -16 36.5t-39 15.5t-39 -15.5t-16 -36.5z" />
    <glyph glyph-name="guilsinglleft" unicode="&#x2039;" horiz-adv-x="392" 
d="M193 77l-164 205l164 206h158l-164 -206l164 -205h-158z" />
    <glyph glyph-name="guilsinglright" unicode="&#x203a;" horiz-adv-x="392" 
d="M41 77l164 205l-164 206h158l164 -206l-164 -205h-158z" />
    <glyph glyph-name="fraction" unicode="&#x2044;" horiz-adv-x="195" 
d="M-129 0l336 715h119l-336 -715h-119z" />
    <glyph glyph-name="zerosuperior" unicode="&#x2070;" horiz-adv-x="406" 
d="M203 413q-170 0 -170 231q0 230 170 230t170 -230q0 -231 -170 -231zM203 528q43 0 43 116q0 114 -43 114t-43 -114q0 -116 43 -116z" />
    <glyph glyph-name="foursuperior" unicode="&#x2074;" horiz-adv-x="418" 
d="M214 423v92h-197v79l171 270h150v-257h53v-92h-53v-92h-124zM126 607h88v105q0 5 0.5 10.5t1.5 12t1 10.5l2 17h-4q-2 -12 -5 -16q-9 -21 -15 -30l-69 -107v-2z" />
    <glyph glyph-name="fivesuperior" unicode="&#x2075;" horiz-adv-x="392" 
d="M184 413q-65 0 -119 29q-26 14 -44 29l60 87q18 -12 28 -17q34 -18 63 -18q26 0 44 13.5t18 35.5q0 47 -66 47q-21 0 -43 -6q-10 -3 -17 -7l-65 24l20 234h278v-141h-97v47h-79l-2 -53q0 -9 -1 -12q-1 -2 -1 -6l2 -1l12 3q10 3 29 3q71 0 114 -38.5t43 -96.5
q0 -62 -47 -109t-130 -47z" />
    <glyph glyph-name="sixsuperior" unicode="&#x2076;" horiz-adv-x="397" 
d="M212 413q-75 0 -129 54t-54 155q0 100 57 176t156 76q44 0 77 -12q17 -5 29 -12l-32 -108l-22 8q-26 8 -44 8q-58 0 -76 -52h2q18 6 37 6q74 0 115.5 -41.5t41.5 -104.5q0 -62 -43 -107.5t-115 -45.5zM212 528q15 0 24 11.5t9 27.5q0 23 -13.5 40.5t-40.5 17.5
q-34 0 -34 -19q0 -35 16.5 -56.5t38.5 -21.5z" />
    <glyph glyph-name="sevensuperior" unicode="&#x2077;" horiz-adv-x="380" 
d="M44 423l172 323l11 17l6 7v4l-10 -2q-14 -2 -21 -2h-77v-47h-97v141h337v-85l-190 -356h-131z" />
    <glyph glyph-name="eightsuperior" unicode="&#x2078;" horiz-adv-x="406" 
d="M204 413q-71 0 -123 36.5t-52 102.5q0 56 64 106q-43 36 -43 88q0 60 45.5 94t109.5 34q63 0 111 -34.5t48 -94.5q0 -28 -17 -56.5t-32 -43.5q59 -38 59 -99q0 -62 -50.5 -97.5t-119.5 -35.5zM231 684q17 27 17 53q0 14 -13.5 22.5t-29.5 8.5q-35 0 -35 -28q0 -19 15 -31
t46 -25zM203 519q19 0 32 9t13 25q0 17 -16 28.5t-51 27.5q-6 3 -9 4q-22 -24 -22 -53q0 -19 15.5 -30t37.5 -11z" />
    <glyph glyph-name="ninesuperior" unicode="&#x2079;" horiz-adv-x="397" 
d="M154 413q-42 0 -75 12q-17 5 -30 12l32 108l22 -8q26 -8 46 -8q57 0 74 52h-2q-18 -6 -40 -6q-70 0 -112 43t-42 103q0 61 42.5 107t113.5 46q75 0 130 -53.5t55 -152.5q0 -103 -57 -179t-157 -76zM210 662q30 0 30 28q0 26 -17 47.5t-39 21.5q-15 0 -23.5 -11t-8.5 -29
q0 -22 14 -39.5t44 -17.5z" />
    <glyph glyph-name="zeroinferior" unicode="&#x2080;" horiz-adv-x="406" 
d="M203 -167q-170 0 -170 231q0 230 170 230t170 -230q0 -231 -170 -231zM203 -52q43 0 43 116q0 114 -43 114t-43 -114q0 -116 43 -116z" />
    <glyph glyph-name="oneinferior" unicode="&#x2081;" horiz-adv-x="378" 
d="M37 -157v98h99v153q0 12 2 22l2 8h-4l-4 -5q-1 -1 -4 -5.5t-6 -6.5l-31 -27l-72 79l135 125h108v-343h100v-98h-325z" />
    <glyph glyph-name="twoinferior" unicode="&#x2082;" horiz-adv-x="400" 
d="M27 -106q0 47 21 84t51 59t60 39t51 34t21 35q0 16 -13 25t-30 9q-26 0 -52 -22q-14 -14 -21 -23l-83 71q17 27 41 45q54 44 128 44q67 0 112 -36t45 -99q0 -40 -19.5 -71t-48 -50t-57.5 -34t-51 -30.5t-25 -32.5h110v43h97v-141h-331l-3 19q-3 16 -3 32z" />
    <glyph glyph-name="threeinferior" unicode="&#x2083;" horiz-adv-x="393" 
d="M36 143v141h311v-79l-88 -101q102 -22 102 -116q0 -63 -46 -109t-127 -46q-66 0 -120 34q-24 15 -40 34l61 85q9 -10 24 -22q31 -21 67 -21q26 0 40 11.5t14 30.5q0 36 -62 36h-31l-24 57l72 89q5 7 16 16l8 7v4l-11 -2q-14 -2 -23 -2h-46v-47h-97z" />
    <glyph glyph-name="fourinferior" unicode="&#x2084;" horiz-adv-x="418" 
d="M214 -157v92h-197v79l171 270h150v-257h53v-92h-53v-92h-124zM126 27h88v105l3 33l2 17h-4q-2 -11 -5 -16q-9 -21 -15 -30l-69 -107v-2z" />
    <glyph glyph-name="fiveinferior" unicode="&#x2085;" horiz-adv-x="392" 
d="M184 -167q-65 0 -119 29q-26 14 -44 29l60 87q14 -11 28 -18q32 -17 63 -17q26 0 44 13.5t18 35.5q0 47 -66 47q-21 0 -43 -6q-10 -3 -17 -7l-65 24l20 234h278v-141h-97v47h-79l-2 -53q0 -9 -1 -12q-1 -2 -1 -6l2 -1l12 3q10 3 29 3q71 0 114 -38.5t43 -96.5
q0 -62 -47 -109t-130 -47z" />
    <glyph glyph-name="sixinferior" unicode="&#x2086;" horiz-adv-x="397" 
d="M212 -167q-75 0 -129 54t-54 155q0 100 57 176t156 76q44 0 77 -12q17 -5 29 -12l-32 -108l-22 8q-26 8 -44 8q-58 0 -76 -52h2q18 6 37 6q74 0 115.5 -41.5t41.5 -104.5q0 -62 -43 -107.5t-115 -45.5zM212 -52q15 0 24 11.5t9 27.5q0 23 -13.5 40.5t-40.5 17.5
q-34 0 -34 -19q0 -35 16.5 -56.5t38.5 -21.5z" />
    <glyph glyph-name="seveninferior" unicode="&#x2087;" horiz-adv-x="380" 
d="M44 -157l172 323l11 17l6 7v4l-10 -2q-14 -2 -21 -2h-77v-47h-97v141h337v-85l-190 -356h-131z" />
    <glyph glyph-name="eightinferior" unicode="&#x2088;" horiz-adv-x="405" 
d="M204 -167q-71 0 -123 36.5t-52 102.5q0 56 64 106q-43 36 -43 88q0 60 45.5 94t109.5 34q63 0 111 -34.5t48 -94.5q0 -28 -17 -56.5t-32 -43.5q59 -38 59 -99q0 -62 -50.5 -97.5t-119.5 -35.5zM231 104q17 27 17 53q0 14 -13.5 22.5t-29.5 8.5q-35 0 -35 -28
q0 -19 15 -31t46 -25zM203 -61q19 0 32 9t13 25q0 17 -16 28.5t-51 27.5q-6 3 -9 4q-22 -24 -22 -53q0 -19 15.5 -30t37.5 -11z" />
    <glyph glyph-name="nineinferior" unicode="&#x2089;" horiz-adv-x="397" 
d="M154 -167q-42 0 -75 12q-17 5 -30 12l32 108l22 -8q26 -8 46 -8q57 0 74 52h-2q-18 -6 -40 -6q-70 0 -112 43t-42 103q0 61 42.5 107t113.5 46q75 0 130 -53.5t55 -152.5q0 -103 -57 -179t-157 -76zM210 82q30 0 30 28q0 26 -17 47.5t-39 21.5q-15 0 -23.5 -11t-8.5 -29
q0 -22 14 -39.5t44 -17.5z" />
    <glyph glyph-name="Euro" unicode="&#x20ac;" horiz-adv-x="610" 
d="M35 232v91h56q-5 35 -1 68h-55v91h72q34 107 129 176t216 69q41 0 81 -7l36 -7l-41 -148l-25 5q-28 5 -56 5q-101 0 -152 -93h215l-20 -91h-218q-3 -26 2 -68h202l-20 -91h-150q25 -41 64 -65t85 -24q29 0 67 8l30 7l28 -150q-11 -4 -37 -10q-46 -10 -91 -10
q-126 0 -216.5 67t-126.5 177h-74z" />
    <glyph glyph-name="trademark" unicode="&#x2122;" horiz-adv-x="979" 
d="M448 268l35 447h118l73 -175q2 -4 5 -15t4 -13q2 -4 4 -16h2q2 12 4 16q1 2 4 13t5 15l73 175h118l33 -447h-127l-10 174v22q0 7 1 10h-2l-51 -125h-98l-51 125h-2q1 -3 1 -10v-22l-12 -174h-127zM163 268v338h-142v109h408v-109h-140v-338h-126z" />
    <glyph glyph-name="minus" unicode="&#x2212;" horiz-adv-x="630" 
d="M42 222v130h546v-130h-546z" />
    <glyph glyph-name="infinity" unicode="&#x221e;" horiz-adv-x="503" 
d="M252 143q-84 0 -145 61t-61 145q0 86 60.5 145.5t145.5 59.5q86 0 145.5 -59.5t59.5 -145.5q0 -85 -59.5 -145.5t-145.5 -60.5z" />
    <glyph glyph-name="approxequal" unicode="&#x2248;" horiz-adv-x="630" 
d="M113 322l-63 99q81 81 165 81q40 0 74 -17.5t64.5 -35t59.5 -17.5q55 0 102 54l63 -99q-81 -81 -165 -81q-40 0 -74 17.5t-64.5 35t-59.5 17.5q-50 0 -102 -54zM113 93l-63 99q81 81 165 81q40 0 74 -17.5t64.5 -35t59.5 -17.5q55 0 102 54l63 -99q-81 -81 -165 -81
q-40 0 -74 17.5t-64.5 35t-59.5 17.5q-50 0 -102 -54z" />
    <glyph glyph-name="notequal" unicode="&#x2260;" horiz-adv-x="630" 
d="M112 47l38 60h-88v130h171l64 100h-235v130h319l69 108l76 -49l-38 -59h80v-130h-163l-64 -100h227v-130h-310l-68 -107z" />
    <glyph glyph-name="lessequal" unicode="&#x2264;" horiz-adv-x="630" 
d="M53 234v107l504 223v-145l-330 -131v-2l330 -130v-145zM56 -70h501v-130h-501v130z" />
    <glyph glyph-name="greaterequal" unicode="&#x2265;" horiz-adv-x="630" 
d="M73 11v145l330 130v2l-330 131v145l504 -223v-107zM74 -70h501v-130h-501v130z" />
    <glyph glyph-name="CR" horiz-adv-x="250" 
 />
    <glyph glyph-name="commaaccent" horiz-adv-x="335" 
d="M107 -46h139q8 -23 8 -56q0 -55 -32 -92.5t-85 -53.5l-61 54q45 34 45 82q0 27 -14 66z" />
    <glyph glyph-name="apple" horiz-adv-x="1130" 
d="M168 -5v152l-126 72v278l126 71v151l265 142l134 -71l132 71l265 -142v-151l124 -71v-278l-124 -72v-152l-265 -141l-132 71l-134 -71zM208 30l238 -126l121 66l118 -66l238 126v139l114 64v249l-114 66v136l-238 126l-118 -64l-121 64l-238 -126v-136l-114 -66v-249
l114 -64v-139zM242 64v121l-99 60v225l99 58v123l215 114l110 -59l107 59l214 -114v-123l100 -58v-225l-100 -60v-121l-214 -114l-107 58l-110 -58zM426 91h129v171h176v108h-176v128h85q11 0 13.5 -4.5t2.5 -16.5v-21h115v102q0 26 -10 37t-37 11h-346v-108h48v-407z" />
    <glyph glyph-name="zero.tnum" horiz-adv-x="600" 
d="M300 -12q-74 0 -127.5 28.5t-83.5 80.5t-44 117t-14 145t14 144.5t44 116t83.5 79.5t127.5 28t127.5 -28t83.5 -79.5t44 -116t14 -144.5t-14 -145t-44 -117t-83.5 -80.5t-127.5 -28.5zM300 143q89 0 89 216q0 213 -89 213t-89 -213q0 -216 89 -216z" />
    <glyph glyph-name="one.tnum" horiz-adv-x="600" 
d="M78 0v140h152v308q0 8 0.5 20.5t0.5 17.5v17h-2q-4 -8 -7 -12q-15 -21 -21 -26l-43 -39l-101 108l193 181h151v-575h153v-140h-476z" />
    <glyph glyph-name="two.tnum" horiz-adv-x="600" 
d="M556 0h-515q-8 45 -8 77q0 73 33 132t80.5 96t94.5 67.5t80 62t33 63.5q0 40 -22.5 57t-54.5 17q-44 0 -83 -41q-18 -18 -32 -41l-121 83q20 41 56 77q79 77 196 77q98 0 172 -56.5t74 -162.5q0 -58 -32 -107t-77.5 -82t-91.5 -61t-78.5 -58t-33.5 -60h180v85h150v-225z
" />
    <glyph glyph-name="three.tnum" horiz-adv-x="600" 
d="M57 500v215h472v-124l-134 -164q73 -17 115 -69t42 -126q0 -100 -70 -172t-200 -72q-102 0 -182 47q-36 21 -62 47l81 125q20 -19 44 -32q54 -32 106 -32q47 0 74.5 23t27.5 58q0 37 -29 59t-84 22q-11 0 -35 -2l-37 80l125 159q9 12 23 24l11 10v2q-10 0 -15 -1
q-18 -2 -30 -2h-93v-75h-150z" />
    <glyph glyph-name="four.tnum" horiz-adv-x="600" 
d="M4 173v106l276 436h214v-407h85v-135h-85v-173h-173v173h-317zM293 489l-115 -179v-2h143v173q0 28 4 48l3 26h-4l-8 -22q-10 -27 -23 -44z" />
    <glyph glyph-name="five.tnum" horiz-adv-x="600" 
d="M35 79l77 128q21 -19 45 -32q56 -32 109 -32q47 0 78.5 24t31.5 67q0 39 -30 63.5t-88 24.5q-41 0 -76 -13q-18 -7 -27 -13l-93 35l29 384h419v-215h-150v75h-117l-6 -93q0 -5 -2 -19l-2 -9h2q1 0 4 1l6 2t6 1q17 3 48 3q120 0 188.5 -64t68.5 -162q0 -106 -77 -176.5
t-201 -70.5q-98 0 -180 46q-36 20 -63 45z" />
    <glyph glyph-name="six.tnum" horiz-adv-x="600" 
d="M321 -12q-121 0 -205 87t-84 247q0 80 22.5 152.5t65 129t110 90t151.5 33.5q60 0 111 -15q27 -8 42 -16l-46 -145q-10 6 -30 11q-38 10 -70 10q-115 0 -156 -123h2q38 25 108 25q105 0 170.5 -73.5t65.5 -168.5q0 -97 -72 -170.5t-185 -73.5zM212 270q0 -47 32.5 -87
t76.5 -40q34 0 55.5 25t21.5 65q0 42 -29 71t-92 29q-65 0 -65 -63z" />
    <glyph glyph-name="seven.tnum" horiz-adv-x="600" 
d="M87 0l267 532q11 20 20 33q1 1 3.5 5t4.5 6v2q-10 0 -15 -1q-18 -2 -37 -2h-130v-75h-150v215h519v-122l-300 -593h-182z" />
    <glyph glyph-name="eight.tnum" horiz-adv-x="600" 
d="M32 204q0 98 103 178q-75 58 -75 141t61.5 143.5t176.5 60.5q107 0 177.5 -54t70.5 -145q0 -83 -74 -169q93 -59 93 -155q0 -87 -70.5 -151.5t-195.5 -64.5q-124 0 -195.5 64.5t-71.5 151.5zM231 519q0 -34 28 -54t92 -46q26 41 26 86q0 72 -77 72q-69 0 -69 -58z
M207 224q0 -38 25.5 -62t68.5 -24q37 0 61 19.5t24 52.5q0 29 -25.5 47t-93.5 47l-19 8q-41 -41 -41 -88z" />
    <glyph glyph-name="nine.tnum" horiz-adv-x="600" 
d="M22 483q0 97 72 170.5t185 73.5q121 0 205 -87t84 -247q0 -106 -37.5 -196t-119 -149.5t-193.5 -59.5q-58 0 -112 16l-43 15l46 145q9 -4 31 -10q42 -11 71 -11q118 0 158 126h-2q-33 -25 -109 -25q-104 0 -170 73t-66 166zM202 483q0 -41 28 -69.5t88 -28.5q70 0 70 66
q0 49 -34.5 85t-75.5 36q-32 0 -54 -26t-22 -63z" />
    <glyph glyph-name="hyphen.case" horiz-adv-x="446" 
d="M66 272v150h314v-150h-314z" />
    <glyph glyph-name="parenleft.case" horiz-adv-x="352" 
d="M319 -65h-142q-124 198 -124 442q0 212 124 403h142q-113 -188 -113 -403q0 -230 113 -442z" />
    <glyph glyph-name="parenright.case" horiz-adv-x="352" 
d="M175 -65h-142q113 212 113 442q0 215 -113 403h142q124 -191 124 -403q0 -244 -124 -442z" />
    <glyph glyph-name="bracketleft.case" horiz-adv-x="360" 
d="M82 -65v845h246v-120h-102v-605h102v-120h-246z" />
    <glyph glyph-name="bracketright.case" horiz-adv-x="360" 
d="M32 55h102v605h-102v120h246v-845h-246v120z" />
    <glyph glyph-name="braceleft.case" horiz-adv-x="383" 
d="M110 92v98q0 60 -42 84q-18 11 -43 12v150q25 1 43 12q42 24 42 87v88q0 51 20.5 85.5t54.5 50t63 21t61 5.5q23 0 31 -1q5 -1 12 -1v-124q-4 0 -7 1t-18 1q-28 0 -50.5 -12t-22.5 -42v-117q0 -64 -42 -102q-20 -18 -42 -25v-2q24 -7 42 -24q42 -38 42 -102v-127
q0 -30 22.5 -42t50.5 -12q15 0 18 1t7 1v-124q-7 0 -12 -1q-8 -1 -31 -1q-32 0 -61 5.5t-63 21t-54.5 50t-20.5 85.5z" />
    <glyph glyph-name="braceright.case" horiz-adv-x="382" 
d="M31 -68v124q4 0 7 -1t18 -1q28 0 50.5 12t22.5 42v127q0 64 42 102q18 17 42 24v2q-22 7 -42 25q-42 38 -42 102v117q0 30 -22.5 42t-50.5 12q-15 0 -18 -1t-7 -1v124q7 0 12 1q8 1 31 1q25 0 48 -3t52 -13t49.5 -26.5t35 -47.5t14.5 -72v-88q0 -62 43 -87q18 -10 42 -12
v-150q-24 -2 -42 -12q-43 -25 -43 -84v-98q0 -41 -14.5 -72t-35 -47.5t-49.5 -26.5t-52 -13t-48 -3q-23 0 -31 1q-5 1 -12 1z" />
    <glyph glyph-name="at.case" horiz-adv-x="810" 
d="M25 355q0 159 113 267.5t280 108.5q156 0 227 -66t71 -174v-198h74v-119h-283q-106 0 -166.5 54t-60.5 128q0 72 59.5 124t167.5 52h49q0 30 -42 47t-93 17q-95 0 -161 -73.5t-66 -167.5q0 -101 67 -170t185 -69v-130q-191 0 -306 105t-115 264zM451 360q0 -29 17 -48
t49 -19h39v134h-37q-33 0 -50.5 -19t-17.5 -48z" />
    <glyph glyph-name="guillemotleft.case" horiz-adv-x="653" 
d="M453 137l-164 205l164 206h158l-164 -206l164 -205h-158zM193 137l-164 205l164 206h158l-164 -206l164 -205h-158z" />
    <glyph glyph-name="guillemotright.case" horiz-adv-x="653" 
d="M302 137l164 205l-164 206h158l164 -206l-164 -205h-158zM42 137l164 205l-164 206h158l164 -206l-164 -205h-158z" />
    <glyph glyph-name="guilsinglleft.case" horiz-adv-x="393" 
d="M193 137l-164 205l164 206h158l-164 -206l164 -205h-158z" />
    <glyph glyph-name="guilsinglright.case" horiz-adv-x="393" 
d="M42 137l164 205l-164 206h158l164 -206l-164 -205h-158z" />
    <glyph glyph-name="endash.case" horiz-adv-x="730" 
d="M67 282v130h596v-130h-596z" />
    <glyph glyph-name="emdash.case" horiz-adv-x="930" 
d="M67 282v130h796v-130h-796z" />
    <glyph glyph-name="periodcentered.case" horiz-adv-x="292" 
d="M67 263v164h158v-164h-158z" />
    <glyph glyph-name="questiondown.case" horiz-adv-x="462" 
d="M191 565v150h158v-150h-158zM16 184q0 45 17.5 82.5t43 61t50.5 44t42.5 43t17.5 46.5v33h166v-47q0 -37 -16 -68.5t-39.5 -52l-46.5 -39t-39 -39.5t-16 -44q0 -26 20.5 -42.5t50.5 -16.5q28 0 66 22q11 7 29 21l96 -117q-24 -24 -54 -41q-72 -42 -155 -42
q-92 0 -162.5 52.5t-70.5 143.5z" />
    <glyph glyph-name="exclamdown.case" horiz-adv-x="334" 
d="M88 565v150h158v-150h-158zM77 0l16 494h148l16 -494h-180z" />
    <glyph glyph-name="bullet.case" horiz-adv-x="460" 
d="M230 170q-77 0 -131.5 54.5t-54.5 131.5t54.5 131.5t131.5 54.5t131.5 -54.5t54.5 -131.5t-54.5 -131.5t-131.5 -54.5z" />
    <glyph glyph-name="zero.p_osf" horiz-adv-x="597" 
d="M43 278q0 56 14.5 106t44 92t80.5 66.5t117 24.5q87 0 146.5 -43.5t84 -107t24.5 -140.5q0 -122 -63.5 -205t-191.5 -83q-66 0 -117 24.5t-80.5 66.5t-44 92t-14.5 107zM217 278q0 -146 82 -146t82 144q0 147 -82 147t-82 -145z" />
    <glyph glyph-name="one.p_osf" horiz-adv-x="513" 
d="M52 0v135h143v172q0 7 0.5 23t0.5 24v27h-2q-6 -8 -10 -11q-11 -11 -28 -21l-55 -31l-79 118l193 119h147v-420h134v-135h-444z" />
    <glyph glyph-name="two.p_osf" horiz-adv-x="571" 
d="M57 0v115q269 161 269 247q0 32 -20 46.5t-46 14.5q-40 0 -94 -34q-24 -16 -43 -35l-85 106q28 31 64 54q84 53 182 53q86 0 151.5 -46t65.5 -135q0 -140 -212 -254v-2l17 3q22 2 51 2h170v-135h-470z" />
    <glyph glyph-name="three.p_osf" horiz-adv-x="544" 
d="M22 -40l76 117q17 -16 41 -30q56 -31 100 -31q46 0 71 21.5t25 55.5q0 35 -28.5 55.5t-83.5 20.5q-14 0 -21 -1q-4 -1 -12 -1l-34 75l117 155q9 12 23 24l11 10v2q-10 0 -15 -1q-18 -2 -30 -2h-82v-70h-140v195h443v-112l-124 -160q65 -15 107.5 -65t42.5 -117
q0 -94 -66.5 -161.5t-191.5 -67.5q-96 0 -171 44q-35 20 -58 44z" />
    <glyph glyph-name="four.p_osf" horiz-adv-x="612" 
d="M17 28v101l257 426h223v-397h85v-130h-85v-144h-169v144h-311zM187 158h141v180q0 28 4 48l3 26h-4l-9 -22q-2 -5 -9.5 -20t-12.5 -24z" />
    <glyph glyph-name="five.p_osf" horiz-adv-x="545" 
d="M20 -42l73 122q21 -19 42 -32q54 -32 101 -32q42 0 73.5 23t31.5 64t-31 63t-79 22q-39 0 -69 -11q-11 -3 -29 -11l-88 33l29 356h396v-195h-145v70h-104l-4 -85q0 -8 -2 -22l-2 -10h2l5 1q6 2 10 3q15 3 45 3q111 0 175.5 -61t64.5 -154q0 -100 -75 -166.5t-189 -66.5
q-98 0 -171 43q-36 20 -60 43z" />
    <glyph glyph-name="six.p_osf" horiz-adv-x="596" 
d="M37 305q0 96 36 180t114 141t183 57q65 0 119 -14q24 -6 42 -15l-47 -135q-11 5 -30 10q-38 10 -71 10q-57 0 -96 -33.5t-57 -83.5h2q12 8 44.5 15.5t57.5 7.5q106 0 169 -68t63 -160q0 -91 -66 -160t-176 -69q-121 0 -204 80.5t-83 236.5zM213 272q0 -58 32 -99t79 -41
q32 0 51 22.5t19 59.5q0 40 -26.5 69t-79.5 29q-75 0 -75 -40z" />
    <glyph glyph-name="seven.p_osf" horiz-adv-x="544" 
d="M61 -116l258 503q11 20 20 33q1 1 3.5 5t4.5 6v2q-10 0 -15 -1q-18 -2 -37 -2h-123v-70h-145v195h502v-115l-287 -556h-181z" />
    <glyph glyph-name="eight.p_osf" horiz-adv-x="597" 
d="M35 197q0 27 10.5 53t31.5 49.5t31.5 33.5t30.5 26q-72 52 -72 129q0 81 60 137.5t175 56.5q102 0 170.5 -52t68.5 -143q0 -13 -3 -27t-7 -26.5t-10.5 -25.5t-12 -22.5t-12.5 -19.5t-11.5 -15.5t-8.5 -11.5l-5 -6q88 -52 88 -140q0 -83 -69.5 -144t-193.5 -61
q-123 0 -192 61.5t-69 147.5zM232 485q0 -30 29 -50.5t88 -42.5q27 46 27 83q0 30 -20 47t-56 17q-34 0 -51 -15t-17 -39zM206 211q0 -33 26 -56.5t64 -23.5q42 0 65.5 18.5t23.5 51.5q0 8 -3 15.5t-11 14.5t-15.5 12.5t-22 12.5l-24 11.5t-29 12.5t-29.5 13
q-45 -40 -45 -82z" />
    <glyph glyph-name="nine.p_osf" horiz-adv-x="597" 
d="M63 -99l47 135q11 -5 30 -10q38 -10 71 -10q57 0 96 33.5t57 83.5h-2q-12 -8 -44.5 -15.5t-57.5 -7.5q-106 0 -169 68t-63 160q0 91 66 160t176 69q121 0 204 -80.5t83 -236.5q0 -96 -36 -180t-114 -141t-183 -57q-65 0 -119 14q-24 6 -42 15zM306 243q75 0 75 40
q0 58 -32 99t-79 41q-32 0 -51 -22.5t-19 -59.5q0 -40 26.5 -69t79.5 -29z" />
    <glyph glyph-name="zero.t_osf" horiz-adv-x="600" 
d="M44 278q0 56 14.5 106t44 92t80.5 66.5t117 24.5q87 0 146.5 -43.5t84 -107t24.5 -140.5q0 -122 -63.5 -205t-191.5 -83q-66 0 -117 24.5t-80.5 66.5t-44 92t-14.5 107zM218 278q0 -146 82 -146t82 144q0 147 -82 147t-82 -145z" />
    <glyph glyph-name="one.t_osf" horiz-adv-x="600" 
d="M95 0v135h143v172q0 7 0.5 23t0.5 24v27h-2q-6 -8 -10 -11q-11 -11 -28 -21l-55 -31l-79 118l193 119h147v-420h134v-135h-444z" />
    <glyph glyph-name="two.t_osf" horiz-adv-x="600" 
d="M71 0v115q269 161 269 247q0 32 -20 46.5t-46 14.5q-40 0 -94 -34q-24 -16 -43 -35l-85 106q28 31 64 54q84 53 182 53q86 0 151.5 -46t65.5 -135q0 -140 -212 -254v-2l17 3q22 2 51 2h170v-135h-470z" />
    <glyph glyph-name="three.t_osf" horiz-adv-x="600" 
d="M52 -38l76 117q22 -19 41 -30q52 -31 99 -31q46 0 71 21.5t25 55.5t-28.5 54.5t-83.5 20.5q-14 0 -21 -1q-4 -1 -12 -1l-34 75l117 154q9 12 23 24l11 10v2q-10 0 -15 -1q-18 -2 -30 -2h-82v-69h-139v194h441v-112l-123 -159q64 -14 106.5 -64t42.5 -117
q0 -94 -66.5 -161t-190.5 -67q-97 0 -170 43q-34 20 -58 44z" />
    <glyph glyph-name="four.t_osf" horiz-adv-x="600" 
d="M11 28v101l257 426h223v-397h85v-130h-85v-144h-169v144h-311zM181 158h141v180q0 28 4 48l3 26h-4l-9 -22q-3 -5 -10 -20t-12 -24z" />
    <glyph glyph-name="five.t_osf" horiz-adv-x="600" 
d="M47 -42l73 122q21 -19 42 -32q54 -32 101 -32q42 0 73.5 23t31.5 64t-31 63t-79 22q-39 0 -69 -11q-11 -3 -29 -11l-88 33l29 356h396v-195h-145v70h-104l-4 -85q0 -8 -2 -22l-2 -10h2l6 1q5 2 9 3q15 3 45 3q111 0 175.5 -61t64.5 -154q0 -100 -75 -166.5t-189 -66.5
q-98 0 -171 43q-36 20 -60 43z" />
    <glyph glyph-name="six.t_osf" horiz-adv-x="600" 
d="M39 305q0 96 36 180t114 141t183 57q65 0 119 -14q24 -6 42 -15l-47 -135q-11 5 -30 10q-38 10 -71 10q-57 0 -96 -33.5t-57 -83.5h2q12 8 44.5 15.5t57.5 7.5q106 0 169 -68t63 -160q0 -91 -66 -160t-176 -69q-121 0 -204 80.5t-83 236.5zM215 272q0 -58 32 -99t79 -41
q32 0 51 22.5t19 59.5q0 40 -26.5 69t-79.5 29q-75 0 -75 -40z" />
    <glyph glyph-name="seven.t_osf" horiz-adv-x="600" 
d="M89 -116l258 503q11 20 20 33q1 1 3.5 5t4.5 6v2q-10 0 -15 -1q-18 -2 -37 -2h-123v-70h-145v195h502v-115l-287 -556h-181z" />
    <glyph glyph-name="eight.t_osf" horiz-adv-x="600" 
d="M36 197q0 27 10.5 53t31.5 49.5t31.5 33.5t30.5 26q-72 52 -72 129q0 81 60 137.5t175 56.5q102 0 170.5 -52t68.5 -143q0 -13 -3 -27t-7 -26.5t-10.5 -25.5t-12 -22.5t-12.5 -19.5t-11.5 -15.5l-9.5 -11.5l-4 -6q88 -52 88 -140q0 -83 -69.5 -144t-193.5 -61
q-123 0 -192 61.5t-69 147.5zM233 485q0 -30 29.5 -50.5t87.5 -42.5q27 46 27 83q0 30 -20 47t-56 17q-34 0 -51 -15t-17 -39zM207 211q0 -33 26 -56.5t64 -23.5q42 0 65.5 18.5t23.5 51.5q0 8 -3 15.5t-11 14.5t-15.5 12.5t-22 12.5l-24 11.5t-29 12.5t-29.5 13
q-45 -40 -45 -82z" />
    <glyph glyph-name="nine.t_osf" horiz-adv-x="600" 
d="M64 -99l47 135q11 -5 30 -10q38 -10 71 -10q57 0 96 33.5t57 83.5h-2q-12 -8 -44.5 -15.5t-57.5 -7.5q-106 0 -169 68t-63 160q0 91 66 160t176 69q121 0 204 -80.5t83 -236.5q0 -96 -36 -180t-114 -141t-183 -57q-65 0 -119 14q-24 6 -42 15zM307 243q75 0 75 40
q0 58 -32 99t-79 41q-32 0 -51 -22.5t-19 -59.5q0 -40 26.5 -69t79.5 -29z" />
    <glyph glyph-name="dollar.osf" horiz-adv-x="537" 
d="M29 73l71 125q23 -15 49 -26q64 -27 120 -27q32 0 49.5 10.5t17.5 26.5t-30 27t-73 22t-85.5 28.5t-72.5 56t-30 95.5q0 69 47 112.5t126 57.5v103h109v-100q72 -10 120 -29q27 -12 40 -20l-56 -133q-14 9 -41 19q-47 19 -117 19q-63 0 -63 -32q0 -19 30 -31.5t73 -23.5
t85.5 -27.5t72.5 -53t30 -89.5q0 -67 -46 -115.5t-128 -63.5v-104h-109v101q-75 10 -139 42q-26 12 -50 30z" />
    <glyph glyph-name="cent.osf" horiz-adv-x="544" 
d="M26 300q0 87 52 155t145 91v83h114v-76q70 -9 123 -44q28 -18 44 -34l-78 -124q-15 17 -31 26q-40 26 -77 26q-59 0 -89.5 -30.5t-30.5 -70.5q0 -43 30.5 -74t89.5 -31q37 0 77 26q16 9 31 26l78 -124q-16 -16 -44 -34q-53 -35 -123 -44v-77h-114v84q-93 21 -145 90
t-52 156z" />
    <glyph glyph-name="sterling.osf" horiz-adv-x="605" 
d="M39 0v145h65v86h-53v108h53v42q0 95 73.5 155.5t180.5 60.5q72 0 142 -30q30 -13 54 -30l-73 -126q-24 12 -37 17q-43 17 -81 17q-34 0 -59 -18t-25 -46v-42h180v-108h-180v-86h289v-145h-529z" />
    <glyph glyph-name="yen.osf" horiz-adv-x="655" 
d="M77 292v96h65l-112 197h199l53 -118q13 -28 30 -73q6 -15 13 -37h2q7 22 13 37q17 45 30 73l53 118h199l-113 -197h74v-96h-129l-41 -71v-8h170v-96h-170v-117h-175v117h-161v96h161v8l-41 71h-120z" />
    <glyph glyph-name="florin.osf" horiz-adv-x="604" 
d="M23 -119v146l29 -3q21 -4 41 -4q87 0 93 64l16 182h-64v135h75l9 90q5 48 24.5 84.5t45.5 56.5t61 32t62.5 15.5t57.5 3.5q31 0 56 -4l32 -4v-146l-32 4q-17 3 -44 3q-88 0 -94 -64l-7 -71h96v-135h-108l-17 -201q-5 -48 -24.5 -84.5t-45.5 -56.5t-60.5 -32t-62 -15.5
t-57.5 -3.5t-53 4z" />
    <glyph glyph-name="Euro.osf" horiz-adv-x="575" 
d="M38 184v81h64q-1 11 -1 55h-63v81h79q32 87 111 141.5t199 54.5q36 0 74 -6l29 -6l-37 -135q-14 4 -21 5q-17 4 -49 4q-82 0 -123 -58h184l-19 -81h-190q-5 -26 2 -55h182l-16 -81h-132q45 -55 119 -55q33 0 61 7q6 2 26 7l25 -137l-33 -9q-38 -9 -82 -9
q-117 0 -196.5 55t-111.5 141h-81z" />
    <glyph glyph-name="zero.numerator" horiz-adv-x="406" 
d="M203 264q-170 0 -170 231q0 230 170 230t170 -230q0 -231 -170 -231zM203 379q43 0 43 116q0 114 -43 114t-43 -114q0 -116 43 -116z" />
    <glyph glyph-name="one.numerator" horiz-adv-x="379" 
d="M38 274v98h99v153q0 12 2 22l2 8h-4l-4 -5q-1 -1 -4 -5.5t-6 -6.5l-31 -27l-72 79l135 125h108v-343h100v-98h-325z" />
    <glyph glyph-name="two.numerator" horiz-adv-x="401" 
d="M28 325q0 47 21 84t51 59t60 39t51 34t21 35q0 16 -13 25t-30 9q-26 0 -52 -22q-14 -14 -21 -23l-83 71q17 27 41 45q54 44 128 44q67 0 112 -36t45 -99q0 -40 -19.5 -71t-48 -49.5t-57.5 -33.5t-51 -31t-25 -33h110v43h97v-141h-331l-3 19q-3 17 -3 32z" />
    <glyph glyph-name="three.numerator" horiz-adv-x="393" 
d="M36 574v141h311v-79l-88 -101q102 -22 102 -116q0 -63 -46 -109t-127 -46q-66 0 -120 34q-24 15 -40 34l61 85q11 -11 24 -21q32 -22 67 -22q26 0 40 11.5t14 30.5q0 36 -62 36h-31l-24 57l72 89q5 7 16 16l8 7v4l-11 -2q-14 -2 -23 -2h-46v-47h-97z" />
    <glyph glyph-name="four.numerator" horiz-adv-x="419" 
d="M214 274v92h-197v79l171 270h150v-257h53v-92h-53v-92h-124zM126 458h88v105l3 33l2 17h-4q-2 -12 -5 -16q-9 -21 -15 -30l-69 -107v-2z" />
    <glyph glyph-name="five.numerator" horiz-adv-x="391" 
d="M183 264q-65 0 -119 29q-26 14 -44 29l60 87q18 -12 28 -17q34 -18 63 -18q26 0 44 13.5t18 35.5q0 47 -66 47q-21 0 -43 -6q-10 -3 -17 -7l-65 24l20 234h278v-141h-97v47h-79l-2 -53q0 -9 -1 -12q-1 -2 -1 -6l2 -1l12 3q11 3 29 3q71 0 114 -38.5t43 -96.5
q0 -62 -47 -109t-130 -47z" />
    <glyph glyph-name="six.numerator" horiz-adv-x="396" 
d="M212 264q-75 0 -129 54t-54 155q0 100 57 176t156 76q44 0 77 -12q17 -5 29 -12l-32 -108l-22 8q-26 8 -44 8q-58 0 -76 -52h2q18 6 37 6q74 0 115.5 -41.5t41.5 -104.5q0 -62 -43 -107.5t-115 -45.5zM212 379q15 0 24 11.5t9 27.5q0 23 -13.5 40.5t-40.5 17.5
q-34 0 -34 -19q0 -35 16.5 -56.5t38.5 -21.5z" />
    <glyph glyph-name="seven.numerator" horiz-adv-x="379" 
d="M44 274l172 323l11 17l6 7v4l-10 -2q-14 -2 -21 -2h-77v-47h-97v141h337v-85l-190 -356h-131z" />
    <glyph glyph-name="eight.numerator" horiz-adv-x="405" 
d="M204 264q-71 0 -123 36.5t-52 102.5q0 56 64 106q-43 36 -43 88q0 60 45.5 94t109.5 34q63 0 111 -34.5t48 -94.5q0 -28 -17 -56.5t-32 -43.5q59 -38 59 -99q0 -62 -50.5 -97.5t-119.5 -35.5zM231 535q17 27 17 53q0 14 -13.5 22.5t-29.5 8.5q-35 0 -35 -28q0 -19 15 -31
t46 -25zM203 370q19 0 32 9t13 25q0 17 -16 28.5t-51 27.5q-6 3 -9 4q-22 -24 -22 -53q0 -19 15.5 -30t37.5 -11z" />
    <glyph glyph-name="nine.numerator" horiz-adv-x="396" 
d="M154 264q-42 0 -75 12q-17 4 -30 12l32 108l22 -8q26 -8 46 -8q57 0 74 52h-2q-18 -6 -40 -6q-70 0 -112 43t-42 103q0 61 42.5 107t113.5 46q75 0 130 -53.5t55 -152.5q0 -103 -57 -179t-157 -76zM210 513q30 0 30 28q0 26 -17 47.5t-39 21.5q-15 0 -23.5 -11t-8.5 -29
q0 -22 14 -39.5t44 -17.5z" />
    <glyph glyph-name="zero.denominator" horiz-adv-x="406" 
d="M203 -10q-170 0 -170 231q0 230 170 230t170 -230q0 -231 -170 -231zM203 105q43 0 43 116q0 114 -43 114t-43 -114q0 -116 43 -116z" />
    <glyph glyph-name="one.denominator" horiz-adv-x="378" 
d="M37 0v98h99v153q0 12 2 22l2 8h-4l-4 -5q-1 -1 -4 -5.5t-6 -6.5l-31 -27l-72 79l135 125h108v-343h100v-98h-325z" />
    <glyph glyph-name="two.denominator" horiz-adv-x="400" 
d="M27 51q0 47 21 84t51 59t60 39t51 34t21 35q0 16 -13 25t-30 9q-26 0 -52 -22q-14 -14 -21 -23l-83 71q17 27 41 45q54 44 128 44q67 0 112 -36t45 -99q0 -40 -19.5 -71t-48 -50t-57.5 -34t-51 -30.5t-25 -32.5h110v43h97v-141h-331l-3 19q-3 16 -3 32z" />
    <glyph glyph-name="three.denominator" horiz-adv-x="393" 
d="M36 300v141h311v-79l-88 -101q102 -22 102 -116q0 -63 -46 -109t-127 -46q-66 0 -120 34q-24 15 -40 34l61 85q11 -11 24 -21q32 -22 67 -22q26 0 40 11.5t14 30.5q0 36 -62 36h-31l-24 57l72 89q5 7 16 16l8 7v4l-11 -2q-14 -2 -23 -2h-46v-47h-97z" />
    <glyph glyph-name="four.denominator" horiz-adv-x="419" 
d="M214 0v92h-197v79l171 270h150v-257h53v-92h-53v-92h-124zM126 184h88v105l3 33l2 17h-4q-2 -12 -5 -16q-9 -21 -15 -30l-69 -107v-2z" />
    <glyph glyph-name="five.denominator" horiz-adv-x="392" 
d="M184 -10q-65 0 -119 29q-26 14 -44 29l60 87q18 -12 28 -17q34 -18 63 -18q26 0 44 13.5t18 35.5q0 47 -66 47q-21 0 -43 -6q-10 -3 -17 -7l-65 24l20 234h278v-141h-97v47h-79l-2 -53q0 -9 -1 -12q-1 -2 -1 -6l2 -1l12 3q10 3 29 3q71 0 114 -38.5t43 -96.5
q0 -62 -47 -109t-130 -47z" />
    <glyph glyph-name="six.denominator" horiz-adv-x="397" 
d="M212 -10q-75 0 -129 54t-54 155q0 100 57 176t156 76q44 0 77 -12q17 -5 29 -12l-32 -108l-22 8q-26 8 -44 8q-58 0 -76 -52h2q18 6 37 6q74 0 115.5 -41.5t41.5 -104.5q0 -62 -43 -107.5t-115 -45.5zM212 105q15 0 24 11.5t9 27.5q0 23 -13.5 40.5t-40.5 17.5
q-34 0 -34 -19q0 -35 16.5 -56.5t38.5 -21.5z" />
    <glyph glyph-name="seven.denominator" horiz-adv-x="379" 
d="M44 0l172 323l11 17l6 7v4l-10 -2q-14 -2 -21 -2h-77v-47h-97v141h337v-85l-190 -356h-131z" />
    <glyph glyph-name="eight.denominator" horiz-adv-x="406" 
d="M204 -10q-71 0 -123 36.5t-52 102.5q0 56 64 106q-43 36 -43 88q0 60 45.5 94t109.5 34q63 0 111 -34.5t48 -94.5q0 -28 -17 -56.5t-32 -43.5q59 -38 59 -99q0 -62 -50.5 -97.5t-119.5 -35.5zM231 261q17 27 17 53q0 14 -13.5 22.5t-29.5 8.5q-35 0 -35 -28q0 -19 15 -31
t46 -25zM203 96q19 0 32 9t13 25q0 17 -16 28.5t-51 27.5q-6 3 -9 4q-22 -24 -22 -53q0 -19 15.5 -30t37.5 -11z" />
    <glyph glyph-name="nine.denominator" horiz-adv-x="397" 
d="M154 -10q-42 0 -75 12q-17 4 -30 12l32 108l22 -8q26 -8 46 -8q57 0 74 52h-2q-18 -6 -40 -6q-70 0 -112 43t-42 103q0 61 42.5 107t113.5 46q75 0 130 -53.5t55 -152.5q0 -103 -57 -179t-157 -76zM210 239q30 0 30 28q0 26 -17 47.5t-39 21.5q-15 0 -23.5 -11t-8.5 -29
q0 -22 14 -39.5t44 -17.5z" />
    </font>
</defs>
</svg>
